<svg width="63" height="77" viewBox="0 0 63 77" fill="none" xmlns="http://www.w3.org/2000/svg">
<path d="M26.3542 30.125C28.5288 30.125 30.2917 28.3621 30.2917 26.1875C30.2917 24.0129 28.5288 22.25 26.3542 22.25C24.1796 22.25 22.4167 24.0129 22.4167 26.1875C22.4167 28.3621 24.1796 30.125 26.3542 30.125Z" stroke="#2D2D2D" stroke-width="1.5"/>
<path d="M26.3542 40.75C28.5288 40.75 30.2917 38.9871 30.2917 36.8125C30.2917 34.6379 28.5288 32.875 26.3542 32.875C24.1796 32.875 22.4167 34.6379 22.4167 36.8125C22.4167 38.9871 24.1796 40.75 26.3542 40.75Z" stroke="#2D2D2D" stroke-width="1.5"/>
<path d="M36.9792 40.75C39.1538 40.75 40.9167 38.9871 40.9167 36.8125C40.9167 34.6379 39.1538 32.875 36.9792 32.875C34.8046 32.875 33.0417 34.6379 33.0417 36.8125C33.0417 38.9871 34.8046 40.75 36.9792 40.75Z" stroke="#2D2D2D" stroke-width="1.5"/>
<path d="M33.7917 23L36.9792 26.1875M36.9792 26.1875L40.1667 29.375M36.9792 26.1875L40.1667 23M36.9792 26.1875L33.7917 29.375" stroke="#2D2D2D" stroke-width="1.5" stroke-linecap="round"/>
<path d="M8.11422 58.5H7.19092L9.86138 51.2273H10.7705L13.4409 58.5H12.5176L10.3443 52.3778H10.2875L8.11422 58.5ZM8.45513 55.6591H12.1767V56.4403H8.45513V55.6591ZM16.4905 53.0455V53.7557H13.6638V53.0455H16.4905ZM14.4876 51.7386H15.3257V56.9375C15.3257 57.1742 15.36 57.3518 15.4287 57.4702C15.4997 57.5862 15.5897 57.6643 15.6986 57.7045C15.8098 57.7424 15.927 57.7614 16.0501 57.7614C16.1425 57.7614 16.2182 57.7566 16.2774 57.7472C16.3366 57.7353 16.3839 57.7259 16.4194 57.7188L16.5899 58.4716C16.5331 58.4929 16.4538 58.5142 16.352 58.5355C16.2502 58.5592 16.1211 58.571 15.9649 58.571C15.7282 58.571 15.4961 58.5201 15.2689 58.4183C15.044 58.3165 14.8569 58.1615 14.7078 57.9531C14.561 57.7448 14.4876 57.482 14.4876 57.1648V51.7386ZM17.7511 58.5V53.0455H18.5892V58.5H17.7511ZM18.1773 52.1364C18.0139 52.1364 17.873 52.0807 17.7547 51.9695C17.6387 51.8582 17.5807 51.7244 17.5807 51.5682C17.5807 51.4119 17.6387 51.2782 17.7547 51.1669C17.873 51.0556 18.0139 51 18.1773 51C18.3406 51 18.4803 51.0556 18.5963 51.1669C18.7147 51.2782 18.7738 51.4119 18.7738 51.5682C18.7738 51.7244 18.7147 51.8582 18.5963 51.9695C18.4803 52.0807 18.3406 52.1364 18.1773 52.1364ZM24.5844 53.0455L22.5673 58.5H21.7151L19.698 53.0455H20.6071L22.1128 57.392H22.1696L23.6753 53.0455H24.5844ZM25.6906 58.5V53.0455H26.5286V58.5H25.6906ZM26.1167 52.1364C25.9534 52.1364 25.8125 52.0807 25.6941 51.9695C25.5781 51.8582 25.5201 51.7244 25.5201 51.5682C25.5201 51.4119 25.5781 51.2782 25.6941 51.1669C25.8125 51.0556 25.9534 51 26.1167 51C26.2801 51 26.4197 51.0556 26.5357 51.1669C26.6541 51.2782 26.7133 51.4119 26.7133 51.5682C26.7133 51.7244 26.6541 51.8582 26.5357 51.9695C26.4197 52.0807 26.2801 52.1364 26.1167 52.1364ZM30.1233 58.6136C29.6687 58.6136 29.2675 58.4988 28.9194 58.2692C28.5714 58.0372 28.2992 57.7105 28.1027 57.2891C27.9062 56.8653 27.8079 56.3646 27.8079 55.7869C27.8079 55.214 27.9062 54.7169 28.1027 54.2955C28.2992 53.8741 28.5726 53.5485 28.923 53.3189C29.2734 53.0893 29.6782 52.9744 30.1375 52.9744C30.4926 52.9744 30.7731 53.0336 30.9791 53.152C31.1874 53.268 31.346 53.4006 31.455 53.5497C31.5662 53.6965 31.6526 53.8172 31.7142 53.9119H31.7852V51.2273H32.6233V58.5H31.8136V57.6619H31.7142C31.6526 57.7614 31.565 57.8868 31.4514 58.0384C31.3378 58.1875 31.1756 58.3213 30.9649 58.4396C30.7542 58.5556 30.4737 58.6136 30.1233 58.6136ZM30.2369 57.8608C30.5731 57.8608 30.8572 57.7732 31.0892 57.598C31.3212 57.4205 31.4976 57.1754 31.6183 56.8629C31.739 56.5481 31.7994 56.1847 31.7994 55.7727C31.7994 55.3655 31.7402 55.0092 31.6219 54.7038C31.5035 54.3961 31.3283 54.157 31.0963 53.9865C30.8643 53.8137 30.5778 53.7273 30.2369 53.7273C29.8818 53.7273 29.5859 53.8184 29.3491 54.0007C29.1148 54.1806 28.9384 54.4257 28.82 54.7358C28.704 55.0436 28.646 55.3892 28.646 55.7727C28.646 56.161 28.7052 56.5137 28.8236 56.831C28.9443 57.1458 29.1219 57.3968 29.3562 57.5838C29.593 57.7685 29.8865 57.8608 30.2369 57.8608ZM35.8797 58.6278C35.534 58.6278 35.2203 58.5627 34.9386 58.4325C34.6569 58.3 34.4332 58.1094 34.2675 57.8608C34.1017 57.6098 34.0189 57.3068 34.0189 56.9517C34.0189 56.6392 34.0804 56.3859 34.2035 56.1918C34.3266 55.9953 34.4912 55.8414 34.6971 55.7301C34.9031 55.6188 35.1304 55.536 35.379 55.4815C35.6299 55.4247 35.882 55.3797 36.1353 55.3466C36.4668 55.304 36.7355 55.272 36.9415 55.2507C37.1498 55.227 37.3013 55.188 37.396 55.1335C37.4931 55.0791 37.5416 54.9844 37.5416 54.8494V54.821C37.5416 54.4706 37.4457 54.1984 37.254 54.0043C37.0646 53.8101 36.7769 53.7131 36.391 53.7131C35.9909 53.7131 35.6773 53.8007 35.45 53.9759C35.2227 54.151 35.0629 54.3381 34.9706 54.5369L34.1751 54.2528C34.3172 53.9214 34.5066 53.6634 34.7433 53.4787C34.9824 53.2917 35.2428 53.1615 35.5246 53.0881C35.8086 53.0123 36.088 52.9744 36.3626 52.9744C36.5378 52.9744 36.739 52.9957 36.9663 53.0384C37.196 53.0786 37.4173 53.1626 37.6304 53.2905C37.8458 53.4183 38.0246 53.6113 38.1666 53.8693C38.3086 54.1274 38.3797 54.473 38.3797 54.9062V58.5H37.5416V57.7614H37.499C37.4422 57.8797 37.3475 58.0064 37.2149 58.1413C37.0823 58.2763 36.9059 58.3911 36.6858 58.4858C36.4656 58.5805 36.1969 58.6278 35.8797 58.6278ZM36.0075 57.875C36.3389 57.875 36.6183 57.8099 36.8456 57.6797C37.0752 57.5495 37.248 57.3814 37.364 57.1754C37.4824 56.9695 37.5416 56.7528 37.5416 56.5256V55.7585C37.5061 55.8011 37.428 55.8402 37.3072 55.8757C37.1889 55.9089 37.0515 55.9384 36.8953 55.9645C36.7414 55.9882 36.5911 56.0095 36.4443 56.0284C36.2999 56.045 36.1827 56.0592 36.0927 56.071C35.8749 56.0994 35.6713 56.1456 35.4819 56.2095C35.2949 56.2711 35.1434 56.3646 35.0274 56.4901C34.9138 56.6132 34.8569 56.7812 34.8569 56.9943C34.8569 57.2855 34.9647 57.5057 35.1801 57.6548C35.3979 57.8016 35.6737 57.875 36.0075 57.875ZM41.969 58.6136C41.5144 58.6136 41.1132 58.4988 40.7651 58.2692C40.4171 58.0372 40.1449 57.7105 39.9484 57.2891C39.7519 56.8653 39.6536 56.3646 39.6536 55.7869C39.6536 55.214 39.7519 54.7169 39.9484 54.2955C40.1449 53.8741 40.4183 53.5485 40.7687 53.3189C41.1191 53.0893 41.5239 52.9744 41.9832 52.9744C42.3383 52.9744 42.6188 53.0336 42.8248 53.152C43.0331 53.268 43.1918 53.4006 43.3007 53.5497C43.4119 53.6965 43.4983 53.8172 43.5599 53.9119H43.6309V51.2273H44.469V58.5H43.6593V57.6619H43.5599C43.4983 57.7614 43.4107 57.8868 43.2971 58.0384C43.1835 58.1875 43.0213 58.3213 42.8106 58.4396C42.5999 58.5556 42.3194 58.6136 41.969 58.6136ZM42.0826 57.8608C42.4188 57.8608 42.7029 57.7732 42.9349 57.598C43.1669 57.4205 43.3433 57.1754 43.464 56.8629C43.5847 56.5481 43.6451 56.1847 43.6451 55.7727C43.6451 55.3655 43.5859 55.0092 43.4676 54.7038C43.3492 54.3961 43.174 54.157 42.942 53.9865C42.71 53.8137 42.4235 53.7273 42.0826 53.7273C41.7275 53.7273 41.4316 53.8184 41.1948 54.0007C40.9605 54.1806 40.7841 54.4257 40.6657 54.7358C40.5497 55.0436 40.4917 55.3892 40.4917 55.7727C40.4917 56.161 40.5509 56.5137 40.6693 56.831C40.79 57.1458 40.9676 57.3968 41.2019 57.5838C41.4387 57.7685 41.7322 57.8608 42.0826 57.8608ZM48.4072 58.6136C47.8816 58.6136 47.4283 58.4976 47.0471 58.2656C46.6683 58.0312 46.3759 57.7045 46.17 57.2855C45.9664 56.8641 45.8646 56.3741 45.8646 55.8153C45.8646 55.2566 45.9664 54.7642 46.17 54.3381C46.3759 53.9096 46.6624 53.5758 47.0293 53.3366C47.3987 53.0952 47.8295 52.9744 48.322 52.9744C48.6061 52.9744 48.8866 53.0218 49.1636 53.1165C49.4406 53.2112 49.6927 53.3651 49.92 53.5781C50.1472 53.7888 50.3284 54.0682 50.4633 54.4162C50.5982 54.7642 50.6657 55.1927 50.6657 55.7017V56.0568H46.4612V55.3324H49.8134C49.8134 55.0246 49.7519 54.75 49.6288 54.5085C49.508 54.267 49.3352 54.0765 49.1103 53.9368C48.8878 53.7971 48.625 53.7273 48.322 53.7273C47.9882 53.7273 47.6993 53.8101 47.4555 53.9759C47.214 54.1392 47.0282 54.3523 46.898 54.6151C46.7677 54.8778 46.7026 55.1596 46.7026 55.4602V55.9432C46.7026 56.3551 46.7737 56.7043 46.9157 56.9908C47.0601 57.2749 47.2602 57.4915 47.5159 57.6406C47.7715 57.7874 48.0686 57.8608 48.4072 57.8608C48.6274 57.8608 48.8262 57.83 49.0038 57.7685C49.1837 57.7045 49.3388 57.6098 49.469 57.4844C49.5992 57.3565 49.6998 57.1979 49.7708 57.0085L50.5805 57.2358C50.4953 57.5104 50.352 57.7519 50.1508 57.9602C49.9496 58.1662 49.701 58.3272 49.4051 58.4432C49.1091 58.5568 48.7765 58.6136 48.4072 58.6136ZM55.8042 54.267L55.0514 54.4801C55.004 54.3546 54.9342 54.2327 54.8418 54.1143C54.7519 53.9936 54.6288 53.8942 54.4725 53.8161C54.3163 53.7379 54.1162 53.6989 53.8724 53.6989C53.5386 53.6989 53.2604 53.7758 53.0379 53.9297C52.8177 54.0812 52.7076 54.2741 52.7076 54.5085C52.7076 54.7169 52.7834 54.8814 52.9349 55.0021C53.0864 55.1229 53.3231 55.2235 53.6451 55.304L54.4548 55.5028C54.9425 55.6212 55.3059 55.8023 55.545 56.0462C55.7841 56.2876 55.9036 56.599 55.9036 56.9801C55.9036 57.2926 55.8137 57.572 55.6338 57.8182C55.4562 58.0644 55.2076 58.2585 54.888 58.4006C54.5684 58.5426 54.1967 58.6136 53.773 58.6136C53.2166 58.6136 52.7561 58.4929 52.3916 58.2514C52.027 58.0099 51.7962 57.6572 51.6991 57.1932L52.4945 56.9943C52.5703 57.2879 52.7135 57.508 52.9242 57.6548C53.1373 57.8016 53.4155 57.875 53.7588 57.875C54.1494 57.875 54.4595 57.7921 54.6891 57.6264C54.9212 57.4583 55.0372 57.2571 55.0372 57.0227C55.0372 56.8333 54.9709 56.6747 54.8383 56.5469C54.7057 56.4167 54.5021 56.3196 54.2275 56.2557L53.3184 56.0426C52.8189 55.9242 52.4519 55.7408 52.2176 55.4922C51.9855 55.2412 51.8695 54.9276 51.8695 54.5511C51.8695 54.2434 51.956 53.9711 52.1288 53.7344C52.304 53.4976 52.5419 53.3118 52.8426 53.1768C53.1456 53.0419 53.4889 52.9744 53.8724 52.9744C54.4122 52.9744 54.8359 53.0928 55.1437 53.3295C55.4538 53.5663 55.674 53.8788 55.8042 54.267Z" fill="#5D5D5D"/>
</svg>
