<svg width="272" height="404" viewBox="0 0 272 404" fill="none" xmlns="http://www.w3.org/2000/svg">
<path d="M215.324 421.292L204.857 420.439L195.885 419.707L161.493 416.902L155.236 401.339L151.026 416.049L140.559 415.195L145.045 415.561L148.035 415.805L122.615 413.732L94.3896 411.43L79.2514 410.195L71.7748 409.586L101.496 324.287L206.763 332.871L231.772 422.633L227.287 422.268L222.801 421.902L215.324 421.292Z" fill="#2D2D2D"/>
<path d="M181.771 127.506L198.391 142.445L219.226 150.755C219.226 150.755 217.925 275.756 225.237 284.366C232.548 292.977 225.351 292.605 226.107 303.077C226.864 313.55 229.023 335.067 229.023 335.067C172.968 359.13 126.581 356.115 92.0846 319.794C91.7765 317.697 92.1946 315.556 93.2694 313.729C94.3443 311.901 96.0115 310.495 97.9947 309.745C105.22 306.635 93.3089 288.397 99.2026 285.991C105.096 283.585 99.1644 258.057 99.1644 258.057L108.62 206.576L105.171 197.943L119.379 147.993L137.37 143.037L145.72 126.791L181.771 127.506Z" fill="#E20A10"/>
<path d="M174.858 349.299C174.962 347.048 175.558 344.848 176.604 342.852C177.65 340.856 179.121 339.114 180.913 337.748C182.705 336.383 184.775 335.427 186.977 334.947C189.179 334.468 191.458 334.478 193.656 334.975L222.589 288.468L234.486 314.324L205.187 354.524C204.107 358.161 201.731 361.275 198.508 363.276C195.285 365.278 191.441 366.028 187.702 365.384C183.964 364.739 180.591 362.746 178.224 359.782C175.857 356.818 174.659 353.088 174.858 349.299Z" fill="#FFB6B6"/>
<path d="M217.884 340.854L278.22 262.199L278.074 261.803C277.908 261.349 267.915 234.161 258.118 209.207C256.61 205.364 255.106 201.574 253.643 197.943C253.012 196.376 252.389 194.841 251.775 193.338C247.633 183.203 243.976 174.808 241.713 170.777C236.723 161.673 228.77 154.55 219.173 150.59L218.931 150.506L218.686 150.586C213.7 152.227 209.423 155.518 206.558 159.916C203.694 164.314 202.414 169.558 202.929 174.781C205.55 199.988 213.994 224.24 227.594 245.624L235.344 257.779L199.817 320.929L217.884 340.854Z" fill="#E20A10"/>
<path d="M59.6429 7.59153C60.9798 9.40536 61.9027 11.4903 62.3467 13.6994C62.7906 15.9085 62.7448 18.1881 62.2125 20.3776C61.6802 22.5672 60.6743 24.6133 59.2657 26.372C57.8571 28.1307 56.08 29.5592 54.0597 30.5567L60.8678 84.9047L35.3442 72.3106L32.792 22.6316C31.3412 19.1264 31.2265 15.2106 32.4697 11.6264C33.713 8.0422 36.2277 5.03856 39.5375 3.18466C42.8472 1.33076 46.722 0.755401 50.4275 1.56762C54.1331 2.37984 57.412 4.52319 59.6429 7.59153Z" fill="#FFB6B6"/>
<path d="M31.537 41.2467L34.1924 140.344L34.555 140.56C34.854 140.738 47.8262 148.468 63.7695 157.715C66.459 159.275 65.5875 165.01 68.3995 166.627C70.3365 167.741 75.9373 164.729 77.8951 165.847C95.3339 175.805 112.994 185.545 120.118 188.374C129.727 192.304 140.391 192.829 150.339 189.862L150.58 189.774L150.72 189.559C153.56 185.144 154.811 179.894 154.267 174.673C153.723 169.453 151.416 164.573 147.726 160.84C129.818 142.909 107.987 129.387 83.9573 121.339L70.2833 116.778L58.119 45.3475L31.537 41.2467Z" fill="#E20A10"/>
<path d="M163.332 120.399C182.69 121.978 199.663 107.564 201.242 88.2049C202.821 68.8457 188.407 51.8721 169.049 50.2934C149.691 48.7147 132.718 63.1287 131.139 82.488C129.56 101.847 143.974 118.821 163.332 120.399Z" fill="#FFB6B6"/>
<path d="M133.306 59.02C136.872 50.8687 151.696 46.222 175.024 47.3103C198.353 48.3986 202.017 76.295 202.017 76.295C216.519 90.1597 181.657 121.27 180.202 119.928L181.418 113.648C183.43 103.246 189.013 95.457 183.655 84.0082L177.647 83.5877C169.773 84.4462 161.9 85.3047 154.027 86.1632L163.863 78.8309L163.637 78.4094C159.567 80.1244 155.214 81.0678 150.8 81.1916C145.843 81.0793 140.611 78.6764 138.602 74.1439C138.069 72.8995 137.79 71.5609 137.782 70.207C130.914 72.3222 127.204 80.2745 127.204 80.2745C127.204 80.2745 129.739 67.1714 133.306 59.02Z" fill="#2D2D2D"/>
</svg>
