<svg width="362" height="130" viewBox="0 0 362 130" fill="none" xmlns="http://www.w3.org/2000/svg">
<g clip-path="url(#clip0_92_19)">
<rect width="362" height="130" rx="10" fill="#FFC1C1"/>
<g opacity="0.2">
<path d="M332.349 -6.55994C326.645 0.283867 316.473 1.20755 309.629 -4.49684C302.785 -10.2012 301.861 -20.3736 307.566 -27.2174C313.27 -34.0612 323.442 -34.9849 330.286 -29.2805C337.13 -23.5761 338.054 -13.4038 332.349 -6.55994Z" fill="#FF9797"/>
<path d="M369.75 24.6139C364.046 31.4578 353.873 32.3814 347.03 26.677C340.186 20.9727 339.262 10.8003 344.966 3.95652C350.671 -2.88729 360.843 -3.81097 367.687 1.89342C374.531 7.59781 375.454 17.7701 369.75 24.6139Z" fill="#FF9797"/>
<path d="M262.978 82.624L273.306 70.2322L270.556 48.0843C270.556 48.0843 269.339 36.9797 268.68 29.7201L268.23 24.7628C268.23 24.7628 267.73 20.5912 268.268 18.3035C268.719 16.3883 268.946 15.2691 269.921 13.5719C270.218 13.0555 271.41 11.08 272.701 9.77918C274.36 8.10733 275.526 7.31932 277.583 6.21205C278.276 5.83924 280.473 4.96462 282.428 4.52261C283.509 4.27811 286.866 3.68755 289.676 4.07273C292.417 4.44855 294.145 5.12471 295.684 6.02617C296.989 6.79021 298.225 7.83916 299.341 9.07391C300.288 10.1229 300.707 10.7937 301.429 11.9603C302.894 14.3264 306.134 21.2274 306.134 21.2274L316.95 16.4967C316.95 16.4967 316.414 14.1403 311.27 5.65249C309.347 2.4798 308.153 1.14569 304.998 -1.4837C302.496 -3.56969 300.951 -4.59974 297.939 -5.84055C294.906 -7.08976 293.141 -7.41432 289.639 -7.79442C284.899 -8.3089 280.326 -7.15681 277.885 -6.51863C275.444 -5.88044 273.641 -5.09201 273.641 -5.09201C266.618 -2.16353 262.218 4.09624 260.195 7.37439C259.106 9.13955 257.754 12.5942 257.754 12.5942C257.754 12.5942 255.988 16.0865 256.438 23.3346L258.389 44.8158L262.978 82.624Z" fill="#FF9797"/>
<path d="M296.293 36.6986L304.978 43.9376C304.978 43.9376 306.394 42.4455 308.31 40.6055C309.805 39.1687 311.202 38.0521 313.155 36.6251C315.141 35.1742 316.572 34.74 318.976 34.2222C322.001 33.5707 323.872 33.6942 326.9 34.3357C330.271 35.05 332.143 35.9606 334.936 37.9793C337.746 40.0103 340.297 43 341.132 44.2893C341.573 44.9712 343.702 49.0622 344.361 52.326C344.956 55.2763 345.235 56.8734 344.285 60.663C343.568 63.5195 342.771 65.1149 340.942 67.4225C340.03 68.5719 337.561 71.4782 334.332 72.6042C331.381 73.633 328.887 73.7276 325.046 73.8734L324.868 73.8801C315.797 74.2247 301.434 74.9667 301.434 74.9667L279.352 74.8895L268.835 87.5066L297.114 87.0212L316.792 85.8591C316.792 85.8591 326.143 85.6349 332.115 84.8842C335.96 84.4008 338.227 83.9548 341.654 82.1438C345.45 80.1377 347.272 78.2868 349.954 74.9342C351.786 72.6437 353.977 69.1208 355.288 64.8703C356.673 60.3772 357.018 57.5628 356.491 52.8906C356.017 48.6915 355.079 46.378 353.262 42.5629C351.596 39.0644 348.401 33.7352 343.124 29.5305C339.188 26.3948 334.618 24.1593 331.746 23.483C325.681 22.0554 319.967 21.2595 313.006 23.5186C305.206 26.05 296.293 36.6986 296.293 36.6986Z" fill="#FF9797"/>
<path d="M43.6162 24.4671C44.5424 30.3408 40.5317 35.8532 34.6579 36.7794C28.7842 37.7056 23.2718 33.6949 22.3456 27.8211C21.4194 21.9474 25.4302 16.435 31.3039 15.5088C37.1776 14.5826 42.69 18.5934 43.6162 24.4671Z" fill="#FF9797"/>
<path d="M75.7155 19.4056C76.6417 25.2793 72.6309 30.7917 66.7572 31.7179C60.8835 32.6441 55.3711 28.6333 54.4449 22.7596C53.5187 16.8859 57.5294 11.3734 63.4032 10.4472C69.2769 9.52105 74.7893 13.5318 75.7155 19.4056Z" fill="#FF9797"/>
<path d="M57.8691 98.518L56.1921 87.8827L43.8648 79.5213C43.8648 79.5213 37.7556 75.2474 33.8216 72.3851L31.1353 70.4305C31.1353 70.4305 28.8211 68.8468 27.9097 67.5702C27.1467 66.5014 26.6848 65.8951 26.2617 64.6592C26.1329 64.2831 25.6656 62.8159 25.5804 61.5957C25.471 60.0275 25.5884 59.0956 25.9374 57.5759C26.055 57.0643 26.5826 55.5764 27.2204 54.401C27.5732 53.7508 28.7535 51.8058 30.1827 50.5648C31.5772 49.354 32.6765 48.7843 33.8062 48.408C34.7637 48.0891 35.834 47.9299 36.9444 47.9132C37.8876 47.899 38.4088 47.9837 39.312 48.1344C41.1438 48.4401 46.0331 49.8491 46.0331 49.8491L48.4161 42.3389C48.4161 42.3389 46.9972 41.5718 40.474 40.4204C38.0356 39.9901 36.8409 40.0025 34.1335 40.4293C31.9856 40.768 30.7892 41.0902 28.8413 42.0565C26.8802 43.0294 25.941 43.7725 24.2099 45.3631C21.8666 47.5162 20.4334 50.3185 19.68 51.8246C18.9266 53.3306 18.5294 54.5823 18.5294 54.5823C16.9103 59.3957 18.1168 64.3581 18.8727 66.8152C19.2797 68.1382 20.4189 70.3367 20.4189 70.3367C20.4189 70.3367 21.3954 72.7591 25.2315 75.7214L36.8722 84.1911L57.8691 98.518Z" fill="#FF9797"/>
<path d="M49.4704 61.594L56.9243 60.4187C56.9243 60.4187 56.7984 59.0513 56.7174 57.2805C56.6541 55.8977 56.7077 54.7057 56.8505 53.0976C56.9957 51.4626 57.4072 50.5532 58.2049 49.1186C59.2086 47.3134 60.0935 46.4286 61.7473 45.191C63.5886 43.8131 64.8694 43.2737 67.1111 42.7598C69.3663 42.2429 71.9894 42.2772 73.0037 42.4254C73.5401 42.5038 76.53 43.2347 78.4581 44.3396C80.201 45.3384 81.1253 45.901 82.6096 48.0449C83.7284 49.6609 84.1786 50.7628 84.5321 52.6962C84.7082 53.6593 85.0809 56.177 84.2256 58.2935C83.4442 60.227 82.3948 61.5204 80.778 63.513L80.7033 63.6052C76.8864 68.3099 70.941 75.8461 70.941 75.8461L61.1892 86.8965L62.8967 97.7252L75.0917 83.3169L83.1642 72.9278C83.1642 72.9278 87.1648 68.1354 89.4146 64.8078C90.8634 62.6648 91.6365 61.3309 92.2348 58.8142C92.8976 56.0263 92.7699 54.2976 92.2669 51.4765C91.9232 49.5491 91.1182 46.9001 89.5612 44.3724C87.9154 41.7005 86.6542 40.2897 84.077 38.4992C81.7609 36.8899 80.187 36.3432 77.4728 35.577C74.9838 34.8744 70.9035 34.1339 66.4715 34.9336C63.1664 35.5299 60.0342 36.8404 58.4311 37.985C55.0467 40.4014 52.1339 42.9195 50.2061 47.4073C48.046 52.4358 49.4704 61.594 49.4704 61.594Z" fill="#FF9797"/>
<path d="M164.971 60.5556C164.971 64.8246 161.51 68.2852 157.241 68.2852C152.973 68.2852 149.512 64.8246 149.512 60.5556C149.512 56.2866 152.973 52.826 157.241 52.826C161.51 52.826 164.971 56.2866 164.971 60.5556Z" fill="#FF9797"/>
<path d="M188.301 60.5556C188.301 64.8246 184.84 68.2853 180.571 68.2853C176.302 68.2853 172.841 64.8246 172.841 60.5556C172.841 56.2867 176.302 52.826 180.571 52.826C184.84 52.826 188.301 56.2867 188.301 60.5556Z" fill="#FF9797"/>
<path d="M166.798 114.663V106.933L158.991 99.6254C158.991 99.6254 155.137 95.9114 152.667 93.4416L150.98 91.7552C150.98 91.7552 149.516 90.3733 149.013 89.366C148.591 88.5228 148.331 88.0412 148.17 87.1174C148.12 86.8363 147.953 85.7436 148.029 84.8688C148.127 83.7444 148.314 83.0967 148.732 82.058C148.872 81.7083 149.413 80.7122 149.997 79.95C150.32 79.5283 151.374 78.281 152.526 77.5608C153.651 76.8581 154.494 76.577 155.337 76.4365C156.052 76.3173 156.829 76.3242 157.618 76.4365C158.288 76.5319 158.649 76.6502 159.272 76.8581C160.537 77.2797 163.847 78.8256 163.847 78.8256L166.376 73.7662C166.376 73.7662 165.456 73.0636 160.959 71.5176C159.278 70.9398 158.429 70.815 156.461 70.8149C154.9 70.8149 154.016 70.9096 152.527 71.3771C151.027 71.8477 150.278 72.2696 148.872 73.2041C146.97 74.4689 145.64 76.2959 144.937 77.2797C144.235 78.2635 143.813 79.1067 143.813 79.1067C142.127 82.3391 142.427 85.9931 142.689 87.8201C142.829 88.8039 143.391 90.4903 143.391 90.4903C143.391 90.4903 143.813 92.3173 146.202 94.8471L153.51 102.155L166.798 114.663Z" fill="#FF9797"/>
<path d="M164.971 87.539H170.389C170.389 87.539 170.452 86.5553 170.593 85.2904C170.702 84.3027 170.874 83.4634 171.155 82.339C171.441 81.1957 171.834 80.5969 172.56 79.6687C173.474 78.5008 174.2 77.9723 175.512 77.2796C176.971 76.5083 177.94 76.269 179.587 76.1553C181.244 76.0409 183.101 76.3585 183.803 76.577C184.175 76.6926 186.214 77.5453 187.457 78.5444C188.582 79.4476 189.174 79.9499 189.987 81.6363C190.6 82.9074 190.796 83.7391 190.83 85.1497C190.847 85.8524 190.83 87.6796 189.987 89.0848C189.217 90.3686 188.328 91.1685 186.959 92.4008L186.895 92.4578C183.662 95.3673 178.603 100.047 178.603 100.047L170.452 106.793V114.663L180.712 105.809L187.598 99.3442C187.598 99.3442 190.971 96.393 192.938 94.2848C194.206 92.9271 194.903 92.0675 195.609 90.3497C196.39 88.4468 196.493 87.2066 196.452 85.1497C196.424 83.7445 196.149 81.7759 195.328 79.8093C194.459 77.7304 193.723 76.5889 192.095 75.031C190.633 73.6308 189.578 73.067 187.738 72.2202C186.052 71.4436 183.241 70.4622 180.009 70.5337C177.598 70.587 175.23 71.1661 173.966 71.7986C171.295 73.1337 168.948 74.5937 167.079 77.5607C164.985 80.8851 164.971 87.539 164.971 87.539Z" fill="#FF9797"/>
</g>
</g>
<defs>
<clipPath id="clip0_92_19">
<rect width="362" height="130" rx="10" fill="white"/>
</clipPath>
</defs>
</svg>
