<svg width="376" height="388" viewBox="0 0 376 388" fill="none" xmlns="http://www.w3.org/2000/svg">
<g filter="url(#filter0_d_749_3)">
<path d="M245.761 156.871C245.415 156.872 245.083 157.009 244.838 157.254C244.593 157.499 244.455 157.831 244.455 158.177V247.823C244.455 248.169 244.593 248.501 244.838 248.746C245.083 248.99 245.415 249.128 245.761 249.128H370.694C371.04 249.128 371.372 248.99 371.617 248.746C371.862 248.501 372 248.169 372 247.823V158.177C372 157.831 371.862 157.499 371.617 157.254C371.372 157.009 371.04 156.872 370.694 156.871H245.761Z" fill="#FFE8E8"/>
</g>
<path d="M363.794 164.889V228.599C363.794 229.024 363.625 229.431 363.324 229.732C363.024 230.032 362.616 230.201 362.191 230.201H254.006C253.93 230.202 253.855 230.195 253.78 230.181C253.398 230.127 253.049 229.938 252.796 229.647C252.543 229.356 252.404 228.984 252.403 228.599V164.889C252.403 164.464 252.572 164.057 252.873 163.756C253.173 163.456 253.581 163.287 254.006 163.287H362.191C362.616 163.287 363.024 163.456 363.324 163.756C363.625 164.057 363.794 164.464 363.794 164.889Z" fill="white"/>
<path d="M341.371 192.442C344.581 192.442 347.183 189.84 347.183 186.632C347.183 183.423 344.581 180.822 341.371 180.822C338.161 180.822 335.559 183.423 335.559 186.632C335.559 189.84 338.161 192.442 341.371 192.442Z" fill="#FF5E00"/>
<path d="M248.188 162.008C249.246 162.008 250.104 161.151 250.104 160.093C250.104 159.035 249.246 158.177 248.188 158.177C247.13 158.177 246.272 159.035 246.272 160.093C246.272 161.151 247.13 162.008 248.188 162.008Z" fill="#FF0000"/>
<path d="M368.011 162.008C369.069 162.008 369.927 161.151 369.927 160.093C369.927 159.035 369.069 158.177 368.011 158.177C366.953 158.177 366.095 159.035 366.095 160.093C366.095 161.151 366.953 162.008 368.011 162.008Z" fill="#FF0000"/>
<path d="M248.188 247.823C249.246 247.823 250.104 246.965 250.104 245.907C250.104 244.85 249.246 243.992 248.188 243.992C247.13 243.992 246.272 244.85 246.272 245.907C246.272 246.965 247.13 247.823 248.188 247.823Z" fill="#FF0000"/>
<path d="M368.011 247.823C369.069 247.823 369.927 246.965 369.927 245.907C369.927 244.85 369.069 243.992 368.011 243.992C366.953 243.992 366.095 244.85 366.095 245.907C366.095 246.965 366.953 247.823 368.011 247.823Z" fill="#FF0000"/>
<path d="M288.047 209.44C291.898 209.44 295.02 206.319 295.02 202.469C295.02 198.619 291.898 195.498 288.047 195.498C284.196 195.498 281.074 198.619 281.074 202.469C281.074 206.319 284.196 209.44 288.047 209.44Z" fill="#E20A10"/>
<path d="M288.719 223.465H287.291L287.942 201.419L288.719 223.465Z" fill="#3F3D56"/>
<path d="M288.068 205.597L289.601 203.477L288.047 206.121L287.879 205.828L288.068 205.597Z" fill="#3F3D56"/>
<path d="M287.899 207.738L286.366 205.618L287.92 208.263L288.088 207.969L287.899 207.738Z" fill="#3F3D56"/>
<path d="M352.012 209.44C355.863 209.44 358.985 206.319 358.985 202.469C358.985 198.619 355.863 195.498 352.012 195.498C348.161 195.498 345.039 198.619 345.039 202.469C345.039 206.319 348.161 209.44 352.012 209.44Z" fill="#E20A10"/>
<path d="M352.684 223.465H351.256L351.907 201.419L352.684 223.465Z" fill="#3F3D56"/>
<path d="M352.033 205.597L353.566 203.477L352.012 206.121L351.844 205.828L352.033 205.597Z" fill="#3F3D56"/>
<path d="M351.865 207.738L350.332 205.618L351.885 208.263L352.053 207.969L351.865 207.738Z" fill="#3F3D56"/>
<path d="M308.247 206.683C313.934 206.683 318.545 202.074 318.545 196.388C318.545 190.702 313.934 186.093 308.247 186.093C302.559 186.093 297.948 190.702 297.948 196.388C297.948 202.074 302.559 206.683 308.247 206.683Z" fill="#E20A10"/>
<path d="M309.239 227.397H307.13L308.092 194.837L309.239 227.397Z" fill="#3F3D56"/>
<path d="M308.278 201.008L310.542 197.876L308.247 201.784L307.999 201.35L308.278 201.008Z" fill="#3F3D56"/>
<path d="M308.029 204.172L305.765 201.039L308.06 204.947L308.309 204.513L308.029 204.172Z" fill="#3F3D56"/>
<path d="M333.362 202.751C339.049 202.751 343.66 198.141 343.66 192.455C343.66 186.77 339.049 182.16 333.362 182.16C327.674 182.16 323.063 186.77 323.063 192.455C323.063 198.141 327.674 202.751 333.362 202.751Z" fill="#E20A10"/>
<path d="M334.354 223.465H332.245L333.206 190.905L334.354 223.465Z" fill="#3F3D56"/>
<path d="M333.393 197.076L335.657 193.944L333.362 197.851L333.114 197.417L333.393 197.076Z" fill="#3F3D56"/>
<path d="M333.144 200.239L330.88 197.107L333.175 201.014L333.424 200.58L333.144 200.239Z" fill="#3F3D56"/>
<path d="M268.22 202.751C273.907 202.751 278.518 198.141 278.518 192.455C278.518 186.77 273.907 182.16 268.22 182.16C262.532 182.16 257.921 186.77 257.921 192.455C257.921 198.141 262.532 202.751 268.22 202.751Z" fill="#E20A10"/>
<path d="M269.212 223.465H267.103L268.064 190.905L269.212 223.465Z" fill="#3F3D56"/>
<path d="M268.251 197.076L270.515 193.944L268.22 197.851L267.971 197.417L268.251 197.076Z" fill="#3F3D56"/>
<path d="M268.003 200.239L265.738 197.107L268.034 201.014L268.282 200.58L268.003 200.239Z" fill="#3F3D56"/>
<path d="M308.821 230.201H254.006C253.93 230.202 253.855 230.195 253.78 230.181C253.398 230.127 253.049 229.938 252.796 229.647C252.543 229.356 252.404 228.984 252.403 228.599V214.918C257.561 214.059 262.782 213.634 268.011 213.649C287.47 213.649 303.747 219.224 307.828 226.686C308.444 227.758 308.785 228.966 308.821 230.201Z" fill="#7A7202"/>
<path d="M363.794 225.497V228.599C363.794 229.024 363.625 229.431 363.324 229.732C363.024 230.032 362.616 230.201 362.191 230.201H301.543C303.494 228.789 305.603 227.609 307.828 226.686C315.258 223.501 325.737 221.515 337.348 221.515C347.438 221.515 356.668 223.009 363.794 225.497Z" fill="#7A7202"/>
<g filter="url(#filter1_d_749_3)">
<path d="M315.272 4C315.059 4.0003 314.849 4.05305 314.661 4.15362L204.361 62.805C204.056 62.9682 203.828 63.2457 203.727 63.5767C203.626 63.9078 203.66 64.2654 203.822 64.5712L245.935 143.716C246.098 144.022 246.376 144.25 246.707 144.352C247.039 144.453 247.396 144.418 247.703 144.256L358.001 85.6047C358.307 85.4417 358.535 85.1642 358.636 84.8332C358.737 84.5021 358.703 84.1444 358.541 83.8385L316.427 4.69345C316.347 4.54169 316.238 4.40735 316.105 4.29821C315.973 4.18906 315.82 4.10728 315.656 4.0576C315.531 4.01955 315.402 4.00014 315.272 4Z" fill="#FFE8E8"/>
</g>
<path d="M312.336 14.4709L342.265 70.7157C342.364 70.9017 342.425 71.1053 342.445 71.315C342.466 71.5247 342.444 71.7363 342.383 71.9377C342.321 72.1392 342.221 72.3265 342.087 72.4891C341.953 72.6516 341.788 72.7862 341.602 72.885L246.091 123.673C246.023 123.71 245.952 123.741 245.879 123.765C245.516 123.896 245.119 123.892 244.759 123.753C244.399 123.614 244.102 123.351 243.921 123.01L213.992 66.7654C213.893 66.5795 213.832 66.3758 213.812 66.1662C213.791 65.9565 213.813 65.7449 213.874 65.5434C213.936 65.342 214.036 65.1546 214.17 64.9921C214.305 64.8295 214.469 64.695 214.655 64.5961L310.166 13.8081C310.352 13.7091 310.556 13.6477 310.766 13.6274C310.976 13.6072 311.187 13.6284 311.389 13.69C311.59 13.7515 311.778 13.8522 311.94 13.9862C312.103 14.1201 312.238 14.2848 312.336 14.4709Z" fill="white"/>
<path d="M248.499 87.6372C256.273 87.6372 262.575 81.3373 262.575 73.5659C262.575 65.7946 256.273 59.4946 248.499 59.4946C240.725 59.4946 234.423 65.7946 234.423 73.5659C234.423 81.3373 240.725 87.6372 248.499 87.6372Z" fill="#FF5E00"/>
<path d="M307.84 91.1267L246.876 123.544C246.8 123.586 246.721 123.621 246.639 123.648L248.906 58.3887C248.916 57.9841 249.034 57.5897 249.247 57.2455C249.46 56.9014 249.76 56.62 250.118 56.4299C250.475 56.2399 250.876 56.1481 251.281 56.1639C251.685 56.1797 252.078 56.3026 252.42 56.52L289.599 79.7349L291.379 80.8452L307.84 91.1267Z" fill="#7A7202"/>
<path opacity="0.2" d="M307.84 91.1271L287.026 102.195L289.349 81.9251L289.515 80.4651L289.598 79.7351L291.379 80.8456L307.84 91.1271Z" fill="black"/>
<path d="M341.785 73.0769L289.056 101.116L291.379 80.8454L291.545 79.3856L294.572 52.9702C294.77 51.2388 296.828 50.0432 298.444 50.6046C298.553 50.6434 298.659 50.6892 298.763 50.7416L341.785 73.0769Z" fill="#7A7202"/>
<path d="M208.018 66.4252C209.076 66.4252 209.934 65.5676 209.934 64.5097C209.934 63.4518 209.076 62.5942 208.018 62.5942C206.96 62.5942 206.102 63.4518 206.102 64.5097C206.102 65.5676 206.96 66.4252 208.018 66.4252Z" fill="#FF0000"/>
<path d="M313.805 10.1726C314.863 10.1726 315.721 9.31496 315.721 8.25706C315.721 7.19915 314.863 6.34155 313.805 6.34155C312.747 6.34155 311.889 7.19915 311.889 8.25706C311.889 9.31496 312.747 10.1726 313.805 10.1726Z" fill="#FF0000"/>
<path d="M248.331 142.188C249.39 142.188 250.248 141.331 250.248 140.273C250.248 139.215 249.39 138.357 248.331 138.357C247.273 138.357 246.415 139.215 246.415 140.273C246.415 141.331 247.273 142.188 248.331 142.188Z" fill="#FF0000"/>
<path d="M354.119 85.9356C355.177 85.9356 356.035 85.078 356.035 84.0201C356.035 82.9622 355.177 82.1046 354.119 82.1046C353.061 82.1046 352.203 82.9622 352.203 84.0201C352.203 85.078 353.061 85.9356 354.119 85.9356Z" fill="#FF0000"/>
<g filter="url(#filter2_d_749_3)">
<path d="M341.979 383.087C342.314 383.175 342.67 383.127 342.97 382.954C343.269 382.78 343.488 382.495 343.577 382.16L366.631 295.528C366.72 295.193 366.672 294.836 366.498 294.537C366.325 294.237 366.039 294.019 365.704 293.93L244.97 261.823C244.635 261.734 244.279 261.782 243.979 261.956C243.68 262.13 243.461 262.415 243.372 262.75L220.319 349.382C220.275 349.548 220.264 349.721 220.286 349.891C220.309 350.061 220.365 350.225 220.451 350.373C220.537 350.522 220.652 350.652 220.788 350.756C220.924 350.86 221.08 350.936 221.246 350.98L341.979 383.087Z" fill="#FFE8E8"/>
</g>
<path d="M356.975 299.905L340.591 361.473C340.482 361.884 340.214 362.234 339.846 362.448C339.478 362.661 339.041 362.719 338.63 362.61L234.081 334.808C234.007 334.789 233.936 334.763 233.867 334.73C233.512 334.58 233.223 334.307 233.054 333.961C232.884 333.615 232.845 333.219 232.944 332.847L249.327 271.279C249.437 270.868 249.705 270.518 250.073 270.304C250.44 270.091 250.878 270.033 251.289 270.142L355.837 297.944C356.248 298.054 356.599 298.322 356.812 298.689C357.025 299.057 357.084 299.494 356.975 299.905Z" fill="white"/>
<path d="M342.918 352.727L340.591 361.473C340.482 361.884 340.214 362.234 339.846 362.448C339.478 362.661 339.041 362.719 338.63 362.61L234.081 334.808C234.007 334.789 233.936 334.763 233.867 334.731C233.512 334.58 233.223 334.307 233.054 333.961C232.884 333.615 232.845 333.219 232.944 332.847L235.271 324.101L342.918 352.727Z" fill="#3F3D56"/>
<path d="M296.724 346.038L280.091 341.615L279.586 343.516L296.218 347.939L296.724 346.038Z" fill="#CCCCCC"/>
<path d="M258.469 335.865L241.836 331.442L241.33 333.343L257.963 337.766L258.469 335.865Z" fill="#CCCCCC"/>
<path d="M334.979 356.212L318.347 351.789L317.841 353.689L334.474 358.112L334.979 356.212Z" fill="#CCCCCC"/>
<path d="M246.487 267.476C247.546 267.476 248.404 266.618 248.404 265.56C248.404 264.502 247.546 263.645 246.487 263.645C245.429 263.645 244.571 264.502 244.571 265.56C244.571 266.618 245.429 267.476 246.487 267.476Z" fill="#FF0004"/>
<path d="M362.283 298.269C363.342 298.269 364.199 297.411 364.199 296.353C364.199 295.296 363.342 294.438 362.283 294.438C361.225 294.438 360.367 295.296 360.367 296.353C360.367 297.411 361.225 298.269 362.283 298.269Z" fill="#FF0004"/>
<path d="M224.419 350.406C225.478 350.406 226.335 349.549 226.335 348.491C226.335 347.433 225.478 346.575 224.419 346.575C223.361 346.575 222.503 347.433 222.503 348.491C222.503 349.549 223.361 350.406 224.419 350.406Z" fill="#FF0004"/>
<path d="M340.215 381.199C341.273 381.199 342.131 380.342 342.131 379.284C342.131 378.226 341.273 377.368 340.215 377.368C339.157 377.368 338.299 378.226 338.299 379.284C338.299 380.342 339.157 381.199 340.215 381.199Z" fill="#FF0004"/>
<path d="M317.209 348.738L326.452 351.201L326.843 349.734L317.6 347.271L317.209 348.738Z" fill="#3F3D56"/>
<path d="M250.673 329.826L252.463 330.774L324.939 350.089L325.995 348.744C327.825 346.443 328.979 343.677 329.327 340.758C329.573 338.578 329.345 336.287 327.809 334.909L330.292 312.636L290.207 301.9L271.362 310.284C271.362 310.284 264.078 308.206 258.785 312.097C256.861 313.556 255.421 315.56 254.652 317.848L253.811 320.381L250.673 329.826Z" fill="#FF0004"/>
<path d="M266.688 342.96C271.804 342.96 275.951 338.815 275.951 333.701C275.951 328.588 271.804 324.442 266.688 324.442C261.573 324.442 257.426 328.588 257.426 333.701C257.426 338.815 261.573 342.96 266.688 342.96Z" fill="black"/>
<path d="M266.689 338.575C269.381 338.575 271.564 336.393 271.564 333.701C271.564 331.01 269.381 328.828 266.689 328.828C263.997 328.828 261.814 331.01 261.814 333.701C261.814 336.393 263.997 338.575 266.689 338.575Z" fill="#CCCCCC"/>
<path d="M310.85 354.729C315.965 354.729 320.112 350.584 320.112 345.47C320.112 340.357 315.965 336.211 310.85 336.211C305.734 336.211 301.588 340.357 301.588 345.47C301.588 350.584 305.734 354.729 310.85 354.729Z" fill="black"/>
<path d="M310.85 350.344C313.542 350.344 315.724 348.162 315.724 345.47C315.724 342.779 313.542 340.597 310.85 340.597C308.157 340.597 305.975 342.779 305.975 345.47C305.975 348.162 308.157 350.344 310.85 350.344Z" fill="#CCCCCC"/>
<path d="M277.916 310.461L299.566 316.228L302.209 316.931L306.671 318.121L306.758 317.795L307.805 313.873L308.98 309.469L306.011 308.68L303.369 307.974L298.688 306.726L296.045 306.023L290.64 304.583L277.916 310.461Z" fill="white"/>
<path d="M310.193 319.061L321.635 322.111L322.236 319.867L323.279 315.944L323.944 313.459L322.269 313.013L319.626 312.307L312.499 310.409L310.193 319.061Z" fill="white"/>
<path d="M302.742 326.974L304.208 327.365L304.951 324.579L303.485 324.188L302.742 326.974Z" fill="#3D3D3D"/>
<path d="M282.728 315.983L283.119 314.517L280.332 313.774L279.941 315.24L282.728 315.983Z" fill="#3D3D3D"/>
<path d="M281.92 314.889L281.759 314.846C280.945 314.629 280.251 314.098 279.83 313.37C279.408 312.642 279.293 311.776 279.51 310.963C279.726 310.15 280.257 309.457 280.986 309.035C281.714 308.613 282.58 308.498 283.393 308.715L283.555 308.758L281.92 314.889Z" fill="#3D3D3D"/>
<path d="M253.81 320.381C254.888 320.797 256.078 320.819 257.17 320.444C258.262 320.069 259.187 319.32 259.782 318.33C260.376 317.34 260.602 316.172 260.42 315.032C260.238 313.892 259.659 312.853 258.785 312.098C256.861 313.556 255.421 315.56 254.652 317.848L253.81 320.381Z" fill="#FFFFAA"/>
<path d="M303.369 307.974L306.758 317.796L307.805 313.874L306.011 308.68L303.369 307.974Z" fill="#F2F2F2"/>
<path d="M319.626 312.308L322.236 319.867L323.279 315.944L322.269 313.014L319.626 312.308Z" fill="#F2F2F2"/>
<path d="M296.044 306.023L299.566 316.228L302.209 316.931L298.688 306.726L296.044 306.023Z" fill="#F2F2F2"/>
<path d="M19.6783 156.545C22.9374 156.545 25.5793 153.904 25.5793 150.646C25.5793 147.389 22.9374 144.747 19.6783 144.747C16.4193 144.747 13.7773 147.389 13.7773 150.646C13.7773 153.904 16.4193 156.545 19.6783 156.545Z" fill="#E20A10"/>
<path opacity="0.2" d="M22.1691 145.304C23.2154 146.251 23.8868 147.543 24.0613 148.943C24.2358 150.343 23.9016 151.76 23.1197 152.934C22.3377 154.109 21.1599 154.964 19.8005 155.344C18.441 155.724 16.9903 155.604 15.7122 155.005C16.3402 155.577 17.0845 156.007 17.8941 156.265C18.7038 156.522 19.5595 156.602 20.4029 156.499C21.2462 156.395 22.0572 156.11 22.7802 155.664C23.5033 155.218 24.1213 154.621 24.592 153.914C25.0627 153.207 25.3749 152.406 25.5073 151.567C25.6396 150.728 25.589 149.87 25.3589 149.053C25.1288 148.235 24.7246 147.477 24.1741 146.83C23.6235 146.183 22.9395 145.662 22.1691 145.304Z" fill="black"/>
<path d="M171.383 162.936C179.394 162.936 185.889 160.295 185.889 157.037C185.889 153.779 179.394 151.138 171.383 151.138C163.371 151.138 156.876 153.779 156.876 157.037C156.876 160.295 163.371 162.936 171.383 162.936Z" fill="#B6B6B6"/>
<path opacity="0.2" d="M171.383 151.138C170.885 151.138 170.393 151.148 169.907 151.168C177.226 151.469 182.939 153.981 182.939 157.037C182.939 160.092 177.226 162.605 169.907 162.906C170.393 162.926 170.884 162.936 171.383 162.936C179.394 162.936 185.889 160.295 185.889 157.037C185.889 153.779 179.394 151.138 171.383 151.138Z" fill="black"/>
<path d="M190.315 157.037H117.536V149.172C117.536 148.78 117.381 148.405 117.104 148.129C116.827 147.852 116.452 147.697 116.061 147.697H75.7375C75.3462 147.697 74.971 147.852 74.6943 148.129C74.4177 148.405 74.2622 148.78 74.2622 149.172V157.037H31.9718V152.121C31.9718 151.73 31.8164 151.355 31.5398 151.078C31.2631 150.802 30.8879 150.646 30.4966 150.646H8.85966C8.4684 150.646 8.09317 150.802 7.81651 151.078C7.53985 151.355 7.38441 151.73 7.38441 152.121V157.037H1.48343C1.28962 157.037 1.09767 157.075 0.918571 157.149C0.739469 157.223 0.576739 157.331 0.439698 157.468C0.302657 157.605 0.193998 157.768 0.119952 157.947C0.0459057 158.126 0.0079211 158.318 0.00818003 158.512V255.354C0.0079211 255.548 0.0459057 255.739 0.119952 255.918C0.193998 256.097 0.302657 256.26 0.439698 256.397C0.576739 256.534 0.739469 256.643 0.918571 256.717C1.09767 256.791 1.28962 256.829 1.48343 256.829H190.315C190.509 256.829 190.701 256.791 190.88 256.717C191.059 256.643 191.222 256.534 191.359 256.397C191.496 256.26 191.604 256.097 191.678 255.918C191.752 255.739 191.79 255.548 191.79 255.354V158.512C191.79 158.318 191.752 158.126 191.678 157.947C191.604 157.768 191.496 157.605 191.359 157.468C191.222 157.331 191.059 157.223 190.88 157.149C190.701 157.075 190.509 157.037 190.315 157.037Z" fill="#ACACAC"/>
<path opacity="0.2" d="M190.307 249.606H1.47525C1.28144 249.607 1.08949 249.569 0.910392 249.495C0.73129 249.421 0.568553 249.312 0.431512 249.175C0.294471 249.038 0.18582 248.875 0.111773 248.696C0.037727 248.517 -0.00025761 248.325 1.31486e-06 248.132V255.014C-0.00025761 255.208 0.037727 255.399 0.111773 255.578C0.18582 255.757 0.294471 255.92 0.431512 256.057C0.568553 256.194 0.73129 256.303 0.910392 256.377C1.08949 256.451 1.28144 256.489 1.47525 256.489H190.307C190.501 256.489 190.693 256.451 190.872 256.377C191.051 256.303 191.213 256.194 191.351 256.057C191.488 255.92 191.596 255.757 191.67 255.578C191.744 255.399 191.782 255.208 191.782 255.014V248.132C191.782 248.325 191.744 248.517 191.67 248.696C191.596 248.875 191.488 249.038 191.351 249.175C191.213 249.312 191.051 249.421 190.872 249.495C190.693 249.569 190.501 249.607 190.307 249.606Z" fill="black"/>
<path opacity="0.2" d="M191.79 202.263H0.00817871V220.943H191.79V202.263Z" fill="black"/>
<path opacity="0.2" d="M191.79 192.922H0.00817871V211.603H191.79V192.922Z" fill="black"/>
<path d="M191.79 197.347H0.00817871V216.027H191.79V197.347Z" fill="#E20A10"/>
<path d="M95.8995 244.047C116.54 244.047 133.272 227.32 133.272 206.687C133.272 186.053 116.54 169.326 95.8995 169.326C75.259 169.326 58.5266 186.053 58.5266 206.687C58.5266 227.32 75.259 244.047 95.8995 244.047Z" fill="#E20A10"/>
<path opacity="0.2" d="M124.686 182.863C129.441 190.96 130.971 200.55 128.972 209.724C126.973 218.897 121.592 226.983 113.9 232.37C106.208 237.757 96.7682 240.051 87.4604 238.796C78.1526 237.541 69.659 232.828 63.6699 225.595C66.2818 230.045 69.7873 233.905 73.9655 236.933C78.1436 239.961 82.9039 242.092 87.9463 243.19C92.9887 244.288 98.204 244.33 103.264 243.314C108.323 242.297 113.117 240.244 117.344 237.284C121.571 234.324 125.138 230.521 127.822 226.115C130.505 221.708 132.247 216.794 132.937 211.681C133.627 206.568 133.25 201.368 131.83 196.408C130.41 191.448 127.978 186.836 124.686 182.863Z" fill="black"/>
<path d="M95.8993 234.49C111.26 234.49 123.712 222.042 123.712 206.687C123.712 191.332 111.26 178.884 95.8993 178.884C80.5389 178.884 68.0869 191.332 68.0869 206.687C68.0869 222.042 80.5389 234.49 95.8993 234.49Z" fill="#3F3D56"/>
<path d="M117.536 206.687C117.541 209.623 116.943 212.529 115.781 215.226C115.158 216.68 114.375 218.06 113.445 219.34C111.612 221.882 109.249 223.996 106.518 225.534C103.788 227.073 100.755 228 97.6312 228.252C94.5069 228.504 91.3652 228.074 88.4235 226.992C85.4818 225.91 82.8103 224.203 80.5939 221.987C78.3776 219.771 76.6692 217.101 75.5871 214.16C74.505 211.219 74.075 208.079 74.3268 204.955C74.5786 201.832 75.5062 198.801 77.0455 196.071C78.5847 193.342 80.6989 190.979 83.2416 189.147C84.5221 188.218 85.9027 187.435 87.3575 186.812C90.649 185.399 94.2399 184.825 97.8081 185.141C101.376 185.458 104.81 186.654 107.801 188.624C110.793 190.594 113.248 193.276 114.947 196.429C116.646 199.581 117.536 203.106 117.536 206.687Z" fill="white"/>
<path opacity="0.2" d="M117.305 203.536C116.498 198.036 113.601 193.059 109.217 189.641C111.116 192.615 112.26 196.008 112.547 199.525C112.834 203.042 112.255 206.576 110.863 209.818C110.24 211.273 109.457 212.653 108.527 213.933C106.824 216.294 104.663 218.287 102.171 219.792C99.6796 221.298 96.9096 222.285 94.0272 222.694C91.1448 223.104 88.2094 222.927 85.397 222.175C82.5846 221.423 79.953 220.111 77.6602 218.317C79.5577 221.294 82.1559 223.762 85.2275 225.504C88.2992 227.246 91.7508 228.21 95.2809 228.311C98.8111 228.412 102.312 227.647 105.478 226.083C108.645 224.519 111.38 222.204 113.444 219.34C114.374 218.06 115.158 216.68 115.78 215.226C117.361 211.545 117.889 207.498 117.305 203.536Z" fill="black"/>
<defs>
<filter id="filter0_d_749_3" x="240.455" y="152.871" width="135.545" height="100.257" filterUnits="userSpaceOnUse" color-interpolation-filters="sRGB">
<feFlood flood-opacity="0" result="BackgroundImageFix"/>
<feColorMatrix in="SourceAlpha" type="matrix" values="0 0 0 0 0 0 0 0 0 0 0 0 0 0 0 0 0 0 127 0" result="hardAlpha"/>
<feOffset/>
<feGaussianBlur stdDeviation="2"/>
<feComposite in2="hardAlpha" operator="out"/>
<feColorMatrix type="matrix" values="0 0 0 0 0 0 0 0 0 0 0 0 0 0 0 0 0 0 0.25 0"/>
<feBlend mode="normal" in2="BackgroundImageFix" result="effect1_dropShadow_749_3"/>
<feBlend mode="normal" in="SourceGraphic" in2="effect1_dropShadow_749_3" result="shape"/>
</filter>
<filter id="filter1_d_749_3" x="199.67" y="0" width="163.024" height="148.409" filterUnits="userSpaceOnUse" color-interpolation-filters="sRGB">
<feFlood flood-opacity="0" result="BackgroundImageFix"/>
<feColorMatrix in="SourceAlpha" type="matrix" values="0 0 0 0 0 0 0 0 0 0 0 0 0 0 0 0 0 0 127 0" result="hardAlpha"/>
<feOffset/>
<feGaussianBlur stdDeviation="2"/>
<feComposite in2="hardAlpha" operator="out"/>
<feColorMatrix type="matrix" values="0 0 0 0 0 0 0 0 0 0 0 0 0 0 0 0 0 0 0.25 0"/>
<feBlend mode="normal" in2="BackgroundImageFix" result="effect1_dropShadow_749_3"/>
<feBlend mode="normal" in="SourceGraphic" in2="effect1_dropShadow_749_3" result="shape"/>
</filter>
<filter id="filter2_d_749_3" x="216.275" y="257.78" width="154.4" height="129.351" filterUnits="userSpaceOnUse" color-interpolation-filters="sRGB">
<feFlood flood-opacity="0" result="BackgroundImageFix"/>
<feColorMatrix in="SourceAlpha" type="matrix" values="0 0 0 0 0 0 0 0 0 0 0 0 0 0 0 0 0 0 127 0" result="hardAlpha"/>
<feOffset/>
<feGaussianBlur stdDeviation="2"/>
<feComposite in2="hardAlpha" operator="out"/>
<feColorMatrix type="matrix" values="0 0 0 0 0 0 0 0 0 0 0 0 0 0 0 0 0 0 0.25 0"/>
<feBlend mode="normal" in2="BackgroundImageFix" result="effect1_dropShadow_749_3"/>
<feBlend mode="normal" in="SourceGraphic" in2="effect1_dropShadow_749_3" result="shape"/>
</filter>
</defs>
</svg>
