<svg width="69" height="77" viewBox="0 0 69 77" fill="none" xmlns="http://www.w3.org/2000/svg">
<g clip-path="url(#clip0_59_189)">
<path fill-rule="evenodd" clip-rule="evenodd" d="M32.825 40C32.2752 40 31.8061 39.602 31.7165 39.0595C31.6341 38.6206 31.3181 38.262 30.893 38.125C30.5467 38.006 30.208 37.8658 29.879 37.705C29.4875 37.5047 29.0179 37.5347 28.655 37.783C28.2159 38.0987 27.6126 38.0498 27.23 37.6675L25.742 36.1795C25.3416 35.779 25.2895 35.1477 25.619 34.687C25.8731 34.3158 25.9097 33.8371 25.715 33.4315C25.5867 33.1498 25.4736 32.8614 25.376 32.5675C25.2363 32.1045 24.8507 31.7576 24.3755 31.6675C23.8025 31.576 23.3795 31.0838 23.375 30.5035V28.642C23.372 27.9732 23.8551 27.401 24.515 27.292C25.0157 27.1967 25.4337 26.8538 25.625 26.3815C25.682 26.2485 25.742 26.1165 25.805 25.9855C26.0594 25.4957 26.0243 24.9057 25.7135 24.4495C25.3248 23.9093 25.3845 23.1671 25.8545 22.696L26.948 21.6025C27.4873 21.063 28.3379 20.9932 28.958 21.4375L28.9925 21.4615C29.4555 21.7731 30.0447 21.8296 30.5585 21.6115C31.1082 21.4137 31.5133 20.9414 31.625 20.368L31.6401 20.317C31.7635 19.558 32.419 19.0003 33.1881 19H34.5081C35.2978 18.9996 35.9718 19.5709 36.101 20.35L36.125 20.455C36.231 21.0043 36.6152 21.4588 37.139 21.655C37.6439 21.8717 38.2245 21.8151 38.6781 21.505L38.753 21.451C39.3892 20.9925 40.2639 21.063 40.8185 21.6175L41.825 22.6255C42.3295 23.1327 42.3928 23.9304 41.975 24.511C41.6476 24.9963 41.6059 25.6199 41.8655 26.1445L41.9301 26.2945C42.1402 26.8067 42.5952 27.178 43.139 27.2815C43.8499 27.3974 44.3727 28.0104 44.375 28.7305V30.4C44.3748 31.0351 43.9155 31.5769 43.289 31.681C42.7738 31.7799 42.3541 32.1529 42.1955 32.653C42.1255 32.853 42.0475 33.053 41.9615 33.253C41.7613 33.6925 41.8058 34.2046 42.0785 34.603C42.4384 35.1037 42.3825 35.7915 41.9465 36.2275L40.5501 37.6255C40.1507 38.0248 39.5208 38.0762 39.0621 37.747C38.679 37.4852 38.1828 37.4564 37.7721 37.672C37.4793 37.817 37.1788 37.9457 36.8721 38.0575C36.443 38.2055 36.1267 38.5728 36.0441 39.019C35.9565 39.5805 35.4752 39.9958 34.907 40H32.825Z" stroke="#2D2D2D" stroke-width="1.5" stroke-linecap="round" stroke-linejoin="round"/>
<path fill-rule="evenodd" clip-rule="evenodd" d="M37 30C37 31.6569 35.6569 33 34 33C32.3431 33 31 31.6569 31 30C31 28.3431 32.3431 27 34 27C35.6569 27 37 28.3431 37 30Z" stroke="#2D2D2D" stroke-width="1.5" stroke-linecap="round" stroke-linejoin="round"/>
</g>
<path d="M6.77006 52H5.88938C5.8373 51.7467 5.74615 51.5241 5.61594 51.3324C5.4881 51.1406 5.33185 50.9796 5.14719 50.8494C4.9649 50.7169 4.76249 50.6174 4.53995 50.5511C4.31741 50.4848 4.08541 50.4517 3.84393 50.4517C3.40359 50.4517 3.00468 50.563 2.64719 50.7855C2.29208 51.008 2.00917 51.3359 1.79847 51.7692C1.59014 52.2024 1.48597 52.7339 1.48597 53.3636C1.48597 53.9934 1.59014 54.5249 1.79847 54.9581C2.00917 55.3913 2.29208 55.7192 2.64719 55.9418C3.00468 56.1643 3.40359 56.2756 3.84393 56.2756C4.08541 56.2756 4.31741 56.2424 4.53995 56.1761C4.76249 56.1098 4.9649 56.0116 5.14719 55.8814C5.33185 55.7488 5.4881 55.5866 5.61594 55.3949C5.74615 55.2008 5.8373 54.9782 5.88938 54.7273H6.77006C6.70378 55.099 6.58304 55.4316 6.40785 55.7251C6.23266 56.0187 6.01486 56.2685 5.75444 56.4744C5.49402 56.678 5.20165 56.8331 4.87731 56.9396C4.55534 57.0462 4.21088 57.0994 3.84393 57.0994C3.22366 57.0994 2.67205 56.9479 2.1891 56.6449C1.70614 56.3419 1.32617 55.911 1.04918 55.3523C0.772195 54.7936 0.6337 54.1307 0.6337 53.3636C0.6337 52.5966 0.772195 51.9337 1.04918 51.375C1.32617 50.8163 1.70614 50.3854 2.1891 50.0824C2.67205 49.7794 3.22366 49.6278 3.84393 49.6278C4.21088 49.6278 4.55534 49.6811 4.87731 49.7876C5.20165 49.8942 5.49402 50.0504 5.75444 50.2564C6.01486 50.46 6.23266 50.7086 6.40785 51.0021C6.58304 51.2933 6.70378 51.6259 6.77006 52ZM10.2955 57.1136C9.80303 57.1136 9.37098 56.9964 8.99929 56.7621C8.62997 56.5277 8.34115 56.1998 8.13281 55.7784C7.92685 55.357 7.82386 54.8646 7.82386 54.3011C7.82386 53.733 7.92685 53.237 8.13281 52.8132C8.34115 52.3894 8.62997 52.0604 8.99929 51.826C9.37098 51.5916 9.80303 51.4744 10.2955 51.4744C10.7879 51.4744 11.2188 51.5916 11.5881 51.826C11.9598 52.0604 12.2486 52.3894 12.4545 52.8132C12.6629 53.237 12.767 53.733 12.767 54.3011C12.767 54.8646 12.6629 55.357 12.4545 55.7784C12.2486 56.1998 11.9598 56.5277 11.5881 56.7621C11.2188 56.9964 10.7879 57.1136 10.2955 57.1136ZM10.2955 56.3608C10.6695 56.3608 10.9773 56.2649 11.2188 56.0732C11.4602 55.8814 11.639 55.6293 11.755 55.3168C11.871 55.0043 11.929 54.6657 11.929 54.3011C11.929 53.9366 11.871 53.5968 11.755 53.282C11.639 52.9671 11.4602 52.7126 11.2188 52.5185C10.9773 52.3243 10.6695 52.2273 10.2955 52.2273C9.9214 52.2273 9.61364 52.3243 9.37216 52.5185C9.13068 52.7126 8.95194 52.9671 8.83594 53.282C8.71993 53.5968 8.66193 53.9366 8.66193 54.3011C8.66193 54.6657 8.71993 55.0043 8.83594 55.3168C8.95194 55.6293 9.13068 55.8814 9.37216 56.0732C9.61364 56.2649 9.9214 56.3608 10.2955 56.3608ZM14.8844 53.7188V57H14.0463V51.5455H14.856V52.3977H14.927C15.0549 52.1207 15.249 51.8982 15.5094 51.7301C15.7698 51.5597 16.106 51.4744 16.5179 51.4744C16.8873 51.4744 17.2104 51.5502 17.4874 51.7017C17.7644 51.8509 17.9798 52.0781 18.1337 52.3835C18.2876 52.6866 18.3645 53.0701 18.3645 53.5341V57H17.5265V53.5909C17.5265 53.1624 17.4152 52.8286 17.1926 52.5895C16.9701 52.348 16.6647 52.2273 16.2765 52.2273C16.0089 52.2273 15.7698 52.2853 15.5591 52.4013C15.3508 52.5173 15.1863 52.6866 15.0655 52.9091C14.9448 53.1316 14.8844 53.4015 14.8844 53.7188ZM22.3249 51.5455V52.2557H19.3846V51.5455H22.3249ZM20.2653 57V50.7926C20.2653 50.4801 20.3387 50.2197 20.4854 50.0114C20.6322 49.803 20.8228 49.6468 21.0572 49.5426C21.2915 49.4384 21.5389 49.3864 21.7994 49.3864C22.0053 49.3864 22.1734 49.4029 22.3036 49.4361C22.4338 49.4692 22.5309 49.5 22.5948 49.5284L22.3533 50.2528C22.3107 50.2386 22.2515 50.2209 22.1758 50.1996C22.1024 50.1783 22.0053 50.1676 21.8846 50.1676C21.6076 50.1676 21.4076 50.2375 21.2844 50.3771C21.1637 50.5168 21.1033 50.7216 21.1033 50.9915V57H20.2653ZM23.4995 57V51.5455H24.3375V57H23.4995ZM23.9256 50.6364C23.7623 50.6364 23.6214 50.5807 23.503 50.4695C23.387 50.3582 23.329 50.2244 23.329 50.0682C23.329 49.9119 23.387 49.7782 23.503 49.6669C23.6214 49.5556 23.7623 49.5 23.9256 49.5C24.089 49.5 24.2286 49.5556 24.3446 49.6669C24.463 49.7782 24.5222 49.9119 24.5222 50.0682C24.5222 50.2244 24.463 50.3582 24.3446 50.4695C24.2286 50.5807 24.089 50.6364 23.9256 50.6364ZM28.0742 59.1591C27.6694 59.1591 27.3214 59.107 27.0302 59.0028C26.739 58.901 26.4963 58.7661 26.3022 58.598C26.1104 58.4323 25.9577 58.2547 25.8441 58.0653L26.5117 57.5966C26.5875 57.696 26.6834 57.8097 26.7994 57.9375C26.9154 58.0677 27.074 58.1802 27.2752 58.2749C27.4788 58.3719 27.7451 58.4205 28.0742 58.4205C28.5146 58.4205 28.878 58.3139 29.1644 58.1009C29.4509 57.8878 29.5941 57.554 29.5941 57.0994V55.9915H29.5231C29.4615 56.0909 29.3739 56.214 29.2603 56.3608C29.149 56.5052 28.988 56.6342 28.7773 56.7479C28.569 56.8591 28.2873 56.9148 27.9322 56.9148C27.4918 56.9148 27.0965 56.8106 26.7461 56.6023C26.3981 56.3939 26.1223 56.0909 25.9187 55.6932C25.7174 55.2955 25.6168 54.8125 25.6168 54.2443C25.6168 53.6856 25.7151 53.1991 25.9116 52.7848C26.1081 52.3681 26.3815 52.0462 26.7319 51.8189C27.0823 51.5893 27.4871 51.4744 27.9464 51.4744C28.3015 51.4744 28.5832 51.5336 28.7915 51.652C29.0022 51.768 29.1632 51.9006 29.2745 52.0497C29.3881 52.1965 29.4757 52.3172 29.5373 52.4119H29.6225V51.5455H30.4322V57.1562C30.4322 57.625 30.3256 58.0062 30.1126 58.2997C29.9019 58.5956 29.6178 58.8123 29.2603 58.9496C28.9052 59.0893 28.5098 59.1591 28.0742 59.1591ZM28.0458 56.1619C28.382 56.1619 28.6661 56.085 28.8981 55.9311C29.1301 55.7772 29.3065 55.5559 29.4272 55.267C29.5479 54.9782 29.6083 54.6326 29.6083 54.2301C29.6083 53.8371 29.5491 53.4903 29.4308 53.1896C29.3124 52.889 29.1372 52.6534 28.9052 52.483C28.6732 52.3125 28.3867 52.2273 28.0458 52.2273C27.6907 52.2273 27.3948 52.3172 27.158 52.4972C26.9237 52.6771 26.7473 52.9186 26.6289 53.2216C26.5129 53.5246 26.4549 53.8608 26.4549 54.2301C26.4549 54.6089 26.5141 54.9439 26.6325 55.2351C26.7532 55.5239 26.9308 55.7512 27.1651 55.9169C27.4019 56.0803 27.6954 56.1619 28.0458 56.1619ZM35.4038 54.7699V51.5455H36.2418V57H35.4038V56.0767H35.3469C35.2191 56.3537 35.0202 56.5893 34.7504 56.7834C34.4805 56.9751 34.1396 57.071 33.7276 57.071C33.3867 57.071 33.0837 56.9964 32.8185 56.8473C32.5534 56.6958 32.3451 56.4685 32.1935 56.1655C32.042 55.8601 31.9663 55.4754 31.9663 55.0114V51.5455H32.8043V54.9545C32.8043 55.3523 32.9156 55.6695 33.1381 55.9062C33.363 56.143 33.6495 56.2614 33.9975 56.2614C34.2058 56.2614 34.4177 56.2081 34.6332 56.1016C34.851 55.995 35.0333 55.8317 35.18 55.6115C35.3292 55.3913 35.4038 55.1108 35.4038 54.7699ZM37.7768 57V51.5455H38.5865V52.3693H38.6433C38.7427 52.0994 38.9226 51.8804 39.1831 51.7124C39.4435 51.5443 39.737 51.4602 40.0637 51.4602C40.1253 51.4602 40.2022 51.4614 40.2946 51.4638C40.3869 51.4661 40.4567 51.4697 40.5041 51.4744V52.3267C40.4757 52.3196 40.4106 52.3089 40.3088 52.2947C40.2093 52.2782 40.104 52.2699 39.9927 52.2699C39.7276 52.2699 39.4908 52.3255 39.2825 52.4368C39.0765 52.5457 38.9132 52.6972 38.7924 52.8913C38.6741 53.0831 38.6149 53.3021 38.6149 53.5483V57H37.7768ZM43.1026 57.1278C42.757 57.1278 42.4433 57.0627 42.1616 56.9325C41.8799 56.8 41.6561 56.6094 41.4904 56.3608C41.3247 56.1098 41.2418 55.8068 41.2418 55.4517C41.2418 55.1392 41.3034 54.8859 41.4265 54.6918C41.5496 54.4953 41.7141 54.3414 41.9201 54.2301C42.1261 54.1188 42.3533 54.036 42.6019 53.9815C42.8529 53.9247 43.105 53.8797 43.3583 53.8466C43.6897 53.804 43.9585 53.772 44.1644 53.7507C44.3728 53.727 44.5243 53.688 44.619 53.6335C44.716 53.5791 44.7646 53.4844 44.7646 53.3494V53.321C44.7646 52.9706 44.6687 52.6984 44.4769 52.5043C44.2875 52.3101 43.9999 52.2131 43.614 52.2131C43.2139 52.2131 42.9002 52.3007 42.6729 52.4759C42.4457 52.651 42.2859 52.8381 42.1935 53.0369L41.3981 52.7528C41.5401 52.4214 41.7295 52.1634 41.9663 51.9787C42.2054 51.7917 42.4658 51.6615 42.7475 51.5881C43.0316 51.5123 43.311 51.4744 43.5856 51.4744C43.7608 51.4744 43.962 51.4957 44.1893 51.5384C44.4189 51.5786 44.6403 51.6626 44.8533 51.7905C45.0688 51.9183 45.2475 52.1113 45.3896 52.3693C45.5316 52.6274 45.6026 52.973 45.6026 53.4062V57H44.7646V56.2614H44.7219C44.6651 56.3797 44.5704 56.5064 44.4379 56.6413C44.3053 56.7763 44.1289 56.8911 43.9087 56.9858C43.6886 57.0805 43.4199 57.1278 43.1026 57.1278ZM43.2305 56.375C43.5619 56.375 43.8413 56.3099 44.0685 56.1797C44.2982 56.0495 44.471 55.8814 44.587 55.6754C44.7054 55.4695 44.7646 55.2528 44.7646 55.0256V54.2585C44.729 54.3011 44.6509 54.3402 44.5302 54.3757C44.4118 54.4089 44.2745 54.4384 44.1183 54.4645C43.9644 54.4882 43.814 54.5095 43.6673 54.5284C43.5228 54.545 43.4057 54.5592 43.3157 54.571C43.0979 54.5994 42.8943 54.6456 42.7049 54.7095C42.5179 54.7711 42.3664 54.8646 42.2504 54.9901C42.1367 55.1132 42.0799 55.2812 42.0799 55.4943C42.0799 55.7855 42.1876 56.0057 42.4031 56.1548C42.6209 56.3016 42.8967 56.375 43.2305 56.375ZM49.3482 57.1136C48.8368 57.1136 48.3965 56.9929 48.0272 56.7514C47.6578 56.5099 47.3738 56.1773 47.1749 55.7536C46.976 55.3298 46.8766 54.8456 46.8766 54.3011C46.8766 53.7472 46.9784 53.2583 47.182 52.8345C47.388 52.4084 47.6744 52.0758 48.0414 51.8366C48.4107 51.5952 48.8416 51.4744 49.334 51.4744C49.7175 51.4744 50.0632 51.5455 50.3709 51.6875C50.6787 51.8295 50.9308 52.0284 51.1273 52.2841C51.3238 52.5398 51.4457 52.8381 51.4931 53.179H50.655C50.5911 52.9304 50.449 52.7102 50.2289 52.5185C50.0111 52.3243 49.7175 52.2273 49.3482 52.2273C49.0215 52.2273 48.735 52.3125 48.4888 52.483C48.245 52.651 48.0544 52.889 47.9171 53.1967C47.7821 53.5021 47.7147 53.8608 47.7147 54.2727C47.7147 54.6941 47.781 55.0611 47.9135 55.3736C48.0485 55.6861 48.2379 55.9287 48.4817 56.1016C48.7279 56.2744 49.0167 56.3608 49.3482 56.3608C49.566 56.3608 49.7637 56.3229 49.9412 56.2472C50.1188 56.1714 50.2691 56.0625 50.3922 55.9205C50.5153 55.7784 50.6029 55.608 50.655 55.4091H51.4931C51.4457 55.7311 51.3285 56.0211 51.1415 56.2791C50.9569 56.5348 50.7118 56.7384 50.4064 56.8899C50.1034 57.0391 49.7507 57.1136 49.3482 57.1136ZM48.9505 56.9716H49.6465L49.5897 57.2557C49.7743 57.2841 49.9436 57.361 50.0975 57.4865C50.2514 57.6143 50.3283 57.8168 50.3283 58.0938C50.3283 58.3991 50.2016 58.6477 49.9483 58.8395C49.6974 59.0336 49.3269 59.1307 48.8368 59.1307L48.8084 58.5767C49.0286 58.5767 49.2109 58.5412 49.3553 58.4702C49.5021 58.4015 49.5755 58.2855 49.5755 58.1222C49.5755 57.9588 49.5151 57.8475 49.3944 57.7884C49.2736 57.7292 49.0783 57.6889 48.8084 57.6676L48.9505 56.9716ZM54.9341 57.1136C54.4417 57.1136 54.0096 56.9964 53.638 56.7621C53.2686 56.5277 52.9798 56.1998 52.7715 55.7784C52.5655 55.357 52.4625 54.8646 52.4625 54.3011C52.4625 53.733 52.5655 53.237 52.7715 52.8132C52.9798 52.3894 53.2686 52.0604 53.638 51.826C54.0096 51.5916 54.4417 51.4744 54.9341 51.4744C55.4266 51.4744 55.8574 51.5916 56.2267 51.826C56.5984 52.0604 56.8873 52.3894 57.0932 52.8132C57.3016 53.237 57.4057 53.733 57.4057 54.3011C57.4057 54.8646 57.3016 55.357 57.0932 55.7784C56.8873 56.1998 56.5984 56.5277 56.2267 56.7621C55.8574 56.9964 55.4266 57.1136 54.9341 57.1136ZM54.9341 56.3608C55.3082 56.3608 55.6159 56.2649 55.8574 56.0732C56.0989 55.8814 56.2776 55.6293 56.3936 55.3168C56.5096 55.0043 56.5676 54.6657 56.5676 54.3011C56.5676 53.9366 56.5096 53.5968 56.3936 53.282C56.2776 52.9671 56.0989 52.7126 55.8574 52.5185C55.6159 52.3243 55.3082 52.2273 54.9341 52.2273C54.5601 52.2273 54.2523 52.3243 54.0108 52.5185C53.7694 52.7126 53.5906 52.9671 53.4746 53.282C53.3586 53.5968 53.3006 53.9366 53.3006 54.3011C53.3006 54.6657 53.3586 55.0043 53.4746 55.3168C53.5906 55.6293 53.7694 55.8814 54.0108 56.0732C54.2523 56.2649 54.5601 56.3608 54.9341 56.3608ZM53.8404 50.892L53.187 50.8636C53.187 50.5014 53.29 50.2055 53.4959 49.9759C53.7042 49.7438 53.9611 49.6278 54.2665 49.6278C54.4015 49.6278 54.521 49.6515 54.6252 49.6989C54.7293 49.7438 54.8288 49.7959 54.9235 49.8551C55.0182 49.9143 55.1152 49.9676 55.2147 50.0149C55.3165 50.0599 55.4313 50.0824 55.5591 50.0824C55.6941 50.0824 55.8077 50.0303 55.9 49.9261C55.9947 49.8196 56.0421 49.6918 56.0421 49.5426L56.6813 49.5994C56.6813 49.9687 56.5771 50.2623 56.3688 50.4801C56.1628 50.6979 55.9071 50.8068 55.6017 50.8068C55.4384 50.8068 55.3034 50.7843 55.1969 50.7393C55.0904 50.692 54.9957 50.6387 54.9128 50.5795C54.83 50.5204 54.7424 50.4683 54.65 50.4233C54.5577 50.3759 54.4441 50.3523 54.3091 50.3523C54.1742 50.3523 54.0617 50.4055 53.9718 50.5121C53.8842 50.6162 53.8404 50.7429 53.8404 50.892ZM60.9719 57.1136C60.4464 57.1136 59.993 56.9976 59.6119 56.7656C59.2331 56.5312 58.9407 56.2045 58.7347 55.7855C58.5311 55.3641 58.4293 54.8741 58.4293 54.3153C58.4293 53.7566 58.5311 53.2642 58.7347 52.8381C58.9407 52.4096 59.2272 52.0758 59.5941 51.8366C59.9634 51.5952 60.3943 51.4744 60.8867 51.4744C61.1708 51.4744 61.4513 51.5218 61.7283 51.6165C62.0053 51.7112 62.2575 51.8651 62.4847 52.0781C62.712 52.2888 62.8931 52.5682 63.0281 52.9162C63.163 53.2642 63.2305 53.6927 63.2305 54.2017V54.5568H59.0259V53.8324H62.3782C62.3782 53.5246 62.3166 53.25 62.1935 53.0085C62.0728 52.767 61.9 52.5765 61.6751 52.4368C61.4525 52.2971 61.1897 52.2273 60.8867 52.2273C60.5529 52.2273 60.2641 52.3101 60.0202 52.4759C59.7788 52.6392 59.5929 52.8523 59.4627 53.1151C59.3325 53.3778 59.2674 53.6596 59.2674 53.9602V54.4432C59.2674 54.8551 59.3384 55.2043 59.4805 55.4908C59.6249 55.7749 59.8249 55.9915 60.0806 56.1406C60.3363 56.2874 60.6334 56.3608 60.9719 56.3608C61.1921 56.3608 61.391 56.33 61.5685 56.2685C61.7485 56.2045 61.9035 56.1098 62.0337 55.9844C62.1639 55.8565 62.2646 55.6979 62.3356 55.5085L63.1452 55.7358C63.06 56.0104 62.9168 56.2519 62.7156 56.4602C62.5143 56.6662 62.2657 56.8272 61.9698 56.9432C61.6739 57.0568 61.3413 57.1136 60.9719 57.1136ZM68.369 52.767L67.6161 52.9801C67.5688 52.8546 67.4989 52.7327 67.4066 52.6143C67.3166 52.4936 67.1935 52.3942 67.0373 52.3161C66.881 52.2379 66.681 52.1989 66.4371 52.1989C66.1033 52.1989 65.8252 52.2758 65.6026 52.4297C65.3825 52.5812 65.2724 52.7741 65.2724 53.0085C65.2724 53.2169 65.3481 53.3814 65.4996 53.5021C65.6512 53.6229 65.8879 53.7235 66.2099 53.804L67.0195 54.0028C67.5072 54.1212 67.8706 54.3023 68.1097 54.5462C68.3488 54.7876 68.4684 55.099 68.4684 55.4801C68.4684 55.7926 68.3784 56.072 68.1985 56.3182C68.021 56.5644 67.7724 56.7585 67.4528 56.9006C67.1332 57.0426 66.7615 57.1136 66.3377 57.1136C65.7814 57.1136 65.3209 56.9929 64.9563 56.7514C64.5917 56.5099 64.3609 56.1572 64.2638 55.6932L65.0593 55.4943C65.1351 55.7879 65.2783 56.008 65.489 56.1548C65.7021 56.3016 65.9802 56.375 66.3235 56.375C66.7141 56.375 67.0243 56.2921 67.2539 56.1264C67.4859 55.9583 67.6019 55.7571 67.6019 55.5227C67.6019 55.3333 67.5356 55.1747 67.4031 55.0469C67.2705 54.9167 67.0669 54.8196 66.7923 54.7557L65.8832 54.5426C65.3836 54.4242 65.0167 54.2408 64.7823 53.9922C64.5503 53.7412 64.4343 53.4276 64.4343 53.0511C64.4343 52.7434 64.5207 52.4711 64.6935 52.2344C64.8687 51.9976 65.1067 51.8118 65.4073 51.6768C65.7103 51.5419 66.0536 51.4744 66.4371 51.4744C66.9769 51.4744 67.4007 51.5928 67.7085 51.8295C68.0186 52.0663 68.2388 52.3788 68.369 52.767Z" fill="#5D5D5D"/>
<defs>
<clipPath id="clip0_59_189">
<rect width="24" height="24" fill="white" transform="translate(22.5 18)"/>
</clipPath>
</defs>
</svg>
