<svg width="210" height="239" viewBox="0 0 210 239" fill="none" xmlns="http://www.w3.org/2000/svg">
<rect x="108.61" y="205.679" width="95.8611" height="25.0379" fill="#FF0505" stroke="#FF0505"/>
<circle cx="59.6797" cy="28.6417" r="28.1417" fill="#FF0505" stroke="#FF0505"/>
<circle cx="146.126" cy="28.6417" r="28.1417" fill="#FF0505" stroke="#FF0505"/>
<g filter="url(#filter0_d_127_180)">
<path d="M95.0913 229.134V200.492L66.163 173.413C66.163 173.413 51.8805 159.651 42.7289 150.499L36.4798 144.25C36.4798 144.25 31.0551 139.13 29.1891 135.397C27.6269 132.273 26.6643 130.488 26.0646 127.065C25.8822 126.024 25.262 121.975 25.5439 118.733C25.9062 114.567 26.6007 112.167 28.1476 108.318C28.6684 107.022 30.6715 103.331 32.8344 100.506C34.0309 98.9441 37.9383 94.3222 42.2081 91.6536C46.3742 89.0497 49.4988 88.0082 52.6233 87.4874C55.2716 87.046 58.15 87.0713 61.0747 87.4875C63.5593 87.8411 64.8936 88.2795 67.2045 89.0498C71.8914 90.612 84.1553 96.3404 84.1553 96.3404L93.529 77.5931C93.529 77.5931 90.1185 74.9893 73.4542 69.2609C67.2252 67.1197 64.0806 66.6572 56.7893 66.6571C51.0049 66.6571 47.7276 67.0079 42.2087 68.7401C36.6523 70.484 33.8765 72.0475 28.6684 75.51C21.6188 80.1968 16.6914 86.9666 14.0877 90.612C11.484 94.2573 9.92164 97.3818 9.92164 97.3818C3.6725 109.359 4.78674 122.899 5.75502 129.669C6.2764 133.314 8.35885 139.563 8.35885 139.563C8.35885 139.563 9.92112 146.333 18.7739 155.707L45.8534 182.786L95.0913 229.134Z" fill="#FF0505"/>
<path d="M95.0913 229.134V200.492L66.163 173.413C66.163 173.413 51.8805 159.651 42.7289 150.499L36.4798 144.25C36.4798 144.25 31.0551 139.13 29.1891 135.397C27.6269 132.273 26.6643 130.488 26.0646 127.065C25.8822 126.024 25.262 121.975 25.5439 118.733C25.9062 114.567 26.6007 112.167 28.1476 108.318C28.6684 107.022 30.6715 103.331 32.8344 100.506C34.0309 98.9441 37.9383 94.3222 42.2081 91.6536C46.3742 89.0497 49.4988 88.0082 52.6233 87.4874C55.2716 87.046 58.15 87.0713 61.0747 87.4875C63.5593 87.8411 64.8936 88.2795 67.2045 89.0498C71.8914 90.612 84.1553 96.3404 84.1553 96.3404L93.529 77.5931C93.529 77.5931 90.1185 74.9893 73.4542 69.2609C67.2252 67.1197 64.0806 66.6572 56.7893 66.6571C51.0049 66.6571 47.7276 67.0079 42.2087 68.7401C36.6523 70.484 33.8765 72.0475 28.6684 75.51C21.6188 80.1968 16.6914 86.9666 14.0877 90.612C11.484 94.2573 9.92164 97.3818 9.92164 97.3818C3.6725 109.359 4.78674 122.899 5.75502 129.669C6.2764 133.314 8.35885 139.563 8.35885 139.563C8.35885 139.563 9.92112 146.333 18.7739 155.707L45.8534 182.786L95.0913 229.134Z" stroke="#FF0505"/>
</g>
<g filter="url(#filter1_d_127_180)">
<path d="M88.3214 128.627H108.395C108.395 128.627 108.631 124.982 109.152 120.295C109.558 116.635 110.193 113.525 111.235 109.359C112.294 105.123 113.752 102.904 116.442 99.4644C119.828 95.1366 122.52 93.1782 127.378 90.6115C132.788 87.7536 136.377 86.8667 142.48 86.4454C148.621 86.0215 155.499 87.1985 158.103 88.0081C159.48 88.4364 167.034 91.596 171.643 95.2983C175.809 98.6449 178.005 100.506 181.016 106.755C183.287 111.465 184.013 114.547 184.141 119.774C184.205 122.378 184.141 129.148 181.016 134.355C178.162 139.112 174.868 142.076 169.794 146.642L169.56 146.853C157.581 157.635 138.835 174.974 138.835 174.974L108.631 199.971V229.134L146.646 196.326L172.164 172.371C172.164 172.371 184.662 161.435 191.952 153.623C196.648 148.592 199.232 145.407 201.847 139.042C204.744 131.991 205.124 127.395 204.971 119.774C204.867 114.567 203.849 107.272 200.805 99.9851C197.588 92.2821 194.858 88.0523 188.828 82.2793C183.408 77.091 179.499 75.0021 172.684 71.8641C166.435 68.9867 156.02 65.3502 144.043 65.615C135.11 65.8125 126.337 67.9585 121.65 70.3019C111.756 75.2491 103.058 80.659 96.1328 91.653C88.373 103.972 88.3214 128.627 88.3214 128.627Z" fill="#FF0505"/>
<path d="M88.3214 128.627H108.395C108.395 128.627 108.631 124.982 109.152 120.295C109.558 116.635 110.193 113.525 111.235 109.359C112.294 105.123 113.752 102.904 116.442 99.4644C119.828 95.1366 122.52 93.1782 127.378 90.6115C132.788 87.7536 136.377 86.8667 142.48 86.4454C148.621 86.0215 155.499 87.1985 158.103 88.0081C159.48 88.4364 167.034 91.596 171.643 95.2983C175.809 98.6449 178.005 100.506 181.016 106.755C183.287 111.465 184.013 114.547 184.141 119.774C184.205 122.378 184.141 129.148 181.016 134.355C178.162 139.112 174.868 142.076 169.794 146.642L169.56 146.853C157.581 157.635 138.835 174.974 138.835 174.974L108.631 199.971V229.134L146.646 196.326L172.164 172.371C172.164 172.371 184.662 161.435 191.952 153.623C196.648 148.592 199.232 145.407 201.847 139.042C204.744 131.991 205.124 127.395 204.971 119.774C204.867 114.567 203.849 107.272 200.805 99.9851C197.588 92.2821 194.858 88.0523 188.828 82.2793C183.408 77.091 179.499 75.0021 172.684 71.8641C166.435 68.9867 156.02 65.3502 144.043 65.615C135.11 65.8125 126.337 67.9585 121.65 70.3019C111.756 75.2491 103.058 80.659 96.1328 91.653C88.373 103.972 88.3214 128.627 88.3214 128.627Z" stroke="#FF0505"/>
</g>
<defs>
<filter id="filter0_d_127_180" x="0.499878" y="66.1571" width="99.0914" height="172.134" filterUnits="userSpaceOnUse" color-interpolation-filters="sRGB">
<feFlood flood-opacity="0" result="BackgroundImageFix"/>
<feColorMatrix in="SourceAlpha" type="matrix" values="0 0 0 0 0 0 0 0 0 0 0 0 0 0 0 0 0 0 127 0" result="hardAlpha"/>
<feOffset dy="4"/>
<feGaussianBlur stdDeviation="2"/>
<feComposite in2="hardAlpha" operator="out"/>
<feColorMatrix type="matrix" values="0 0 0 0 0 0 0 0 0 0 0 0 0 0 0 0 0 0 0.25 0"/>
<feBlend mode="normal" in2="BackgroundImageFix" result="effect1_dropShadow_127_180"/>
<feBlend mode="normal" in="SourceGraphic" in2="effect1_dropShadow_127_180" result="shape"/>
</filter>
<filter id="filter1_d_127_180" x="83.8203" y="65.1014" width="125.68" height="173.124" filterUnits="userSpaceOnUse" color-interpolation-filters="sRGB">
<feFlood flood-opacity="0" result="BackgroundImageFix"/>
<feColorMatrix in="SourceAlpha" type="matrix" values="0 0 0 0 0 0 0 0 0 0 0 0 0 0 0 0 0 0 127 0" result="hardAlpha"/>
<feOffset dy="4"/>
<feGaussianBlur stdDeviation="2"/>
<feComposite in2="hardAlpha" operator="out"/>
<feColorMatrix type="matrix" values="0 0 0 0 0 0 0 0 0 0 0 0 0 0 0 0 0 0 0.25 0"/>
<feBlend mode="normal" in2="BackgroundImageFix" result="effect1_dropShadow_127_180"/>
<feBlend mode="normal" in="SourceGraphic" in2="effect1_dropShadow_127_180" result="shape"/>
</filter>
</defs>
</svg>
