<svg width="342" height="130" viewBox="0 0 342 130" fill="none" xmlns="http://www.w3.org/2000/svg">
<g clip-path="url(#clip0_98_55)">
<rect width="342" height="130" rx="10" fill="#FFC1C1"/>
<g opacity="0.1">
<path d="M285.684 63.5093V63.3603C285.688 62.6685 285.753 62.1181 285.878 61.7091C286.008 61.3001 286.19 60.9714 286.426 60.723C286.662 60.4707 286.95 60.2394 287.288 60.0292C287.52 59.884 287.728 59.7254 287.911 59.5534C288.097 59.3775 288.244 59.1826 288.35 58.9686C288.457 58.7507 288.51 58.508 288.51 58.2404C288.51 57.9385 288.44 57.6767 288.299 57.455C288.158 57.2333 287.968 57.0613 287.728 56.939C287.492 56.8167 287.227 56.7555 286.934 56.7555C286.664 56.7555 286.407 56.8147 286.164 56.9332C285.924 57.0479 285.724 57.2237 285.564 57.4607C285.408 57.6939 285.321 57.9901 285.302 58.3494H283.27C283.289 57.6231 283.464 57.0154 283.795 56.5262C284.13 56.0369 284.571 55.67 285.119 55.4254C285.671 55.1808 286.28 55.0584 286.946 55.0584C287.673 55.0584 288.312 55.1865 288.864 55.4426C289.419 55.6987 289.851 56.0637 290.16 56.5376C290.472 57.0078 290.628 57.5658 290.628 58.2118C290.628 58.6475 290.557 59.0374 290.417 59.3814C290.28 59.7254 290.084 60.0311 289.829 60.2987C289.574 60.5662 289.271 60.8051 288.921 61.0154C288.613 61.2065 288.36 61.4052 288.162 61.6116C287.968 61.818 287.823 62.0607 287.728 62.3397C287.637 62.6149 287.589 62.9551 287.585 63.3603V63.5093H285.684ZM286.678 67.0869C286.335 67.0869 286.04 66.9646 285.793 66.72C285.545 66.4754 285.422 66.1772 285.422 65.8256C285.422 65.4816 285.545 65.1873 285.793 64.9427C286.04 64.698 286.335 64.5757 286.678 64.5757C287.016 64.5757 287.309 64.698 287.557 64.9427C287.808 65.1873 287.933 65.4816 287.933 65.8256C287.933 66.0588 287.874 66.2709 287.756 66.462C287.642 66.6531 287.49 66.806 287.3 66.9207C287.113 67.0315 286.906 67.0869 286.678 67.0869Z" fill="#FF0505"/>
<path d="M14.4147 35.2556V35.1065C14.4185 34.4147 14.4832 33.8643 14.6088 33.4553C14.7382 33.0464 14.9209 32.7176 15.1568 32.4692C15.3928 32.2169 15.6801 31.9857 16.0188 31.7755C16.251 31.6302 16.4584 31.4716 16.641 31.2996C16.8275 31.1238 16.974 30.9289 17.0806 30.7148C17.1872 30.4969 17.2404 30.2542 17.2404 29.9867C17.2404 29.6847 17.17 29.4229 17.0292 29.2012C16.8884 28.9795 16.6981 28.8075 16.4584 28.6852C16.2224 28.5629 15.9579 28.5018 15.6649 28.5018C15.3947 28.5018 15.1378 28.561 14.8942 28.6795C14.6545 28.7942 14.4547 28.97 14.2948 29.207C14.1388 29.4401 14.0513 29.7363 14.0322 30.0956H12C12.019 29.3694 12.1941 28.7617 12.5252 28.2724C12.8601 27.7832 13.3015 27.4163 13.8496 27.1716C14.4014 26.927 15.0103 26.8047 15.6763 26.8047C16.4032 26.8047 17.0425 26.9327 17.5944 27.1888C18.15 27.4449 18.5819 27.8099 18.8902 28.2839C19.2023 28.754 19.3583 29.3121 19.3583 29.958C19.3583 30.3937 19.2879 30.7836 19.1471 31.1276C19.0101 31.4716 18.8141 31.7774 18.5591 32.0449C18.3041 32.3125 18.0016 32.5514 17.6514 32.7616C17.3432 32.9527 17.0901 33.1515 16.8922 33.3579C16.6981 33.5643 16.5535 33.807 16.4584 34.086C16.367 34.3612 16.3195 34.7014 16.3157 35.1065V35.2556H14.4147ZM15.408 38.8332C15.0655 38.8332 14.7705 38.7109 14.5232 38.4662C14.2758 38.2216 14.1521 37.9235 14.1521 37.5718C14.1521 37.2279 14.2758 36.9335 14.5232 36.6889C14.7705 36.4443 15.0655 36.322 15.408 36.322C15.7467 36.322 16.0397 36.4443 16.2871 36.6889C16.5383 36.9335 16.6639 37.2279 16.6639 37.5718C16.6639 37.805 16.6049 38.0171 16.4869 38.2082C16.3727 38.3994 16.2205 38.5522 16.0302 38.6669C15.8437 38.7778 15.6363 38.8332 15.408 38.8332Z" fill="#FF0505"/>
<path d="M204.303 41.31V41.1609C204.307 40.4691 204.372 39.9187 204.497 39.5097C204.627 39.1007 204.81 38.772 205.045 38.5236C205.281 38.2713 205.569 38.0401 205.907 37.8299C206.14 37.6846 206.347 37.526 206.53 37.354C206.716 37.1782 206.863 36.9832 206.969 36.7692C207.076 36.5513 207.129 36.3086 207.129 36.0411C207.129 35.7391 207.059 35.4773 206.918 35.2556C206.777 35.0339 206.587 34.8619 206.347 34.7396C206.111 34.6173 205.847 34.5561 205.554 34.5561C205.283 34.5561 205.026 34.6154 204.783 34.7339C204.543 34.8485 204.343 35.0243 204.183 35.2613C204.027 35.4945 203.94 35.7907 203.921 36.15H201.889C201.908 35.4238 202.083 34.816 202.414 34.3268C202.749 33.8376 203.19 33.4706 203.738 33.226C204.29 32.9814 204.899 32.8591 205.565 32.8591C206.292 32.8591 206.931 32.9871 207.483 33.2432C208.039 33.4993 208.471 33.8643 208.779 34.3383C209.091 34.8084 209.247 35.3664 209.247 36.0124C209.247 36.4481 209.177 36.838 209.036 37.182C208.899 37.526 208.703 37.8318 208.448 38.0993C208.193 38.3669 207.89 38.6058 207.54 38.816C207.232 39.0071 206.979 39.2058 206.781 39.4122C206.587 39.6186 206.442 39.8614 206.347 40.1404C206.256 40.4156 206.208 40.7557 206.204 41.1609V41.31H204.303ZM205.297 44.8876C204.954 44.8876 204.659 44.7652 204.412 44.5206C204.164 44.276 204.041 43.9779 204.041 43.6262C204.041 43.2822 204.164 42.9879 204.412 42.7433C204.659 42.4987 204.954 42.3764 205.297 42.3764C205.635 42.3764 205.928 42.4987 206.176 42.7433C206.427 42.9879 206.553 43.2822 206.553 43.6262C206.553 43.8594 206.494 44.0715 206.376 44.2626C206.261 44.4537 206.109 44.6066 205.919 44.7213C205.732 44.8321 205.525 44.8876 205.297 44.8876Z" fill="#FF0505"/>
<path d="M80.725 109.926V109.777C80.7288 109.085 80.7935 108.535 80.9191 108.126C81.0485 107.717 81.2312 107.388 81.4671 107.14C81.7031 106.888 81.9904 106.656 82.3291 106.446C82.5613 106.301 82.7687 106.142 82.9514 105.97C83.1378 105.794 83.2844 105.599 83.3909 105.385C83.4975 105.168 83.5508 104.925 83.5508 104.657C83.5508 104.355 83.4804 104.094 83.3395 103.872C83.1987 103.65 83.0084 103.478 82.7687 103.356C82.5327 103.234 82.2682 103.172 81.9752 103.172C81.705 103.172 81.4481 103.232 81.2046 103.35C80.9648 103.465 80.765 103.641 80.6051 103.878C80.4491 104.111 80.3616 104.407 80.3426 104.766H78.3103C78.3294 104.04 78.5044 103.432 78.8355 102.943C79.1704 102.454 79.6119 102.087 80.1599 101.842C80.7117 101.598 81.3206 101.475 81.9866 101.475C82.7135 101.475 83.3529 101.603 83.9047 101.859C84.4603 102.116 84.8923 102.481 85.2005 102.954C85.5126 103.425 85.6686 103.983 85.6686 104.629C85.6686 105.064 85.5982 105.454 85.4574 105.798C85.3204 106.142 85.1244 106.448 84.8694 106.716C84.6144 106.983 84.3119 107.222 83.9618 107.432C83.6535 107.623 83.4004 107.822 83.2025 108.028C83.0084 108.235 82.8638 108.478 82.7687 108.757C82.6774 109.032 82.6298 109.372 82.626 109.777V109.926H80.725ZM81.7183 113.504C81.3758 113.504 81.0809 113.381 80.8335 113.137C80.5861 112.892 80.4624 112.594 80.4624 112.242C80.4624 111.898 80.5861 111.604 80.8335 111.36C81.0809 111.115 81.3758 110.993 81.7183 110.993C82.057 110.993 82.3501 111.115 82.5974 111.36C82.8486 111.604 82.9742 111.898 82.9742 112.242C82.9742 112.476 82.9152 112.688 82.7972 112.879C82.6831 113.07 82.5308 113.223 82.3405 113.338C82.1541 113.448 81.9467 113.504 81.7183 113.504Z" fill="#FF0505"/>
<path d="M215.369 112.69V112.093C215.384 109.326 215.643 107.125 216.145 105.489C216.663 103.853 217.393 102.538 218.337 101.544C219.281 100.535 220.43 99.6101 221.785 98.7692C222.714 98.1882 223.543 97.5537 224.274 96.8657C225.02 96.1624 225.606 95.3827 226.032 94.5265C226.458 93.6551 226.672 92.6842 226.672 91.614C226.672 90.4062 226.39 89.3589 225.827 88.4722C225.263 87.5854 224.502 86.8974 223.543 86.4082C222.599 85.9189 221.541 85.6743 220.369 85.6743C219.288 85.6743 218.261 85.9113 217.287 86.3852C216.328 86.8439 215.528 87.5472 214.889 88.4951C214.265 89.4277 213.915 90.6126 213.839 92.0497H205.71C205.786 89.1449 206.486 86.7139 207.811 84.757C209.15 82.8 210.916 81.3323 213.108 80.3538C215.315 79.3753 217.751 78.8861 220.415 78.8861C223.323 78.8861 225.88 79.3982 228.087 80.4226C230.31 81.4469 232.038 82.907 233.271 84.8028C234.519 86.6834 235.143 88.9155 235.143 91.4994C235.143 93.2423 234.861 94.8017 234.298 96.1777C233.75 97.5537 232.966 98.7768 231.946 99.847C230.926 100.917 229.716 101.873 228.316 102.714C227.083 103.478 226.07 104.273 225.279 105.099C224.502 105.924 223.924 106.895 223.543 108.011C223.178 109.112 222.988 110.473 222.972 112.093V112.69H215.369ZM219.342 127C217.972 127 216.792 126.511 215.802 125.532C214.813 124.554 214.318 123.361 214.318 121.955C214.318 120.579 214.813 119.401 215.802 118.423C216.792 117.444 217.972 116.955 219.342 116.955C220.697 116.955 221.869 117.444 222.858 118.423C223.863 119.401 224.365 120.579 224.365 121.955C224.365 122.887 224.129 123.736 223.657 124.5C223.201 125.265 222.592 125.876 221.831 126.335C221.085 126.778 220.255 127 219.342 127Z" fill="#FF0505"/>
<path d="M156.091 37.01V36.4137C156.106 33.6464 156.365 31.4449 156.868 29.809C157.385 28.173 158.116 26.8582 159.06 25.8644C160.003 24.8554 161.153 23.9304 162.508 23.0895C163.436 22.5085 164.266 21.8741 164.997 21.1861C165.742 20.4828 166.329 19.703 166.755 18.8469C167.181 17.9754 167.394 17.0046 167.394 15.9343C167.394 14.7265 167.113 13.6792 166.549 12.7925C165.986 11.9057 165.225 11.2177 164.266 10.7285C163.322 10.2393 162.264 9.99464 161.092 9.99464C160.011 9.99464 158.984 10.2316 158.009 10.7056C157.05 11.1642 156.251 11.8675 155.612 12.8154C154.988 13.748 154.637 14.9329 154.561 16.3701H146.432C146.508 13.4652 147.209 11.0343 148.533 9.07731C149.873 7.12034 151.639 5.65261 153.831 4.67412C156.038 3.69564 158.474 3.2064 161.138 3.2064C164.045 3.2064 166.603 3.71857 168.81 4.74293C171.032 5.76728 172.76 7.22736 173.993 9.12317C175.241 11.0037 175.866 13.2359 175.866 15.8197C175.866 17.5626 175.584 19.1221 175.021 20.4981C174.473 21.8741 173.689 23.0972 172.669 24.1674C171.649 25.2376 170.439 26.1931 169.038 27.034C167.805 27.7985 166.793 28.5935 166.001 29.4191C165.225 30.2447 164.646 31.2155 164.266 32.3316C163.9 33.4324 163.71 34.7931 163.695 36.4137V37.01H156.091ZM160.064 51.3203C158.694 51.3203 157.515 50.8311 156.525 49.8526C155.536 48.8741 155.041 47.6816 155.041 46.275C155.041 44.899 155.536 43.7218 156.525 42.7433C157.515 41.7648 158.694 41.2756 160.064 41.2756C161.419 41.2756 162.591 41.7648 163.581 42.7433C164.586 43.7218 165.088 44.899 165.088 46.275C165.088 47.2076 164.852 48.0562 164.38 48.8206C163.923 49.585 163.314 50.1966 162.553 50.6553C161.807 51.0986 160.978 51.3203 160.064 51.3203Z" fill="#FF0505"/>
<path d="M40.8945 99.7324V98.838C40.9173 94.6871 41.3055 91.3847 42.059 88.9308C42.8354 86.477 43.9314 84.5047 45.3471 83.014C46.7628 81.5005 48.4868 80.113 50.519 78.8517C51.9119 77.9802 53.1564 77.0285 54.2524 75.9965C55.3713 74.9415 56.2504 73.7719 56.8898 72.4877C57.5291 71.1805 57.8488 69.7242 57.8488 68.1189C57.8488 66.3072 57.4264 64.7363 56.5815 63.4061C55.7366 62.076 54.5949 61.044 53.1564 60.3101C51.7407 59.5763 50.1537 59.2093 48.3955 59.2093C46.7742 59.2093 45.2329 59.5648 43.7716 60.2757C42.333 60.9637 41.1342 62.0187 40.1752 63.4405C39.239 64.8395 38.7138 66.6168 38.5996 68.7725H26.4062C26.5204 64.4152 27.5707 60.7688 29.5573 57.8334C31.5667 54.8979 34.2155 52.6963 37.5036 51.2286C40.8145 49.7609 44.468 49.027 48.464 49.027C52.8253 49.027 56.6614 49.7953 59.9724 51.3318C63.3062 52.8683 65.8978 55.0584 67.7474 57.9022C69.6198 60.7229 70.556 64.0712 70.556 67.9469C70.556 70.5613 70.1336 72.9005 69.2887 74.9645C68.4667 77.0285 67.2907 78.8631 65.7608 80.4685C64.2309 82.0738 62.4156 83.5071 60.3149 84.7684C58.4653 85.9151 56.9468 87.1076 55.7595 88.346C54.5949 89.5844 53.7272 91.0407 53.1564 92.7148C52.6084 94.366 52.3229 96.4071 52.3001 98.838V99.7324H40.8945ZM46.8542 121.198C44.7991 121.198 43.0294 120.464 41.5452 118.996C40.061 117.529 39.3189 115.74 39.3189 113.63C39.3189 111.566 40.061 109.8 41.5452 108.332C43.0294 106.865 44.7991 106.131 46.8542 106.131C48.8864 106.131 50.6446 106.865 52.1288 108.332C53.6359 109.8 54.3894 111.566 54.3894 113.63C54.3894 115.029 54.0355 116.302 53.3276 117.448C52.6426 118.595 51.7293 119.512 50.5875 120.2C49.4687 120.865 48.2242 121.198 46.8542 121.198Z" fill="#FF0505"/>
<path d="M250.877 56.3427V55.4483C250.9 51.2974 251.288 47.995 252.042 45.5411C252.818 43.0873 253.914 41.115 255.33 39.6244C256.746 38.1108 258.469 36.7233 260.502 35.462C261.895 34.5905 263.139 33.6388 264.235 32.6068C265.354 31.5519 266.233 30.3823 266.872 29.098C267.512 27.7908 267.831 26.3346 267.831 24.7292C267.831 22.9175 267.409 21.3466 266.564 20.0165C265.719 18.6863 264.578 17.6543 263.139 16.9205C261.723 16.1866 260.136 15.8197 258.378 15.8197C256.757 15.8197 255.216 16.1751 253.754 16.8861C252.316 17.5741 251.117 18.629 250.158 20.0509C249.222 21.4498 248.696 23.2271 248.582 25.3828H236.389C236.503 21.0255 237.553 17.3791 239.54 14.4437C241.549 11.5082 244.198 9.30663 247.486 7.8389C250.797 6.37118 254.451 5.63731 258.447 5.63731C262.808 5.63731 266.644 6.40558 269.955 7.94211C273.289 9.47863 275.881 11.6688 277.73 14.5125C279.602 17.3333 280.539 20.6815 280.539 24.5572C280.539 27.1716 280.116 29.5108 279.271 31.5748C278.449 33.6388 277.273 35.4735 275.744 37.0788C274.214 38.6841 272.398 40.1174 270.298 41.3788C268.448 42.5254 266.93 43.718 265.742 44.9563C264.578 46.1947 263.71 47.651 263.139 49.3251C262.591 50.9763 262.306 53.0174 262.283 55.4483V56.3427H250.877ZM256.837 77.8082C254.782 77.8082 253.012 77.0743 251.528 75.6066C250.044 74.1389 249.302 72.3501 249.302 70.2402C249.302 68.1762 250.044 66.4104 251.528 64.9427C253.012 63.4749 254.782 62.7411 256.837 62.7411C258.869 62.7411 260.627 63.4749 262.112 64.9427C263.619 66.4104 264.372 68.1762 264.372 70.2402C264.372 71.6392 264.018 72.912 263.31 74.0586C262.625 75.2053 261.712 76.1226 260.57 76.8106C259.451 77.4757 258.207 77.8082 256.837 77.8082Z" fill="#FF0505"/>
<path d="M115.229 65.688V65.2408C115.24 63.1653 115.434 61.5141 115.811 60.2872C116.199 59.0603 116.747 58.0742 117.455 57.3288C118.163 56.572 119.025 55.8783 120.041 55.2476C120.738 54.8119 121.36 54.336 121.908 53.82C122.467 53.2926 122.907 52.7078 123.226 52.0657C123.546 51.4121 123.706 50.6839 123.706 49.8813C123.706 48.9754 123.495 48.1899 123.072 47.5249C122.65 46.8598 122.079 46.3438 121.36 45.9769C120.652 45.61 119.858 45.4265 118.979 45.4265C118.169 45.4265 117.398 45.6042 116.667 45.9597C115.948 46.3037 115.349 46.8311 114.869 47.5421C114.401 48.2415 114.139 49.1302 114.081 50.2081H107.985C108.042 48.0294 108.567 46.2062 109.56 44.7385C110.565 43.2708 111.889 42.17 113.533 41.4361C115.189 40.7022 117.016 40.3353 119.014 40.3353C121.194 40.3353 123.112 40.7194 124.768 41.4877C126.435 42.256 127.731 43.351 128.655 44.7729C129.592 46.1833 130.06 47.8574 130.06 49.7953C130.06 51.1025 129.848 52.2721 129.426 53.304C129.015 54.336 128.427 55.2534 127.662 56.056C126.897 56.8587 125.989 57.5754 124.939 58.206C124.014 58.7794 123.255 59.3756 122.661 59.9948C122.079 60.614 121.645 61.3421 121.36 62.1792C121.086 63.0048 120.943 64.0253 120.932 65.2408V65.688H115.229ZM118.209 76.4208C117.181 76.4208 116.296 76.0538 115.554 75.32C114.812 74.5861 114.441 73.6917 114.441 72.6368C114.441 71.6048 114.812 70.7218 115.554 69.988C116.296 69.2541 117.181 68.8872 118.209 68.8872C119.225 68.8872 120.104 69.2541 120.846 69.988C121.6 70.7218 121.976 71.6048 121.976 72.6368C121.976 73.3362 121.799 73.9726 121.445 74.546C121.103 75.1193 120.646 75.5779 120.075 75.922C119.516 76.2545 118.894 76.4208 118.209 76.4208Z" fill="#FF0505"/>
<path d="M316.169 47.5249V47.0777C316.181 45.0022 316.375 43.351 316.751 42.1241C317.14 40.8972 317.688 39.911 318.396 39.1657C319.103 38.4089 319.965 37.7152 320.982 37.0845C321.678 36.6488 322.3 36.1729 322.848 35.6569C323.408 35.1295 323.847 34.5447 324.167 33.9025C324.487 33.2489 324.646 32.5208 324.646 31.7181C324.646 30.8123 324.435 30.0268 324.013 29.3618C323.59 28.6967 323.019 28.1807 322.3 27.8138C321.592 27.4468 320.799 27.2634 319.92 27.2634C319.109 27.2634 318.338 27.4411 317.608 27.7966C316.888 28.1406 316.289 28.668 315.81 29.379C315.341 30.0784 315.079 30.9671 315.022 32.0449H308.925C308.982 29.8663 309.507 28.0431 310.501 26.5754C311.505 25.1076 312.83 24.0068 314.474 23.273C316.129 22.5391 317.956 22.1722 319.954 22.1722C322.135 22.1722 324.053 22.5563 325.708 23.3246C327.375 24.0928 328.671 25.1879 329.596 26.6098C330.532 28.0202 331 29.6943 331 31.6321C331 32.9393 330.789 34.1089 330.366 35.1409C329.955 36.1729 329.367 37.0903 328.602 37.8929C327.837 38.6956 326.93 39.4122 325.879 40.0429C324.955 40.6162 324.195 41.2125 323.602 41.8317C323.019 42.4509 322.586 43.179 322.3 44.0161C322.026 44.8417 321.883 45.8622 321.872 47.0777V47.5249H316.169ZM319.149 58.2576C318.122 58.2576 317.237 57.8907 316.495 57.1568C315.753 56.423 315.381 55.5286 315.381 54.4736C315.381 53.4416 315.753 52.5587 316.495 51.8249C317.237 51.091 318.122 50.7241 319.149 50.7241C320.165 50.7241 321.044 51.091 321.786 51.8249C322.54 52.5587 322.917 53.4416 322.917 54.4736C322.917 55.1731 322.74 55.8095 322.386 56.3828C322.043 56.9562 321.587 57.4148 321.016 57.7588C320.456 58.0914 319.834 58.2576 319.149 58.2576Z" fill="#FF0505"/>
<path d="M59.9702 28.3527V27.9055C59.9817 25.83 60.1757 24.1788 60.5525 22.9519C60.9407 21.725 61.4887 20.7389 62.1966 19.9935C62.9044 19.2367 63.7664 18.543 64.7825 17.9123C65.479 17.4766 66.1012 17.0007 66.6492 16.4847C67.2087 15.9573 67.6482 15.3725 67.9679 14.7303C68.2876 14.0768 68.4474 13.3486 68.4474 12.546C68.4474 11.6401 68.2362 10.8546 67.8138 10.1896C67.3913 9.52451 66.8205 9.00851 66.1012 8.64158C65.3933 8.27464 64.5999 8.09118 63.7207 8.09118C62.9101 8.09118 62.1395 8.26891 61.4088 8.62438C60.6895 8.96837 60.0901 9.49584 59.6106 10.2068C59.1425 10.9062 58.8799 11.7949 58.8228 12.8728H52.7261C52.7832 10.6941 53.3084 8.87091 54.3017 7.40318C55.3064 5.93546 56.6307 4.83466 58.2748 4.10079C59.9303 3.36693 61.757 3 63.755 3C65.9356 3 67.8537 3.38413 69.5092 4.1524C71.1761 4.92066 72.4719 6.01572 73.3967 7.43758C74.3329 8.84798 74.801 10.5221 74.801 12.46C74.801 13.7672 74.5898 14.9367 74.1674 15.9687C73.7563 17.0007 73.1684 17.9181 72.4034 18.7207C71.6385 19.5234 70.7308 20.2401 69.6804 20.8707C68.7557 21.4441 67.9964 22.0403 67.4027 22.6595C66.8205 23.2787 66.3866 24.0068 66.1012 24.8439C65.8272 25.6695 65.6845 26.69 65.6731 27.9055V28.3527H59.9702ZM62.9501 39.0854C61.9226 39.0854 61.0377 38.7185 60.2956 37.9846C59.5535 37.2508 59.1825 36.3564 59.1825 35.3015C59.1825 34.2695 59.5535 33.3865 60.2956 32.6527C61.0377 31.9188 61.9226 31.5519 62.9501 31.5519C63.9662 31.5519 64.8453 31.9188 65.5874 32.6527C66.341 33.3865 66.7177 34.2695 66.7177 35.3015C66.7177 36.0009 66.5408 36.6373 66.1868 37.2107C65.8443 37.784 65.3876 38.2426 64.8168 38.5866C64.2573 38.9192 63.6351 39.0854 62.9501 39.0854Z" fill="#FF0505"/>
<path d="M143.1 117.205V117.066C143.104 116.417 143.164 115.901 143.282 115.518C143.403 115.134 143.575 114.826 143.796 114.593C144.017 114.357 144.286 114.14 144.604 113.943C144.821 113.807 145.016 113.658 145.187 113.497C145.362 113.332 145.499 113.149 145.599 112.948C145.699 112.744 145.749 112.517 145.749 112.266C145.749 111.983 145.683 111.737 145.551 111.529C145.419 111.322 145.241 111.16 145.016 111.046C144.795 110.931 144.547 110.874 144.272 110.874C144.019 110.874 143.778 110.929 143.55 111.04C143.325 111.148 143.137 111.313 142.988 111.535C142.841 111.753 142.759 112.031 142.741 112.368H140.836C140.854 111.687 141.018 111.117 141.329 110.659C141.643 110.2 142.056 109.856 142.57 109.627C143.088 109.397 143.658 109.283 144.283 109.283C144.964 109.283 145.564 109.403 146.081 109.643C146.602 109.883 147.007 110.225 147.296 110.669C147.588 111.11 147.735 111.633 147.735 112.239C147.735 112.647 147.669 113.013 147.537 113.335C147.408 113.658 147.224 113.945 146.985 114.195C146.746 114.446 146.463 114.67 146.134 114.867C145.845 115.046 145.608 115.233 145.423 115.426C145.241 115.62 145.105 115.847 145.016 116.109C144.93 116.367 144.886 116.686 144.882 117.066V117.205H143.1ZM144.031 120.559C143.71 120.559 143.434 120.445 143.202 120.215C142.97 119.986 142.854 119.707 142.854 119.377C142.854 119.054 142.97 118.778 143.202 118.549C143.434 118.32 143.71 118.205 144.031 118.205C144.349 118.205 144.623 118.32 144.855 118.549C145.091 118.778 145.209 119.054 145.209 119.377C145.209 119.595 145.153 119.794 145.043 119.973C144.936 120.153 144.793 120.296 144.615 120.403C144.44 120.507 144.245 120.559 144.031 120.559Z" fill="#FF0505"/>
<path d="M170.481 80.9558V80.7322C170.486 79.6945 170.583 78.8689 170.772 78.2554C170.966 77.6419 171.24 77.1489 171.594 76.7762C171.948 76.3978 172.379 76.0509 172.887 75.7356C173.235 75.5177 173.546 75.2798 173.82 75.0218C174.1 74.7581 174.32 74.4657 174.479 74.1446C174.639 73.8178 174.719 73.4538 174.719 73.0524C174.719 72.5995 174.614 72.2068 174.402 71.8742C174.191 71.5417 173.906 71.2837 173.546 71.1002C173.192 70.9168 172.795 70.825 172.356 70.825C171.951 70.825 171.565 70.9139 171.2 71.0916C170.84 71.2636 170.541 71.5274 170.301 71.8828C170.067 72.2326 169.935 72.6769 169.907 73.2158H166.859C166.887 72.1265 167.15 71.2149 167.646 70.481C168.149 69.7472 168.811 69.1968 169.633 68.8298C170.461 68.4629 171.374 68.2794 172.373 68.2794C173.463 68.2794 174.422 68.4715 175.25 68.8556C176.084 69.2398 176.731 69.7873 177.194 70.4982C177.662 71.2034 177.896 72.0405 177.896 73.0094C177.896 73.663 177.79 74.2478 177.579 74.7638C177.374 75.2798 177.08 75.7385 176.697 76.1398C176.315 76.5411 175.861 76.8995 175.336 77.2148C174.873 77.5015 174.494 77.7996 174.197 78.1092C173.906 78.4188 173.689 78.7829 173.546 79.2014C173.409 79.6142 173.338 80.1245 173.332 80.7322V80.9558H170.481ZM171.971 86.3222C171.457 86.3222 171.014 86.1387 170.643 85.7718C170.272 85.4048 170.087 84.9576 170.087 84.4302C170.087 83.9142 170.272 83.4727 170.643 83.1058C171.014 82.7389 171.457 82.5554 171.971 82.5554C172.479 82.5554 172.918 82.7389 173.289 83.1058C173.666 83.4727 173.854 83.9142 173.854 84.4302C173.854 84.7799 173.766 85.0981 173.589 85.3848C173.418 85.6714 173.189 85.9008 172.904 86.0728C172.624 86.239 172.313 86.3222 171.971 86.3222Z" fill="#FF0505"/>
<path d="M296.068 107.191V106.968C296.074 105.93 296.171 105.104 296.36 104.491C296.554 103.878 296.828 103.384 297.182 103.012C297.535 102.633 297.966 102.287 298.475 101.971C298.823 101.753 299.134 101.515 299.408 101.257C299.688 100.994 299.907 100.701 300.067 100.38C300.227 100.053 300.307 99.6894 300.307 99.288C300.307 98.8351 300.201 98.4424 299.99 98.1098C299.779 97.7773 299.493 97.5193 299.134 97.3359C298.78 97.1524 298.383 97.0607 297.944 97.0607C297.538 97.0607 297.153 97.1495 296.788 97.3273C296.428 97.4993 296.128 97.763 295.889 98.1184C295.655 98.4682 295.523 98.9125 295.495 99.4514H292.446C292.475 98.3621 292.737 97.4505 293.234 96.7167C293.736 95.9828 294.399 95.4324 295.221 95.0655C296.048 94.6985 296.962 94.5151 297.961 94.5151C299.051 94.5151 300.01 94.7071 300.838 95.0913C301.671 95.4754 302.319 96.0229 302.782 96.7338C303.25 97.439 303.484 98.2761 303.484 99.245C303.484 99.8986 303.378 100.483 303.167 100.999C302.961 101.515 302.667 101.974 302.285 102.375C301.902 102.777 301.449 103.135 300.923 103.45C300.461 103.737 300.082 104.035 299.785 104.345C299.494 104.654 299.277 105.018 299.134 105.437C298.997 105.85 298.926 106.36 298.92 106.968V107.191H296.068ZM297.558 112.558C297.045 112.558 296.602 112.374 296.231 112.007C295.86 111.64 295.674 111.193 295.674 110.666C295.674 110.15 295.86 109.708 296.231 109.341C296.602 108.974 297.045 108.791 297.558 108.791C298.066 108.791 298.506 108.974 298.877 109.341C299.254 109.708 299.442 110.15 299.442 110.666C299.442 111.016 299.354 111.334 299.177 111.62C299.005 111.907 298.777 112.136 298.492 112.308C298.212 112.475 297.901 112.558 297.558 112.558Z" fill="#FF0505"/>
</g>
</g>
<defs>
<clipPath id="clip0_98_55">
<rect width="342" height="130" fill="white"/>
</clipPath>
</defs>
</svg>
