<svg width="334" height="500" viewBox="0 0 334 500" fill="none" xmlns="http://www.w3.org/2000/svg">
<g clip-path="url(#clip0_434_13)" filter="url(#filter0_d_434_13)">
<rect width="326" height="492" transform="translate(4)" fill="#FFC1C1"/>
<path d="M212.5 309.5C337.391 309.5 438.5 396.426 438.5 503.5C438.5 610.574 337.391 697.5 212.5 697.5C87.6095 697.5 -13.5 610.574 -13.5 503.5C-13.5 396.426 87.6095 309.5 212.5 309.5Z" stroke="#FF9797"/>
<path d="M230.173 608.048C212.055 632.668 189.146 650.143 166.777 658.506C144.403 666.872 122.633 666.105 106.689 654.372C90.7448 642.638 83.5384 622.082 84.8711 598.232C86.2037 574.388 96.0745 547.319 114.193 522.698C132.311 498.077 155.22 480.603 177.589 472.239C199.963 463.874 221.733 464.641 237.677 476.374C253.621 488.107 260.828 508.664 259.495 532.513C258.162 556.358 248.292 583.427 230.173 608.048Z" stroke="#FF9797"/>
<path d="M80.9468 -59.9528C96.6065 -52.9918 105.88 -35.4105 108.094 -12.4249C110.306 10.5433 105.449 38.7932 92.9708 66.8646C80.4926 94.9361 62.7755 117.469 44.2428 131.216C25.6962 144.973 6.43128 149.869 -9.22844 142.908C-24.8882 135.947 -34.1617 118.365 -36.3756 95.3799C-38.5878 72.4116 -33.7308 44.1617 -21.2525 16.0903C-8.77425 -11.9811 8.94279 -34.5145 27.4755 -48.2613C46.0221 -62.0184 65.287 -66.9139 80.9468 -59.9528Z" stroke="#FF9797"/>
<path d="M200.5 384.5C291.187 384.5 364.5 443.027 364.5 515C364.5 586.973 291.187 645.5 200.5 645.5C109.813 645.5 36.5 586.973 36.5 515C36.5 443.027 109.813 384.5 200.5 384.5Z" stroke="#FF9797"/>
<path d="M400 -28.5C423.273 -28.5 444.387 -15.5714 459.7 5.41699C475.013 26.405 484.5 55.4241 484.5 87.5C484.5 119.576 475.013 148.595 459.7 169.583C444.387 190.571 423.273 203.5 400 203.5C376.727 203.5 355.613 190.571 340.3 169.583C324.987 148.595 315.5 119.576 315.5 87.5C315.5 55.4241 324.987 26.405 340.3 5.41699C355.613 -15.5714 376.727 -28.5 400 -28.5Z" stroke="#FF9797"/>
<path d="M397 -91.5C470.656 -91.5 530.5 -21.0652 530.5 66C530.5 153.065 470.656 223.5 397 223.5C323.344 223.5 263.5 153.065 263.5 66C263.5 -21.0652 323.344 -91.5 397 -91.5Z" stroke="#FF9797"/>
</g>
<defs>
<filter id="filter0_d_434_13" x="0" y="0" width="334" height="500" filterUnits="userSpaceOnUse" color-interpolation-filters="sRGB">
<feFlood flood-opacity="0" result="BackgroundImageFix"/>
<feColorMatrix in="SourceAlpha" type="matrix" values="0 0 0 0 0 0 0 0 0 0 0 0 0 0 0 0 0 0 127 0" result="hardAlpha"/>
<feOffset dy="4"/>
<feGaussianBlur stdDeviation="2"/>
<feComposite in2="hardAlpha" operator="out"/>
<feColorMatrix type="matrix" values="0 0 0 0 0 0 0 0 0 0 0 0 0 0 0 0 0 0 0.25 0"/>
<feBlend mode="normal" in2="BackgroundImageFix" result="effect1_dropShadow_434_13"/>
<feBlend mode="normal" in="SourceGraphic" in2="effect1_dropShadow_434_13" result="shape"/>
</filter>
<clipPath id="clip0_434_13">
<rect width="326" height="492" fill="white" transform="translate(4)"/>
</clipPath>
</defs>
</svg>
