<svg width="130" height="173" viewBox="0 0 130 173" fill="none" xmlns="http://www.w3.org/2000/svg">
<rect x="66.8661" y="123.107" width="58.1167" height="15.6228" fill="#FF0505"/>
<circle cx="31.5587" cy="17.185" r="17.185" fill="#FF0505"/>
<circle cx="89.6752" cy="17.185" r="17.185" fill="#FF0505"/>
<path d="M11.8558 138.84L10.6243 134.356H49.975L51.2589 138.84H31.5232L31.4333 171.85H25.2736V138.84H11.8558Z" fill="#FF0505"/>
<path d="M54.9422 172.057L43.7445 138.84H51.2589L58.1689 163.956H58.4916L65.1827 141.5H71.3474L78.0556 163.971H78.3613L84.6278 141.5H91.4039L81.5879 172.057H75.3723L68.4094 150.617H68.1377L61.1578 172.057H54.9422Z" fill="#FF0505"/>
<path d="M124.983 156.779C124.983 160.071 124.281 162.891 122.877 165.239C121.484 167.576 119.582 169.367 117.171 170.61C114.771 171.853 112.048 172.475 109.002 172.475C105.957 172.475 103.228 171.853 100.817 170.61C98.4163 169.357 96.5143 167.561 95.1104 165.224C93.7178 162.876 93.0215 160.061 93.0215 156.779C93.0215 153.486 93.7178 150.671 95.1104 148.334C96.5143 145.986 98.4163 144.191 100.817 142.948C103.228 141.704 105.957 141.083 109.002 141.083C112.048 141.083 114.771 141.704 117.171 142.948C119.582 144.191 121.484 145.986 122.877 148.334C124.281 150.671 124.983 153.486 124.983 156.779ZM118.648 156.779C118.648 154.461 118.235 152.507 117.409 150.915C116.593 149.314 115.461 148.105 114.012 147.289C112.563 146.464 110.893 146.051 109.002 146.051C107.111 146.051 105.441 146.464 103.992 147.289C102.543 148.105 101.405 149.314 100.579 150.915C99.7636 152.507 99.356 154.461 99.356 156.779C99.356 159.097 99.7636 161.056 100.579 162.658C101.405 164.249 102.543 165.458 103.992 166.283C105.441 167.099 107.111 167.507 109.002 167.507C110.893 167.507 112.563 167.099 114.012 166.283C115.461 165.458 116.593 164.249 117.409 162.658C118.235 161.056 118.648 159.097 118.648 156.779Z" fill="#FF0505"/>
<g filter="url(#filter0_d_54_4)">
<path d="M59.0547 137.48V120.295L41.6978 104.047C41.6978 104.047 33.1283 95.7903 27.6373 90.2994L23.8879 86.5499C23.8879 86.5499 20.6331 83.4776 19.5135 81.2382C18.5761 79.3634 17.9986 78.2927 17.6388 76.2389C17.5293 75.614 17.1572 73.1846 17.3263 71.2396C17.5437 68.7399 17.9604 67.2998 18.8885 64.9906C19.2011 64.2131 20.4029 61.9984 21.7006 60.3037C22.4185 59.3663 24.763 56.5932 27.3248 54.992C29.8245 53.4297 31.6993 52.8047 33.574 52.4923C35.1629 52.2275 36.89 52.2426 38.6448 52.4923C40.1356 52.7045 40.9361 52.9676 42.3227 53.4297C45.1348 54.367 52.4932 57.8041 52.4932 57.8041L58.1174 46.5557C58.1174 46.5557 56.0711 44.9934 46.0725 41.5564C42.3351 40.2717 40.4483 39.9942 36.0736 39.9941C32.6029 39.9941 30.6366 40.2046 27.3252 41.2439C23.9914 42.2903 22.3259 43.2283 19.201 45.3059C14.9713 48.1179 12.0149 52.1798 10.4526 54.367C8.89038 56.5542 7.95298 58.4289 7.95298 58.4289C4.2035 65.6154 4.87205 73.7392 5.45301 77.8012C5.76584 79.9883 7.01531 83.7378 7.01531 83.7378C7.01531 83.7378 7.95267 87.7997 13.2644 93.424L29.512 109.672L59.0547 137.48Z" fill="#FF0505"/>
<path d="M59.0547 137.48V120.295L41.6978 104.047C41.6978 104.047 33.1283 95.7903 27.6373 90.2994L23.8879 86.5499C23.8879 86.5499 20.6331 83.4776 19.5135 81.2382C18.5761 79.3634 17.9986 78.2927 17.6388 76.2389C17.5293 75.614 17.1572 73.1846 17.3263 71.2396C17.5437 68.7399 17.9604 67.2998 18.8885 64.9906C19.2011 64.2131 20.4029 61.9984 21.7006 60.3037C22.4185 59.3663 24.763 56.5932 27.3248 54.992C29.8245 53.4297 31.6993 52.8047 33.574 52.4923C35.1629 52.2275 36.89 52.2426 38.6448 52.4923C40.1356 52.7045 40.9361 52.9676 42.3227 53.4297C45.1348 54.367 52.4932 57.8041 52.4932 57.8041L58.1174 46.5557C58.1174 46.5557 56.0711 44.9934 46.0725 41.5564C42.3351 40.2717 40.4483 39.9942 36.0736 39.9941C32.6029 39.9941 30.6366 40.2046 27.3252 41.2439C23.9914 42.2903 22.3259 43.2283 19.201 45.3059C14.9713 48.1179 12.0149 52.1798 10.4526 54.367C8.89038 56.5542 7.95298 58.4289 7.95298 58.4289C4.2035 65.6154 4.87205 73.7392 5.45301 77.8012C5.76584 79.9883 7.01531 83.7378 7.01531 83.7378C7.01531 83.7378 7.95267 87.7997 13.2644 93.424L29.512 109.672L59.0547 137.48Z" stroke="#FF0505"/>
</g>
<g filter="url(#filter1_d_54_4)">
<path d="M54.993 77.1763H67.0372C67.0372 77.1763 67.1787 74.9891 67.4912 72.177C67.7352 69.9811 68.1161 68.1151 68.741 65.6151C69.3764 63.0734 70.2513 61.742 71.8656 59.6785C73.8969 57.0818 75.5121 55.9068 78.4271 54.3668C81.6728 52.652 83.8262 52.1199 87.4883 51.8671C91.1726 51.6128 95.2997 52.319 96.862 52.8048C97.6883 53.0617 102.221 54.9575 104.986 57.1789C107.485 59.1868 108.803 60.3037 110.61 64.0529C111.972 66.8789 112.408 68.728 112.485 71.8643C112.523 73.4265 112.485 77.4887 110.61 80.613C108.897 83.4672 106.921 85.2455 103.877 87.9852L103.736 88.1119C96.5485 94.5806 85.3011 104.984 85.3011 104.984L67.1787 119.983V137.48L89.988 117.795L105.298 103.422C105.298 103.422 112.797 96.8609 117.172 92.1738C119.989 89.1553 121.539 87.2443 123.108 83.4251C124.846 79.1944 125.075 76.4371 124.983 71.8643C124.92 68.74 124.31 64.3633 122.483 59.991C120.553 55.3692 118.915 52.8312 115.297 49.3675C112.045 46.2545 109.7 45.0011 105.611 43.1184C101.861 41.3919 95.6121 39.21 88.4257 39.3689C83.0664 39.4874 77.8022 40.775 74.9901 42.181C69.0535 45.1493 63.835 48.3953 59.6798 54.9917C55.0239 62.3829 54.993 77.1763 54.993 77.1763Z" fill="#FF0505"/>
<path d="M54.993 77.1763H67.0372C67.0372 77.1763 67.1787 74.9891 67.4912 72.177C67.7352 69.9811 68.1161 68.1151 68.741 65.6151C69.3764 63.0734 70.2513 61.742 71.8656 59.6785C73.8969 57.0818 75.5121 55.9068 78.4271 54.3668C81.6728 52.652 83.8262 52.1199 87.4883 51.8671C91.1726 51.6128 95.2997 52.319 96.862 52.8048C97.6883 53.0617 102.221 54.9575 104.986 57.1789C107.485 59.1868 108.803 60.3037 110.61 64.0529C111.972 66.8789 112.408 68.728 112.485 71.8643C112.523 73.4265 112.485 77.4887 110.61 80.613C108.897 83.4672 106.921 85.2455 103.877 87.9852L103.736 88.1119C96.5485 94.5806 85.3011 104.984 85.3011 104.984L67.1787 119.983V137.48L89.988 117.795L105.298 103.422C105.298 103.422 112.797 96.8609 117.172 92.1738C119.989 89.1553 121.539 87.2443 123.108 83.4251C124.846 79.1944 125.075 76.4371 124.983 71.8643C124.92 68.74 124.31 64.3633 122.483 59.991C120.553 55.3692 118.915 52.8312 115.297 49.3675C112.045 46.2545 109.7 45.0011 105.611 43.1184C101.861 41.3919 95.6121 39.21 88.4257 39.3689C83.0664 39.4874 77.8022 40.775 74.9901 42.181C69.0535 45.1493 63.835 48.3953 59.6798 54.9917C55.0239 62.3829 54.993 77.1763 54.993 77.1763Z" stroke="#FF0505"/>
</g>
<defs>
<filter id="filter0_d_54_4" x="0.499939" y="39.4941" width="63.0548" height="107.143" filterUnits="userSpaceOnUse" color-interpolation-filters="sRGB">
<feFlood flood-opacity="0" result="BackgroundImageFix"/>
<feColorMatrix in="SourceAlpha" type="matrix" values="0 0 0 0 0 0 0 0 0 0 0 0 0 0 0 0 0 0 127 0" result="hardAlpha"/>
<feOffset dy="4"/>
<feGaussianBlur stdDeviation="2"/>
<feComposite in2="hardAlpha" operator="out"/>
<feColorMatrix type="matrix" values="0 0 0 0 0 0 0 0 0 0 0 0 0 0 0 0 0 0 0.25 0"/>
<feBlend mode="normal" in2="BackgroundImageFix" result="effect1_dropShadow_54_4"/>
<feBlend mode="normal" in="SourceGraphic" in2="effect1_dropShadow_54_4" result="shape"/>
</filter>
<filter id="filter1_d_54_4" x="50.4919" y="38.8607" width="79.0081" height="107.711" filterUnits="userSpaceOnUse" color-interpolation-filters="sRGB">
<feFlood flood-opacity="0" result="BackgroundImageFix"/>
<feColorMatrix in="SourceAlpha" type="matrix" values="0 0 0 0 0 0 0 0 0 0 0 0 0 0 0 0 0 0 127 0" result="hardAlpha"/>
<feOffset dy="4"/>
<feGaussianBlur stdDeviation="2"/>
<feComposite in2="hardAlpha" operator="out"/>
<feColorMatrix type="matrix" values="0 0 0 0 0 0 0 0 0 0 0 0 0 0 0 0 0 0 0.25 0"/>
<feBlend mode="normal" in2="BackgroundImageFix" result="effect1_dropShadow_54_4"/>
<feBlend mode="normal" in="SourceGraphic" in2="effect1_dropShadow_54_4" result="shape"/>
</filter>
</defs>
</svg>
