<svg width="362" height="202" viewBox="0 0 362 202" fill="none" xmlns="http://www.w3.org/2000/svg">
<g clip-path="url(#clip0_451_87)">
<rect width="362" height="202" fill="#FFC1C1"/>
<path opacity="0.5" d="M70.4998 228.5C165.5 168 203.5 103.5 137 124.5C70.4998 145.5 86.4998 144.5 42.4998 159C7.29977 170.6 90.8331 106.833 137 73.5C152.666 59.1667 165.1 34.2 89.4997 49C13.8997 63.8 9.99974 21.5 17.4997 -1.5" stroke="#FFDDDD" stroke-width="16"/>
<path d="M303.92 136.709L297.179 142.067" stroke="#F8FAEB" stroke-width="2" stroke-linecap="round"/>
<path d="M317.05 126.27L309.866 131.981" stroke="#F8FAEB" stroke-width="2" stroke-linecap="round"/>
<path d="M303.576 121.818L292.732 136.463" stroke="#F8FAEB" stroke-width="2" stroke-linecap="round"/>
<path d="M289.632 124.822L287.588 130.005" stroke="#F8FAEB" stroke-width="2" stroke-linecap="round"/>
<path d="M295.385 110.229L292.429 117.727" stroke="#F8FAEB" stroke-width="2" stroke-linecap="round"/>
<path d="M281.632 111.865L280.569 121.171" stroke="#F8FAEB" stroke-width="5.66929" stroke-linecap="round"/>
<path d="M318.349 140.401L301.636 147.663" stroke="#F8FAEB" stroke-width="2" stroke-linecap="round"/>
<path d="M312.278 153.308L306.767 154.131" stroke="#F8FAEB" stroke-width="2" stroke-linecap="round"/>
<path d="M327.792 150.994L319.814 152.185" stroke="#F8FAEB" stroke-width="2" stroke-linecap="round"/>
<path d="M323.097 164.025L313.791 162.962" stroke="#F8FAEB" stroke-width="2" stroke-linecap="round"/>
<path d="M278.266 139.575L273.362 142.023C270.813 143.295 269.088 145.779 268.784 148.611L268.544 150.84C268.313 152.996 267.22 154.968 265.514 156.307L258.206 162.043L268.665 175.369L275.843 169.736C276.937 168.878 278.194 168.264 279.524 167.861C282.787 166.87 285.843 165.281 288.534 163.168L293.845 159L278.266 139.575Z" fill="#F69669"/>
<path d="M288.534 163.168L293.811 159.026C293.815 159.003 293.817 158.988 293.821 158.964L284.135 144.469C282.798 144.216 281.313 144.404 279.937 145.103C276.925 146.635 275.579 150.032 276.93 152.689L278.113 155.016C279.895 158.52 282.957 161.203 286.664 162.509L288.534 163.168Z" fill="#F57659"/>
<path d="M296.187 165.1C290.128 157.866 286.028 152.391 279.789 137.556L273.459 140.182C279.558 155.095 280.508 161.851 281.344 171.256L296.187 165.1Z" fill="#F68522"/>
<path d="M294.159 74.7613C289.4 71.993 283.757 71.6159 278.674 73.7242C278.669 73.7262 278.663 73.7287 278.657 73.7311L229.054 94.3045C229.048 94.3068 229.043 94.3089 229.038 94.3112C223.953 96.42 220.233 100.681 218.83 106.005C217.426 111.334 218.566 116.881 221.96 121.224C225.056 125.187 229.685 127.648 234.66 127.977L250.386 129.016C252.632 129.165 254.345 131.113 254.205 133.36C254.137 134.453 253.647 135.454 252.826 136.178C252.004 136.902 250.95 137.264 249.857 137.194C248.602 137.116 247.519 138.068 247.44 139.324C247.36 140.58 248.314 141.662 249.57 141.742C250.91 141.826 252.221 141.605 253.425 141.105C254.296 140.744 255.112 140.237 255.839 139.595C257.574 138.065 258.609 135.951 258.753 133.643C259.048 128.898 255.429 124.783 250.686 124.47L234.96 123.43C231.278 123.187 227.848 121.36 225.55 118.419C223.041 115.207 222.198 111.106 223.236 107.165C224.273 103.229 227.024 100.079 230.785 98.5191C230.789 98.5174 230.793 98.5157 230.797 98.5141L280.406 77.9383C280.41 77.9366 280.414 77.935 280.418 77.9334C284.177 76.374 288.35 76.653 291.869 78.6993C295.391 80.7485 297.698 84.2427 298.199 88.2877C298.657 91.9918 297.527 95.7096 295.097 98.4875L284.724 110.352C281.595 113.931 281.951 119.399 285.518 122.542C287.254 124.071 289.481 124.832 291.789 124.685C292.758 124.623 293.692 124.405 294.563 124.043C295.767 123.544 296.851 122.772 297.737 121.764C298.568 120.819 298.475 119.379 297.531 118.549C296.587 117.717 295.147 117.811 294.316 118.755C293.592 119.578 292.591 120.068 291.499 120.138C290.406 120.207 289.352 119.847 288.53 119.123C286.841 117.635 286.672 115.046 288.154 113.351L298.528 101.487C301.81 97.7336 303.338 92.7184 302.721 87.7281C302.044 82.258 298.924 77.5323 294.159 74.7613Z" fill="#F9A82D"/>
<path d="M284.724 110.352C281.595 113.931 281.951 119.399 285.518 122.542C286.44 123.354 287.503 123.942 288.641 124.3C288.828 122.73 288.973 121.136 289.065 119.518C288.878 119.401 288.699 119.271 288.53 119.123C286.841 117.635 286.672 115.046 288.154 113.351L289.172 112.187C289.114 110.056 288.985 107.897 288.78 105.714L284.724 110.352Z" fill="#F68522"/>
<path d="M250.686 124.469L244.542 124.063C245.941 125.751 247.378 127.368 248.846 128.914L250.386 129.016C252.632 129.165 254.345 131.113 254.205 133.36C254.191 133.583 254.155 133.801 254.107 134.015C255.318 135.093 256.548 136.117 257.791 137.094C258.342 136.036 258.676 134.869 258.753 133.643C259.048 128.898 255.429 124.783 250.686 124.469Z" fill="#F68522"/>
<path d="M280.418 77.9334C281.039 77.6758 281.671 77.4734 282.31 77.3157C281.798 75.884 281.255 74.4549 280.688 73.0281C280.01 73.2186 279.337 73.4492 278.674 73.7242C278.669 73.7263 278.663 73.7287 278.657 73.7311L229.054 94.3045C229.048 94.3068 229.043 94.3089 229.038 94.3112C228.375 94.5861 227.737 94.8992 227.123 95.245C227.732 96.6539 228.36 98.0479 229.012 99.4216C229.574 99.081 230.164 98.7764 230.785 98.5191C230.789 98.5175 230.793 98.5157 230.797 98.5141L280.406 77.9383C280.41 77.9366 280.414 77.935 280.418 77.9334Z" fill="#F68522"/>
<path d="M284.717 129.622C288.031 113.748 285.724 93.0262 277.15 72.3527L229.144 92.2635C237.718 112.937 250.754 129.209 264.332 138.077C272.189 143.209 282.798 138.809 284.717 129.622Z" fill="#F9A82D"/>
<path d="M233.882 90.2982C241.036 107.562 251.47 122.001 263.51 131.211C264.348 131.853 265.427 131.957 266.336 131.58C266.783 131.394 267.189 131.092 267.505 130.68C268.461 129.43 268.223 127.641 266.973 126.685C255.717 118.074 245.917 104.463 239.146 88.115L233.882 90.2982Z" fill="#EFDDF1"/>
<path d="M297.883 164.397L279.649 171.959C277.257 172.951 276.122 175.695 277.115 178.088L304.012 166.932C303.019 164.539 300.276 163.404 297.883 164.397Z" fill="#F9A82D"/>
<path d="M314.863 182.096L280.202 196.472L273.243 179.694L307.904 165.318L314.863 182.096Z" fill="#2D2D2D"/>
<path d="M303.66 167.078L290.276 172.629L280.456 196.367L293.84 190.816L303.66 167.078Z" fill="#5D5D5D"/>
<path d="M284.091 175.195L277.743 190.541L279.433 194.618L288.168 173.504L284.091 175.195Z" fill="#5D5D5D"/>
<path d="M309.175 168.382L301.149 187.785L307.051 185.337L311.623 174.284L309.175 168.382Z" fill="#5D5D5D"/>
<path d="M282.866 170.625L279.649 171.959C277.257 172.951 276.122 175.695 277.115 178.088L304.012 166.932C303.019 164.539 300.276 163.404 297.883 164.397L282.866 170.625Z" fill="#F9A82D"/>
<path d="M270.52 103.99C268.881 100.04 264.352 98.1659 260.402 99.8041C256.453 101.442 254.579 105.972 256.217 109.922C257.855 113.871 262.385 115.745 266.334 114.107C270.284 112.469 272.158 107.939 270.52 103.99Z" stroke="#F68522" stroke-width="7.064" stroke-linecap="round"/>
<path d="M234.546 99.7236L278.269 81.5892" stroke="#F68522" stroke-width="7.064" stroke-linecap="round"/>
<path d="M236.938 104.169L279.725 86.4224" stroke="#F68522" stroke-width="7.064" stroke-linecap="round"/>
<path d="M236.417 98.9478L244.132 95.7476" stroke="#F9A82D" stroke-width="7.064" stroke-linecap="round"/>
<path d="M238.808 103.393L246.524 100.193" stroke="#F9A82D" stroke-width="7.064" stroke-linecap="round"/>
<path d="M303.455 173.968L282.477 182.668L285.891 190.9L306.869 182.199L303.455 173.968Z" fill="#2D2D2D"/>
<rect width="22.7103" height="7.31923" transform="matrix(0.923701 -0.383113 -0.383113 -0.923701 285.256 189.367)" fill="#F9A82D"/>
<path d="M287.283 182.487L286.919 182.001L291.371 180.16L291.741 180.644L289.508 181.567L291.152 185.573L290.456 185.861L288.801 181.86L287.283 182.487Z" fill="white"/>
<path d="M293.822 184.498L290.918 180.984L291.741 180.644L293.781 183.365L293.818 183.35L293.449 180.315L294.147 180.027L296.032 182.436L296.066 182.422L295.649 179.405L296.416 179.088L296.837 183.251L296.134 183.542L294.271 181.269L294.24 181.282L294.526 184.207L293.822 184.498Z" fill="white"/>
<path d="M300.98 179.369C301.145 179.768 301.207 180.143 301.166 180.493C301.126 180.842 301 181.148 300.79 181.411C300.581 181.674 300.304 181.877 299.959 182.019C299.615 182.162 299.275 182.214 298.94 182.176C298.605 182.137 298.3 182.008 298.024 181.79C297.749 181.571 297.529 181.262 297.364 180.864C297.199 180.465 297.137 180.092 297.177 179.743C297.219 179.393 297.344 179.086 297.553 178.823C297.763 178.56 298.041 178.357 298.385 178.214C298.73 178.072 299.069 178.02 299.403 178.058C299.738 178.096 300.043 178.225 300.319 178.444C300.595 178.662 300.815 178.97 300.98 179.369ZM300.264 179.666C300.147 179.385 300.003 179.167 299.829 179.013C299.657 178.857 299.468 178.763 299.263 178.732C299.058 178.7 298.848 178.728 298.635 178.816C298.421 178.905 298.252 179.033 298.13 179.201C298.007 179.368 297.939 179.567 297.925 179.8C297.913 180.031 297.965 180.287 298.081 180.568C298.197 180.849 298.342 181.067 298.514 181.223C298.687 181.378 298.877 181.471 299.082 181.503C299.287 181.534 299.496 181.506 299.71 181.417C299.924 181.329 300.092 181.201 300.215 181.034C300.338 180.867 300.406 180.667 300.418 180.436C300.431 180.203 300.38 179.946 300.264 179.666Z" fill="white"/>
<path d="M280.272 175.554C279.758 174.315 280.346 172.894 281.585 172.38L285.121 170.914C286.36 170.4 287.781 170.988 288.295 172.227L280.272 175.554Z" fill="#EFDDF1"/>
<path d="M293.845 159L281.948 141.196L279.503 143.115C279.363 143.809 279.444 144.553 279.789 145.232C279.886 145.421 280.001 145.602 280.132 145.768C280.483 146.216 280.935 146.549 281.434 146.757C280.824 147.161 280.37 147.752 280.14 148.458C279.87 149.285 279.939 150.168 280.333 150.943C280.43 151.133 280.545 151.314 280.676 151.48C281.21 152.16 281.975 152.577 282.787 152.69C282.303 153.597 282.252 154.717 282.752 155.701C282.849 155.891 282.964 156.072 283.095 156.238C283.629 156.918 284.394 157.334 285.206 157.448C284.722 158.355 284.672 159.475 285.172 160.459C285.268 160.649 285.384 160.83 285.514 160.996C286.47 162.214 288.168 162.589 289.55 161.885L291.307 160.992L293.845 159Z" fill="#F68522"/>
<path d="M289.966 149.039L284.445 151.846C283.131 152.514 282.607 154.121 283.276 155.435C283.944 156.749 285.55 157.272 286.864 156.604L292.385 153.796C293.699 153.129 294.223 151.522 293.555 150.208C292.886 148.894 291.28 148.37 289.966 149.039Z" fill="#F69669"/>
<path d="M290.953 154.525L286.864 156.604C285.55 157.272 285.027 158.879 285.695 160.193C286.363 161.506 287.97 162.03 289.283 161.362L293.372 159.283C294.686 158.614 295.21 157.008 294.542 155.694C293.874 154.38 292.267 153.857 290.953 154.525Z" fill="#F69669"/>
<path d="M286.559 138.795L281.482 141.377C280.168 142.045 279.645 143.652 280.313 144.965C280.981 146.279 282.587 146.803 283.901 146.135L288.979 143.553C290.293 142.885 290.817 141.278 290.148 139.964C289.48 138.65 287.873 138.127 286.559 138.795Z" fill="#F69669"/>
<path d="M288.979 143.552L282.026 147.088C280.712 147.756 280.188 149.363 280.856 150.677C281.525 151.991 283.131 152.514 284.445 151.846L291.398 148.31C292.712 147.642 293.236 146.036 292.567 144.722C291.9 143.408 290.293 142.884 288.979 143.552Z" fill="#F69669"/>
<path d="M290.139 154.305L285.324 156.754C285.047 156.895 284.936 157.235 285.077 157.512C285.094 157.546 285.113 157.577 285.136 157.605L285.136 157.606C285.293 157.805 285.565 157.874 285.797 157.778C285.81 157.773 285.823 157.767 285.836 157.76L290.65 155.312C290.785 155.244 290.885 155.127 290.932 154.983C290.979 154.839 290.967 154.687 290.899 154.553C290.83 154.418 290.714 154.318 290.571 154.271C290.427 154.225 290.278 154.236 290.139 154.305Z" fill="#F68522"/>
<path d="M288.787 149.012L282.958 151.976C282.681 152.118 282.57 152.458 282.711 152.735C282.728 152.769 282.747 152.799 282.77 152.828L282.77 152.828C282.927 153.028 283.199 153.097 283.431 153.001C283.444 152.995 283.457 152.989 283.47 152.983L289.299 150.019C289.433 149.951 289.533 149.834 289.58 149.69C289.627 149.547 289.615 149.394 289.547 149.26C289.479 149.125 289.362 149.026 289.219 148.979C289.075 148.932 288.919 148.944 288.787 149.012Z" fill="#F68522"/>
<path d="M288.182 143.525C288.039 143.479 287.89 143.49 287.752 143.558L281.288 146.846C281.01 146.987 280.899 147.327 281.04 147.604C281.057 147.638 281.077 147.668 281.099 147.697L281.1 147.698C281.256 147.897 281.528 147.966 281.76 147.87C281.774 147.865 281.786 147.858 281.799 147.852L288.264 144.565C288.398 144.497 288.498 144.38 288.545 144.237C288.592 144.093 288.579 143.94 288.512 143.807C288.443 143.671 288.326 143.571 288.182 143.525Z" fill="#F68522"/>
<path d="M280.307 141.968L269.699 150.294L276.42 162.545L276.782 162.329C279.017 160.992 280.569 158.767 281.04 156.224C281.512 153.677 280.868 151.051 279.274 149.019L278.755 148.358L278.976 148.184C280.919 150.403 284.294 150.742 286.647 148.906C287.079 148.568 287.355 148.08 287.422 147.534C287.487 146.991 287.338 146.455 287.002 146.026L282.822 140.701L280.307 141.968Z" fill="#F68522"/>
<path d="M278.493 149.633L277.36 148.19L279.138 146.794L279.564 147.336C281.137 149.341 284.038 149.69 286.042 148.117C286.499 147.759 286.579 147.097 286.22 146.64L281.191 140.232C280.496 139.346 279.274 139.072 278.266 139.575L273.362 142.023C270.813 143.295 269.088 145.778 268.784 148.611L268.183 154.212L274.835 162.688L277.137 160.882C280.618 158.15 281.225 153.113 278.493 149.633Z" fill="#F69669"/>
<path d="M278.99 146.626C278.451 145.938 278.134 145.116 278.075 144.247C278.054 143.947 277.801 143.72 277.499 143.728C277.345 143.733 277.203 143.798 277.099 143.912C276.996 144.026 276.942 144.18 276.953 144.336C277.028 145.428 277.425 146.461 278.102 147.323L278.848 148.273L279.736 147.576L278.99 146.626Z" fill="#F68522"/>
<path d="M258.206 162.043L268.665 175.369L276.791 168.992L264.203 157.336L258.206 162.043Z" fill="#F57659"/>
<path d="M258.921 160.157L270.667 175.123L274.433 172.167L262.687 157.201L258.921 160.157Z" fill="#F4FAE7"/>
<path d="M256.256 159.967L195.556 202.223L204.781 224.466L269.946 179.102C271.18 178.242 271.517 176.813 270.698 175.909L256.256 159.967Z" fill="#2D2D2D"/>
<path d="M268.826 177.971C268.089 178.55 267.024 178.421 266.445 177.684C265.867 176.947 265.995 175.881 266.732 175.303C267.469 174.725 268.535 174.853 269.113 175.59C269.692 176.327 269.563 177.393 268.826 177.971Z" fill="white"/>
<path d="M265.02 180.959C264.284 181.537 263.217 181.408 262.639 180.672C262.061 179.935 262.189 178.869 262.926 178.29C263.663 177.712 264.729 177.841 265.307 178.577C265.885 179.314 265.757 180.38 265.02 180.959Z" fill="white"/>
<path d="M261.214 183.946C260.477 184.524 259.411 184.396 258.833 183.659C258.255 182.922 258.383 181.856 259.12 181.278C259.857 180.7 260.923 180.828 261.501 181.565C262.079 182.302 261.951 183.368 261.214 183.946Z" fill="white"/>
<path d="M282.094 92.1892L283.917 93.5868" stroke="#F4FAE7" stroke-width="3" stroke-linecap="round" stroke-linejoin="round"/>
<path d="M286.406 95.4949L288.229 96.8925" stroke="#F4FAE7" stroke-width="3" stroke-linecap="round" stroke-linejoin="round"/>
<path d="M281.592 96.022L283.713 95.1421" stroke="#F4FAE7" stroke-width="3" stroke-linecap="round" stroke-linejoin="round"/>
<path d="M286.61 93.9404L288.732 93.0604" stroke="#F4FAE7" stroke-width="3" stroke-linecap="round" stroke-linejoin="round"/>
<path d="M284.659 98.3735L284.958 96.0958" stroke="#F4FAE7" stroke-width="3" stroke-linecap="round" stroke-linejoin="round"/>
<path d="M285.365 92.9863L285.664 90.7086" stroke="#F4FAE7" stroke-width="3" stroke-linecap="round" stroke-linejoin="round"/>
<path d="M239.507 150.64L241.33 152.038" stroke="#F4FAE7" stroke-linecap="round" stroke-linejoin="round"/>
<path d="M243.82 153.946L245.643 155.343" stroke="#F4FAE7" stroke-linecap="round" stroke-linejoin="round"/>
<path d="M239.004 154.473L241.126 153.593" stroke="#F4FAE7" stroke-linecap="round" stroke-linejoin="round"/>
<path d="M244.023 152.391L246.146 151.511" stroke="#F4FAE7" stroke-linecap="round" stroke-linejoin="round"/>
<path d="M242.072 156.824L242.371 154.547" stroke="#F4FAE7" stroke-linecap="round" stroke-linejoin="round"/>
<path d="M242.779 151.437L243.078 149.159" stroke="#F4FAE7" stroke-linecap="round" stroke-linejoin="round"/>
<path d="M242.151 135.444L239.511 136.539" stroke="#F4FAE7" stroke-linecap="round" stroke-linejoin="round"/>
<path d="M240.283 134.672L241.379 137.312" stroke="#F4FAE7" stroke-linecap="round" stroke-linejoin="round"/>
<path d="M308.553 172.552L305.913 173.647" stroke="#F4FAE7" stroke-linecap="round" stroke-linejoin="round"/>
<path d="M306.686 171.78L307.781 174.42" stroke="#F4FAE7" stroke-linecap="round" stroke-linejoin="round"/>
<path d="M238.06 83.1095L235.419 82.0172" stroke="#F4FAE7" stroke-width="1.5" stroke-linecap="round" stroke-linejoin="round"/>
<path d="M237.285 81.2425L236.193 83.8838" stroke="#F4FAE7" stroke-width="1.5" stroke-linecap="round" stroke-linejoin="round"/>
<path d="M279.475 67.1433C279.832 68.0026 280.817 68.4105 281.676 68.054C282.535 67.6978 282.943 66.7123 282.586 65.8529C282.23 64.9939 281.245 64.5863 280.386 64.9425C279.526 65.299 279.119 66.2843 279.475 67.1433Z" stroke="#F4FAE7" stroke-width="2" stroke-linecap="round" stroke-linejoin="round"/>
<path d="M259.236 147.461C259.593 148.32 260.578 148.728 261.437 148.371C262.296 148.015 262.704 147.03 262.347 146.171C261.991 145.311 261.006 144.904 260.147 145.26C259.288 145.617 258.88 146.602 259.236 147.461Z" stroke="#F4FAE7" stroke-linecap="round" stroke-linejoin="round"/>
<path d="M304.295 107.884L305.33 108.996C305.83 109.534 306.539 109.827 307.272 109.8L308.79 109.743L307.678 110.778C307.141 111.278 306.847 111.987 306.874 112.721L306.931 114.239L305.896 113.126C305.396 112.589 304.687 112.296 303.954 112.323L302.435 112.379L303.548 111.345C304.085 110.845 304.379 110.136 304.352 109.402L304.295 107.884Z" stroke="#F4FAE7" stroke-linecap="round" stroke-linejoin="round"/>
<path d="M228.812 107.467L229.846 108.58C230.346 109.117 231.056 109.41 231.789 109.383L233.307 109.327L232.195 110.361C231.657 110.861 231.364 111.57 231.391 112.304L231.448 113.822L230.413 112.71C229.913 112.172 229.204 111.879 228.47 111.906L226.952 111.963L228.065 110.928C228.602 110.428 228.896 109.719 228.869 108.985L228.812 107.467Z" stroke="#F4FAE7" stroke-linecap="round" stroke-linejoin="round"/>
</g>
<defs>
<clipPath id="clip0_451_87">
<rect width="362" height="202" fill="white"/>
</clipPath>
</defs>
</svg>
