<svg width="48" height="77" viewBox="0 0 48 77" fill="none" xmlns="http://www.w3.org/2000/svg">
<line y1="71.5" x2="48" y2="71.5" stroke="#4F0000"/>
<g clip-path="url(#clip0_338_2)">
<path d="M12.5 30C12.5 30 16.5 22 23.5 22C30.5 22 34.5 30 34.5 30C34.5 30 30.5 38 23.5 38C16.5 38 12.5 30 12.5 30Z" stroke="#2D2D2D" stroke-width="2" stroke-linecap="round" stroke-linejoin="round"/>
<path d="M23.5 33C25.1569 33 26.5 31.6569 26.5 30C26.5 28.3431 25.1569 27 23.5 27C21.8431 27 20.5 28.3431 20.5 30C20.5 31.6569 21.8431 33 23.5 33Z" stroke="#2D2D2D" stroke-width="2" stroke-linecap="round" stroke-linejoin="round"/>
</g>
<path d="M0.880682 49.7273H1.93182L4.40341 55.7642H4.48864L6.96023 49.7273H8.01136V57H7.1875V51.4744H7.11648L4.84375 57H4.0483L1.77557 51.4744H1.70455V57H0.880682V49.7273ZM11.9505 57.1136C11.4249 57.1136 10.9715 56.9976 10.5904 56.7656C10.2116 56.5312 9.91921 56.2045 9.71325 55.7855C9.50965 55.3641 9.40785 54.8741 9.40785 54.3153C9.40785 53.7566 9.50965 53.2642 9.71325 52.8381C9.91921 52.4096 10.2057 52.0758 10.5726 51.8366C10.9419 51.5952 11.3728 51.4744 11.8652 51.4744C12.1493 51.4744 12.4299 51.5218 12.7069 51.6165C12.9838 51.7112 13.236 51.8651 13.4632 52.0781C13.6905 52.2888 13.8716 52.5682 14.0066 52.9162C14.1415 53.2642 14.209 53.6927 14.209 54.2017V54.5568H10.0044V53.8324H13.3567C13.3567 53.5246 13.2952 53.25 13.1721 53.0085C13.0513 52.767 12.8785 52.5765 12.6536 52.4368C12.431 52.2971 12.1683 52.2273 11.8652 52.2273C11.5314 52.2273 11.2426 52.3101 10.9988 52.4759C10.7573 52.6392 10.5714 52.8523 10.4412 53.1151C10.311 53.3778 10.2459 53.6596 10.2459 53.9602V54.4432C10.2459 54.8551 10.3169 55.2043 10.459 55.4908C10.6034 55.7749 10.8034 55.9915 11.0591 56.1406C11.3148 56.2874 11.6119 56.3608 11.9505 56.3608C12.1706 56.3608 12.3695 56.33 12.5471 56.2685C12.727 56.2045 12.882 56.1098 13.0123 55.9844C13.1425 55.8565 13.2431 55.6979 13.3141 55.5085L14.1238 55.7358C14.0385 56.0104 13.8953 56.2519 13.6941 56.4602C13.4928 56.6662 13.2443 56.8272 12.9483 56.9432C12.6524 57.0568 12.3198 57.1136 11.9505 57.1136ZM15.4838 57V51.5455H16.2935V52.3977H16.3645C16.4782 52.1065 16.6616 51.8804 16.915 51.7195C17.1683 51.5561 17.4725 51.4744 17.8276 51.4744C18.1874 51.4744 18.4869 51.5561 18.726 51.7195C18.9675 51.8804 19.1557 52.1065 19.2907 52.3977H19.3475C19.4872 52.116 19.6967 51.8923 19.976 51.7266C20.2554 51.5585 20.5904 51.4744 20.981 51.4744C21.4687 51.4744 21.8676 51.6271 22.1777 51.9325C22.4879 52.2356 22.6429 52.7079 22.6429 53.3494V57H21.8049V53.3494C21.8049 52.947 21.6948 52.6593 21.4746 52.4865C21.2544 52.3137 20.9952 52.2273 20.6969 52.2273C20.3134 52.2273 20.0163 52.3433 19.8056 52.5753C19.5949 52.8049 19.4895 53.0961 19.4895 53.4489V57H18.6373V53.2642C18.6373 52.9541 18.5366 52.7043 18.3354 52.5149C18.1342 52.3232 17.8749 52.2273 17.5577 52.2273C17.3399 52.2273 17.1363 52.2853 16.9469 52.4013C16.7599 52.5173 16.6084 52.6783 16.4924 52.8842C16.3787 53.0878 16.3219 53.3234 16.3219 53.5909V57H15.4838ZM26.3912 57.1136C25.8987 57.1136 25.4667 56.9964 25.095 56.7621C24.7257 56.5277 24.4368 56.1998 24.2285 55.7784C24.0225 55.357 23.9196 54.8646 23.9196 54.3011C23.9196 53.733 24.0225 53.237 24.2285 52.8132C24.4368 52.3894 24.7257 52.0604 25.095 51.826C25.4667 51.5916 25.8987 51.4744 26.3912 51.4744C26.8836 51.4744 27.3145 51.5916 27.6838 51.826C28.0555 52.0604 28.3443 52.3894 28.5502 52.8132C28.7586 53.237 28.8627 53.733 28.8627 54.3011C28.8627 54.8646 28.7586 55.357 28.5502 55.7784C28.3443 56.1998 28.0555 56.5277 27.6838 56.7621C27.3145 56.9964 26.8836 57.1136 26.3912 57.1136ZM26.3912 56.3608C26.7652 56.3608 27.073 56.2649 27.3145 56.0732C27.5559 55.8814 27.7347 55.6293 27.8507 55.3168C27.9667 55.0043 28.0247 54.6657 28.0247 54.3011C28.0247 53.9366 27.9667 53.5968 27.8507 53.282C27.7347 52.9671 27.5559 52.7126 27.3145 52.5185C27.073 52.3243 26.7652 52.2273 26.3912 52.2273C26.0171 52.2273 25.7093 52.3243 25.4679 52.5185C25.2264 52.7126 25.0476 52.9671 24.9316 53.282C24.8156 53.5968 24.7576 53.9366 24.7576 54.3011C24.7576 54.6657 24.8156 55.0043 24.9316 55.3168C25.0476 55.6293 25.2264 55.8814 25.4679 56.0732C25.7093 56.2649 26.0171 56.3608 26.3912 56.3608ZM26.0076 50.8068L26.8741 49.1591H27.8542L26.7463 50.8068H26.0076ZM30.142 57V51.5455H30.9517V52.3693H31.0085C31.108 52.0994 31.2879 51.8804 31.5483 51.7124C31.8087 51.5443 32.1023 51.4602 32.429 51.4602C32.4905 51.4602 32.5675 51.4614 32.6598 51.4638C32.7521 51.4661 32.822 51.4697 32.8693 51.4744V52.3267C32.8409 52.3196 32.7758 52.3089 32.674 52.2947C32.5746 52.2782 32.4692 52.2699 32.358 52.2699C32.0928 52.2699 31.8561 52.3255 31.6477 52.4368C31.4418 52.5457 31.2784 52.6972 31.1577 52.8913C31.0393 53.0831 30.9801 53.3021 30.9801 53.5483V57H30.142ZM33.8627 57V51.5455H34.7008V57H33.8627ZM34.2889 50.6364C34.1255 50.6364 33.9847 50.5807 33.8663 50.4695C33.7503 50.3582 33.6923 50.2244 33.6923 50.0682C33.6923 49.9119 33.7503 49.7782 33.8663 49.6669C33.9847 49.5556 34.1255 49.5 34.2889 49.5C34.4522 49.5 34.5919 49.5556 34.7079 49.6669C34.8263 49.7782 34.8855 49.9119 34.8855 50.0682C34.8855 50.2244 34.8263 50.3582 34.7079 50.4695C34.5919 50.5807 34.4522 50.6364 34.2889 50.6364ZM37.8409 57.1278C37.4953 57.1278 37.1816 57.0627 36.8999 56.9325C36.6181 56.8 36.3944 56.6094 36.2287 56.3608C36.063 56.1098 35.9801 55.8068 35.9801 55.4517C35.9801 55.1392 36.0417 54.8859 36.1648 54.6918C36.2879 54.4953 36.4524 54.3414 36.6584 54.2301C36.8643 54.1188 37.0916 54.036 37.3402 53.9815C37.5911 53.9247 37.8433 53.8797 38.0966 53.8466C38.428 53.804 38.6967 53.772 38.9027 53.7507C39.111 53.727 39.2625 53.688 39.3572 53.6335C39.4543 53.5791 39.5028 53.4844 39.5028 53.3494V53.321C39.5028 52.9706 39.407 52.6984 39.2152 52.5043C39.0258 52.3101 38.7382 52.2131 38.3523 52.2131C37.9522 52.2131 37.6385 52.3007 37.4112 52.4759C37.1839 52.651 37.0241 52.8381 36.9318 53.0369L36.1364 52.7528C36.2784 52.4214 36.4678 52.1634 36.7045 51.9787C36.9437 51.7917 37.2041 51.6615 37.4858 51.5881C37.7699 51.5123 38.0492 51.4744 38.3239 51.4744C38.4991 51.4744 38.7003 51.4957 38.9276 51.5384C39.1572 51.5786 39.3786 51.6626 39.5916 51.7905C39.8071 51.9183 39.9858 52.1113 40.1278 52.3693C40.2699 52.6274 40.3409 52.973 40.3409 53.4062V57H39.5028V56.2614H39.4602C39.4034 56.3797 39.3087 56.5064 39.1761 56.6413C39.0436 56.7763 38.8672 56.8911 38.647 56.9858C38.4268 57.0805 38.1581 57.1278 37.8409 57.1278ZM37.9688 56.375C38.3002 56.375 38.5795 56.3099 38.8068 56.1797C39.0365 56.0495 39.2093 55.8814 39.3253 55.6754C39.4437 55.4695 39.5028 55.2528 39.5028 55.0256V54.2585C39.4673 54.3011 39.3892 54.3402 39.2685 54.3757C39.1501 54.4089 39.0128 54.4384 38.8565 54.4645C38.7027 54.4882 38.5523 54.5095 38.4055 54.5284C38.2611 54.545 38.1439 54.5592 38.054 54.571C37.8362 54.5994 37.6326 54.6456 37.4432 54.7095C37.2562 54.7711 37.1046 54.8646 36.9886 54.9901C36.875 55.1132 36.8182 55.2812 36.8182 55.4943C36.8182 55.7855 36.9259 56.0057 37.1413 56.1548C37.3591 56.3016 37.6349 56.375 37.9688 56.375ZM45.7342 52.767L44.9814 52.9801C44.934 52.8546 44.8642 52.7327 44.7718 52.6143C44.6819 52.4936 44.5588 52.3942 44.4025 52.3161C44.2463 52.2379 44.0462 52.1989 43.8024 52.1989C43.4686 52.1989 43.1904 52.2758 42.9679 52.4297C42.7477 52.5812 42.6376 52.7741 42.6376 53.0085C42.6376 53.2169 42.7134 53.3814 42.8649 53.5021C43.0164 53.6229 43.2531 53.7235 43.5751 53.804L44.3848 54.0028C44.8725 54.1212 45.2359 54.3023 45.475 54.5462C45.7141 54.7876 45.8336 55.099 45.8336 55.4801C45.8336 55.7926 45.7437 56.072 45.5637 56.3182C45.3862 56.5644 45.1376 56.7585 44.818 56.9006C44.4984 57.0426 44.1267 57.1136 43.7029 57.1136C43.1466 57.1136 42.6861 56.9929 42.3216 56.7514C41.957 56.5099 41.7261 56.1572 41.6291 55.6932L42.4245 55.4943C42.5003 55.7879 42.6435 56.008 42.8542 56.1548C43.0673 56.3016 43.3455 56.375 43.6887 56.375C44.0794 56.375 44.3895 56.2921 44.6191 56.1264C44.8511 55.9583 44.9672 55.7571 44.9672 55.5227C44.9672 55.3333 44.9009 55.1747 44.7683 55.0469C44.6357 54.9167 44.4321 54.8196 44.1575 54.7557L43.2484 54.5426C42.7489 54.4242 42.3819 54.2408 42.1475 53.9922C41.9155 53.7412 41.7995 53.4276 41.7995 53.0511C41.7995 52.7434 41.8859 52.4711 42.0588 52.2344C42.234 51.9976 42.4719 51.8118 42.7725 51.6768C43.0756 51.5419 43.4189 51.4744 43.8024 51.4744C44.3422 51.4744 44.7659 51.5928 45.0737 51.8295C45.3838 52.0663 45.604 52.3788 45.7342 52.767Z" fill="#5D5D5D"/>
<defs>
<clipPath id="clip0_338_2">
<rect width="24" height="24" fill="white" transform="translate(11.5 18)"/>
</clipPath>
</defs>
</svg>
