<svg width="33" height="33" viewBox="0 0 33 33" fill="none" xmlns="http://www.w3.org/2000/svg">
<g filter="url(#filter0_d_142_516)">
<ellipse cx="16.5" cy="16" rx="15.5" ry="15" fill="#7A421C"/>
</g>
<path d="M16.5 4.5C23.1468 4.5 28.5 9.66777 28.5 16C28.5 22.3322 23.1468 27.5 16.5 27.5C9.85315 27.5 4.5 22.3322 4.5 16C4.5 9.66777 9.85315 4.5 16.5 4.5Z" stroke="#D8935B"/>
<path d="M6.31978 9.30036L5.093 11.345C5.0353 11.4412 4.93139 11.5 4.81925 11.5C4.64293 11.5 4.5 11.3571 4.5 11.1808V10.7863C4.5 10.5967 4.53057 10.4083 4.59053 10.2284L4.84691 9.45926C4.94884 9.15347 5.07235 8.85531 5.2165 8.56701L5.5217 7.95661C5.83849 7.32301 6.25537 6.74463 6.75627 6.24373L7.5 5.5L7.53825 5.46175C7.84533 5.15467 8.182 4.87867 8.54334 4.63778C9.17828 4.21448 9.86682 3.87773 10.5908 3.63641L11 3.5L12.4802 3.12995C12.8156 3.04609 13.17 3.08499 13.4792 3.23962C14.0404 3.52022 13.9822 4.33926 13.387 4.53767L12 5L11.913 5.02899C10.0088 5.66374 8.31926 6.81689 7.03424 8.35891L6.72424 8.73091C6.57497 8.91004 6.43975 9.10042 6.31978 9.30036Z" fill="white"/>
<path d="M26.5149 16.9236L27.1852 14.3207C27.2152 14.2042 27.306 14.1132 27.4223 14.0829C27.5992 14.0369 27.7799 14.143 27.8259 14.3199L27.9512 14.8015C28.0027 14.9994 28.0242 15.2038 28.0151 15.4081L27.9495 16.8828L27.9262 17.0114C27.6462 18.5628 27.1668 20.0715 26.5 21.5C26.1688 22.1623 25.7331 22.7669 25.2094 23.2906L25 23.5L24.2393 24.1664C23.4591 24.8497 22.5303 25.3416 21.5266 25.6027C21.0482 25.7271 20.6909 25.1657 21.0062 24.7851L21.2403 24.5023L22.411 23.4113C23.9452 21.9816 25.1621 20.2455 25.9827 18.3156L26.2791 17.6185C26.375 17.3931 26.4538 17.1608 26.5149 16.9236Z" fill="white"/>
<path d="M15.5117 23.2256C14.8486 23.2256 14.1514 23.1333 13.4199 22.9487C12.6953 22.7573 12.0664 22.5283 11.5332 22.2617V19.4111L13.1328 19.2881L13.6968 21.3594C13.9155 21.4414 14.2061 21.52 14.5684 21.5952C14.9307 21.6636 15.2964 21.6978 15.6655 21.6978C16.3149 21.6978 16.8242 21.4688 17.1934 21.0107C17.5625 20.5459 17.7471 19.8828 17.7471 19.0215C17.7471 18.1738 17.5352 17.521 17.1113 17.063C16.6875 16.5981 16.1372 16.3657 15.4604 16.3657H14.1992V14.8379H15.3579C15.9937 14.8379 16.4688 14.6362 16.7832 14.2329C17.0977 13.8228 17.2549 13.2349 17.2549 12.4692C17.2549 11.7993 17.1045 11.2935 16.8037 10.9517C16.5029 10.603 16.0518 10.4287 15.4502 10.4287C15.2109 10.4287 14.9648 10.4492 14.7119 10.4902C14.459 10.5244 14.2129 10.5791 13.9736 10.6543L13.3994 12.7358L11.8101 12.6128V9.65967C12.3638 9.44775 12.9995 9.27002 13.7173 9.12646C14.4351 8.97607 15.1357 8.90088 15.8193 8.90088C17.2549 8.90088 18.3657 9.19141 19.1519 9.77246C19.938 10.3467 20.3311 11.1636 20.3311 12.2231C20.3311 12.9272 20.1431 13.563 19.7671 14.1304C19.3979 14.6978 18.8237 15.1489 18.0444 15.4839C18.8579 15.7095 19.521 16.1265 20.0337 16.7349C20.5532 17.3364 20.813 18.0405 20.813 18.8472C20.813 20.2417 20.3276 21.3218 19.3569 22.0874C18.3862 22.8462 17.1045 23.2256 15.5117 23.2256Z" fill="#D8935B"/>
<defs>
<filter id="filter0_d_142_516" x="0" y="1" width="33" height="32" filterUnits="userSpaceOnUse" color-interpolation-filters="sRGB">
<feFlood flood-opacity="0" result="BackgroundImageFix"/>
<feColorMatrix in="SourceAlpha" type="matrix" values="0 0 0 0 0 0 0 0 0 0 0 0 0 0 0 0 0 0 127 0" result="hardAlpha"/>
<feOffset dy="1"/>
<feGaussianBlur stdDeviation="0.5"/>
<feComposite in2="hardAlpha" operator="out"/>
<feColorMatrix type="matrix" values="0 0 0 0 0 0 0 0 0 0 0 0 0 0 0 0 0 0 0.25 0"/>
<feBlend mode="normal" in2="BackgroundImageFix" result="effect1_dropShadow_142_516"/>
<feBlend mode="normal" in="SourceGraphic" in2="effect1_dropShadow_142_516" result="shape"/>
</filter>
</defs>
</svg>
