<svg width="33" height="33" viewBox="0 0 33 33" fill="none" xmlns="http://www.w3.org/2000/svg">
<g filter="url(#filter0_d_142_510)">
<ellipse cx="16.5" cy="16" rx="15.5" ry="15" fill="#C4C4C4"/>
</g>
<path d="M16.5 4.5C23.1468 4.5 28.5 9.66777 28.5 16C28.5 22.3322 23.1468 27.5 16.5 27.5C9.85315 27.5 4.5 22.3322 4.5 16C4.5 9.66777 9.85315 4.5 16.5 4.5Z" stroke="#8B8B8B"/>
<path d="M6.31978 9.30036L5.093 11.345C5.0353 11.4412 4.93139 11.5 4.81925 11.5C4.64293 11.5 4.5 11.3571 4.5 11.1808V10.7863C4.5 10.5967 4.53057 10.4083 4.59053 10.2284L4.84691 9.45926C4.94884 9.15347 5.07235 8.85531 5.2165 8.56701L5.5217 7.95661C5.83849 7.32301 6.25537 6.74463 6.75627 6.24373L7.5 5.5L7.53825 5.46175C7.84533 5.15467 8.182 4.87867 8.54334 4.63778C9.17828 4.21448 9.86682 3.87773 10.5908 3.63641L11 3.5L12.4802 3.12995C12.8156 3.04609 13.17 3.08499 13.4792 3.23962C14.0404 3.52022 13.9822 4.33926 13.387 4.53767L12 5L11.913 5.02899C10.0088 5.66374 8.31926 6.81689 7.03424 8.35891L6.72424 8.73091C6.57497 8.91004 6.43975 9.10042 6.31978 9.30036Z" fill="white"/>
<path d="M26.5149 16.9236L27.1852 14.3207C27.2152 14.2042 27.306 14.1132 27.4223 14.0829C27.5992 14.0369 27.7799 14.143 27.8259 14.3199L27.9512 14.8015C28.0027 14.9994 28.0242 15.2038 28.0151 15.4081L27.9495 16.8828L27.9262 17.0114C27.6462 18.5628 27.1668 20.0715 26.5 21.5C26.1688 22.1623 25.7331 22.7669 25.2094 23.2906L25 23.5L24.2393 24.1664C23.4591 24.8497 22.5303 25.3416 21.5266 25.6027C21.0482 25.7271 20.6909 25.1657 21.0062 24.7851L21.2403 24.5023L22.411 23.4113C23.9452 21.9816 25.1621 20.2455 25.9827 18.3156L26.2791 17.6185C26.375 17.3931 26.4538 17.1608 26.5149 16.9236Z" fill="white"/>
<path d="M18.1675 12.3359C18.1675 11.7139 18.0034 11.2422 17.6753 10.9209C17.354 10.5928 16.8789 10.4287 16.25 10.4287C15.8467 10.4287 15.4673 10.4629 15.1118 10.5312C14.7632 10.5996 14.4556 10.6851 14.189 10.7876L13.5737 12.9717L11.9434 12.8589V9.97754C12.6816 9.63574 13.4473 9.37256 14.2402 9.18799C15.04 8.99658 15.8159 8.90088 16.5679 8.90088C18.0376 8.90088 19.1826 9.20508 20.0029 9.81348C20.8301 10.415 21.2437 11.2661 21.2437 12.3667C21.2437 12.9956 21.0693 13.6416 20.7207 14.3047C20.3721 14.9609 19.9072 15.6343 19.3262 16.3247C18.7451 17.0151 18.082 17.7227 17.3369 18.4473C16.5918 19.165 15.8228 19.8965 15.0298 20.6416L15.0708 20.7441H18.9365L19.7773 18.7651L21.3564 19.001L21.1206 23H11.5742V21.103C12.5244 20.1665 13.3994 19.2983 14.1992 18.4985C15.0059 17.6987 15.7031 16.9468 16.291 16.2427C16.8789 15.5317 17.3369 14.8584 17.665 14.2227C18 13.5801 18.1675 12.9512 18.1675 12.3359Z" fill="#8B8B8B"/>
<defs>
<filter id="filter0_d_142_510" x="0" y="1" width="33" height="32" filterUnits="userSpaceOnUse" color-interpolation-filters="sRGB">
<feFlood flood-opacity="0" result="BackgroundImageFix"/>
<feColorMatrix in="SourceAlpha" type="matrix" values="0 0 0 0 0 0 0 0 0 0 0 0 0 0 0 0 0 0 127 0" result="hardAlpha"/>
<feOffset dy="1"/>
<feGaussianBlur stdDeviation="0.5"/>
<feComposite in2="hardAlpha" operator="out"/>
<feColorMatrix type="matrix" values="0 0 0 0 0 0 0 0 0 0 0 0 0 0 0 0 0 0 0.25 0"/>
<feBlend mode="normal" in2="BackgroundImageFix" result="effect1_dropShadow_142_510"/>
<feBlend mode="normal" in="SourceGraphic" in2="effect1_dropShadow_142_510" result="shape"/>
</filter>
</defs>
</svg>
