<svg width="362" height="227" viewBox="0 0 362 227" fill="none" xmlns="http://www.w3.org/2000/svg">
<g clip-path="url(#clip0_4_171)">
<path d="M361.708 140.325L341.505 37.4817C339.949 29.5572 332.593 24.4583 325.106 26.1035L262.649 39.8303L252.443 42.072L123.9 70.3228L69.82 82.2097L11.0494 95.1263C3.56276 96.7715 -1.26404 104.552 0.291453 112.47L20.4952 215.313C22.0507 223.238 29.4126 228.337 36.8992 226.691L77.0276 217.875L103.786 211.992L112.774 210.013L140.886 203.835L222.853 185.825L254.895 178.78L256.54 178.422L286.884 171.753L304.778 167.816L311.344 166.372L350.956 157.669C358.443 156.024 363.264 148.243 361.708 140.325ZM350.713 156.438L311.582 165.041L304.072 166.692L286.848 170.472L256.492 177.147L255.441 177.38L222.924 184.526L140.809 202.572L112.626 208.77L103.964 210.673L77.0988 216.575L36.6558 225.467C29.7985 226.974 23.0837 222.315 21.6588 215.062L21.6351 214.924C12.2783 167.32 31.3896 120.457 66.709 94.1153C78.8562 85.0479 92.9151 78.4169 108.399 75.0135L124.856 71.3966L252.01 43.4471L270.7 39.3404L325.344 27.328C332.201 25.821 338.916 30.4803 340.341 37.7329L360.551 140.576C361.975 147.829 357.57 154.931 350.713 156.438Z" fill="black"/>
<path d="M86.5429 27.4193C84.4476 19.3395 101.347 12.411 105.785 18.9176C106.402 17.9926 108.683 17.4307 109.729 17.7145C110.753 18.0742 111.7 18.6451 112.514 19.3944C113.694 20.3535 114.918 21.3467 115.642 22.7258C116.372 24.0992 116.485 25.9721 115.503 27.1639C114.725 28.1116 112.428 28.7246 111.258 28.9743C110.443 29.1502 109.756 29.2921 109.166 29.3943C108.629 28.5773 108.382 27.5867 108.468 26.5963C107.664 27.1703 107.144 28.0946 107.051 29.1162C107.035 29.3262 113.646 55.0524 113.646 55.0524C112.852 55.5305 112.016 55.9276 111.151 56.2385C109.439 53.4712 108.128 50.4488 107.261 47.2715C107.061 49.3961 107.087 51.5375 107.336 53.6562C107.468 54.8443 107.658 56.0244 107.905 57.1919C100.049 58.9853 88.2331 58.3951 83.0925 50.7675L83.09 50.6728C83.0805 49.956 82.5234 49.3831 81.8457 49.3931C81.3461 49.4006 80.9006 49.7276 80.7193 50.2201C80.5946 50.5567 80.4798 50.848 80.3774 51.0796C78.8804 45.4157 80.8174 38.8607 86.5429 27.4193Z" fill="black"/>
<path d="M140.886 203.835L112.774 210.013L112.626 208.77L108.464 173.493C108.464 173.493 106.357 192.821 103.964 210.673C103.905 211.112 103.845 211.552 103.786 211.992L77.0276 217.875L77.0988 216.575L80.3998 156.922L83.1012 130.912C82.6678 136.369 84.2886 130.912 86.0697 117.098C89.9763 115.785 120.896 115.145 120.896 115.145L137.496 146.579C137.496 146.579 137.609 147.735 137.811 149.738V149.744C138.351 155.063 139.503 180.287 140.809 202.572C140.833 202.993 140.863 203.414 140.886 203.835Z" fill="#412E2E"/>
<path d="M56.464 169.041C58.271 167.726 58.7593 165.128 57.5655 163.181C57.446 162.993 57.3119 162.816 57.1647 162.651L63.578 149.336L58.3353 143.517L51.4143 162.761C50.1818 164.198 50.0195 166.332 51.0191 167.959C52.1994 169.84 54.598 170.353 56.3764 169.104C56.4059 169.083 56.4351 169.062 56.464 169.041Z" fill="#FFB6B6"/>
<path d="M176.445 137.335C174.273 137.008 172.743 134.912 172.992 132.607C173.02 132.382 173.065 132.16 173.128 131.943L161.781 123.04L164.026 115.361L178.323 129.334C180.032 130.04 181.076 131.875 180.865 133.802C180.6 136.042 178.668 137.631 176.55 137.35C176.515 137.345 176.48 137.34 176.445 137.335Z" fill="#FFB6B6"/>
<path d="M99.6746 51.1457C107.276 51.1457 113.438 44.6281 113.438 36.5883C113.438 28.5484 107.276 22.0308 99.6746 22.0308C92.0731 22.0308 85.9108 28.5484 85.9108 36.5883C85.9108 44.6281 92.0731 51.1457 99.6746 51.1457Z" fill="#FFB6B6"/>
<path d="M231.349 150.096L231.248 150.234C231.248 150.234 231.64 148.099 231.349 150.096Z" fill="#2F2E41"/>
<path d="M261.069 37.2306C269.672 37.2306 276.646 29.8542 276.646 20.7549C276.646 11.6557 269.672 4.27925 261.069 4.27925C252.466 4.27925 245.491 11.6557 245.491 20.7549C245.491 29.8542 252.466 37.2306 261.069 37.2306Z" fill="#FFB6B6"/>
<path d="M242.417 17.8727C244.097 18.4241 245.716 18.7492 246.808 17.2922C247.9 15.8352 247.615 14.1692 249.239 13.4668C250.598 12.985 252.078 13.0575 253.389 13.67C253.625 13.7629 253.855 13.8674 254.08 13.9718C254.206 13.8557 254.333 13.7455 254.47 13.641C255.502 12.8643 256.777 12.5361 258.032 12.7238C257.115 13.1923 258.735 18.3493 258.25 19.2962C258.7 19.5342 259.155 19.7721 259.616 19.9753C263.544 21.6748 265.625 16.9223 269.266 14.6162C267.466 19.6315 268.866 21.4194 271.506 25.9994L271.61 26.2664C271.346 25.0648 274.799 23.6774 274.799 25.4189C274.647 27.203 274.278 28.959 273.701 30.6432C277.087 25.2505 279.085 18.9407 277.773 12.8863C277.493 11.6151 277.367 10.251 276.604 9.21769C275.841 8.19028 274.436 7.58655 273.328 8.16703C272.908 2.15048 267.234 1.44273 261.546 1.88691C259.524 2.04477 258.313 -0.981152 256.709 0.330569C255.337 1.45088 254.256 2.91951 253.032 4.22559C251.808 5.53168 250.359 6.72165 248.647 7.04672C247.56 7.24991 246.336 7.12799 245.469 7.85362C244.465 8.69531 244.454 10.1755 244.459 11.5977C245.442 11.5681 246.411 11.849 247.242 12.4045C246.224 12.4316 245.241 12.7972 244.432 13.4494C244.416 13.4596 244.401 13.4713 244.388 13.4843C244.091 15.8758 244.212 16.3809 242.417 17.8727Z" fill="black"/>
<path d="M152.406 100.97H152.571L135.852 83.8094L122.788 69.068C122.792 68.9137 122.795 68.8258 122.795 68.8258L122.396 68.6267C122.396 68.6267 109.258 60.3783 108.809 60.4241L106.792 55.1982L89.9218 51.4132L86.572 58.5445L80.0312 62.5496C78.518 63.0852 77.1231 63.9393 75.9305 65.0606L75.2916 65.4518L75.339 65.6572C73.1995 67.9318 71.9723 70.9919 71.9132 74.1999L65.4337 98.9971L65.4279 99.0863L53.5692 154.781L61.9197 155.219L83.0987 96.3763C83.8088 96.2075 78.3021 157.49 78.9428 157.286C87.9152 154.426 145.521 154.209 138.649 146.94C135.831 143.96 123.91 111.605 123.234 100.97C123.144 99.5506 123.066 98.1185 123 96.6873C125.346 97.9583 127.625 99.3648 129.825 100.9L129.92 100.97L167 128.101L172.937 121.874L152.406 100.97Z" fill="#FF0505"/>
<path d="M79.0306 28.5543C76.9353 20.4746 93.8349 13.5461 98.2728 20.0527C98.8899 19.1277 101.17 18.5657 102.217 18.8495C103.241 19.2092 104.188 19.7802 105.002 20.5294C106.182 21.4886 107.406 22.4817 108.13 23.8608C108.86 25.2342 108.972 27.1071 107.99 28.2989C107.212 29.2467 104.916 29.8596 103.746 30.1094C102.93 30.2853 102.244 30.4272 101.653 30.5293C101.117 29.7123 100.87 28.7218 100.956 27.7314C100.151 28.3053 99.6317 29.2296 99.5391 30.2512C99.523 30.4612 106.134 56.1874 106.134 56.1874C105.34 56.6655 104.504 57.0627 103.639 57.3735C101.927 54.6062 100.615 51.5839 99.7484 48.4065C99.5491 50.5311 99.5743 52.6726 99.8235 54.7913C99.9561 55.9793 100.146 57.1594 100.392 58.327C92.5366 60.1204 80.7209 59.5302 75.5803 51.9026L75.5777 51.8078C75.5682 51.0911 75.0111 50.5181 74.3335 50.5282C73.8338 50.5356 73.3883 50.8627 73.2071 51.3552C73.0823 51.6917 72.9675 51.983 72.8651 52.2147C71.3681 46.5507 73.3052 39.9957 79.0306 28.5543Z" fill="black"/>
<g filter="url(#filter0_d_4_171)">
<path d="M188.343 69.1126C188.323 69.1332 188.304 69.1549 188.284 69.1756C185.19 65.9279 180.206 65.8993 177.079 69.1114C173.94 72.3361 173.834 77.6298 176.841 80.9922L176.839 80.9942L176.914 81.0758L187.986 93.1333L199.463 81.3435L199.431 81.3088C199.451 81.2893 199.471 81.2713 199.49 81.2516C202.659 77.996 202.733 72.6393 199.655 69.2872C196.577 65.9351 191.512 65.8569 188.343 69.1126Z" fill="#FF0505"/>
</g>
<path d="M286.884 171.753L256.54 178.422L256.492 177.147L256.409 174.868L255.441 177.38L254.895 178.78L222.853 185.825L222.924 184.526L223.56 172.733L230.363 150.334L232.655 142.799L280.662 138.529C280.662 138.535 280.668 138.536 280.668 138.542C284.859 146.636 286.486 158.548 286.848 170.472C286.866 170.899 286.878 171.326 286.884 171.753Z" fill="#412E2E"/>
<path d="M252.87 40.7178L270.556 39.1144L273.588 43.9246C273.588 43.9246 290.77 55.1486 291.275 57.2865C291.78 59.4244 280.158 138.526 280.663 138.526C281.168 138.526 266.008 147.612 247.816 149.216C229.624 150.819 229.077 150.24 229.077 150.24L236.699 130.509L238.468 105.656L236.952 58.6226L250.596 47.9332L252.87 40.7178Z" fill="#FF0505"/>
<path d="M303.029 163.633C302.713 161.944 302.784 160.32 303.158 158.987L299.186 143.102L306.388 141.325L309.641 157.629C310.468 158.711 311.118 160.184 311.434 161.873C312.156 165.73 310.86 169.251 308.539 169.737C306.218 170.223 303.751 167.49 303.029 163.633Z" fill="#FFB6B6"/>
<path d="M280.94 55.8686C280.94 55.8686 289.957 51.9417 294.2 59.2345C298.443 66.5273 309.581 152.358 309.581 152.358L300.299 153.76L282.001 84.4787L280.94 55.8686Z" fill="#FF0505"/>
<path d="M183.248 136.983C184.335 135.701 185.057 134.266 185.379 132.918L196.458 121.4L191.122 115.984L180.458 128.251C179.225 128.736 177.955 129.652 176.869 130.933C174.387 133.861 173.803 137.589 175.565 139.26C177.326 140.93 180.766 139.911 183.248 136.983Z" fill="#FFB6B6"/>
<path d="M254.232 56.2211C254.232 56.2211 248.372 47.978 241.204 51.9603C234.037 55.9426 183.052 123.75 183.052 123.75L190.359 129.965L239.518 80.2546L254.232 56.2211Z" fill="#FF0505"/>
</g>
<defs>
<filter id="filter0_d_4_171" x="170.653" y="66.7209" width="35.2625" height="34.4124" filterUnits="userSpaceOnUse" color-interpolation-filters="sRGB">
<feFlood flood-opacity="0" result="BackgroundImageFix"/>
<feColorMatrix in="SourceAlpha" type="matrix" values="0 0 0 0 0 0 0 0 0 0 0 0 0 0 0 0 0 0 127 0" result="hardAlpha"/>
<feOffset dy="4"/>
<feGaussianBlur stdDeviation="2"/>
<feComposite in2="hardAlpha" operator="out"/>
<feColorMatrix type="matrix" values="0 0 0 0 0 0 0 0 0 0 0 0 0 0 0 0 0 0 0.25 0"/>
<feBlend mode="normal" in2="BackgroundImageFix" result="effect1_dropShadow_4_171"/>
<feBlend mode="normal" in="SourceGraphic" in2="effect1_dropShadow_4_171" result="shape"/>
</filter>
<clipPath id="clip0_4_171">
<rect width="362" height="227" fill="white"/>
</clipPath>
</defs>
</svg>
