<svg width="382" height="295" viewBox="0 0 382 295" fill="none" xmlns="http://www.w3.org/2000/svg">
<g clip-path="url(#clip0_59_15)">
<path d="M245.378 18.4365C245.385 23.0812 243.714 27.5559 240.702 30.9587C240.473 31.2199 240.232 31.4726 239.988 31.7167C230.912 24.3847 221.393 17.6771 211.492 11.6359C211.614 11.3104 211.745 10.9892 211.888 10.6723C213.573 6.86509 216.445 3.77554 220.03 1.91462C223.615 0.0537024 227.698 -0.467122 231.603 0.438288C235.509 1.3437 239.003 3.6211 241.507 6.89385C244.012 10.1666 245.377 14.2386 245.378 18.4365Z" fill="#E5E5E5"/>
<path d="M259.621 55.9516L259.605 56.1444C248.054 55.3092 236.505 54.4727 224.956 53.6348C216.613 53.0309 207.979 52.3457 200.606 48.2002C197.807 46.6285 195.082 44.5301 191.907 44.3845C187.97 44.2003 184.534 47.0911 181.833 50.106C165.868 67.9556 161.245 95.2483 143.333 110.927C154.63 81.6859 168.118 53.4311 183.67 26.4277C186.542 21.4386 189.949 16.1111 195.282 14.4837C200.369 12.9292 205.576 15.1989 210.26 18.111C211.263 18.7363 212.243 19.3915 213.189 20.0425C220.407 25.0016 227.506 30.1507 234.488 35.4896C243.06 42.0376 251.438 48.8583 259.621 55.9516Z" fill="#E5E5E5"/>
<path d="M296.979 93.8094C284.633 75.5179 270.289 58.8064 254.24 44.0162C249.625 39.7593 244.874 35.6595 239.988 31.7167C230.912 24.3847 221.393 17.677 211.492 11.6358C208.244 9.65729 204.958 7.75727 201.634 5.93576C199.052 4.5268 196.302 3.23775 193.323 3.43903C191.239 3.62597 189.249 4.42934 187.582 5.75589C183.923 8.56096 181.499 12.942 179.504 17.1175C177.757 20.7791 176.129 24.5135 174.469 28.2264C173.763 29.8067 173.057 31.3827 172.327 32.9501C169.781 38.4403 167.175 43.9006 164.509 49.3308C161.074 56.3285 157.539 63.2734 153.905 70.1654C146.271 84.6533 138.215 98.8799 129.738 112.845C117.278 133.372 103.946 153.275 89.7448 172.557C88.0026 174.917 87.2845 175.465 85.5178 177.807C85.1098 178.355 84.3835 177.585 84.7875 177.041C99.5209 157.495 112.349 139.029 125.283 118.121C135.034 102.357 144.25 86.2435 152.93 69.78C155.717 64.4996 158.445 59.1864 161.115 53.8403C165.435 45.1853 169.607 36.4489 173.628 27.6311C174.689 25.31 175.739 22.9803 176.778 20.642C180.079 13.2203 184.885 2.18422 194.168 2.33411C196.897 2.37696 199.431 3.53751 201.822 4.82227C204.258 6.13702 206.649 7.53312 209.036 8.95064C209.991 9.51593 210.941 10.0898 211.888 10.6722C215.637 12.9591 219.331 15.3416 222.969 17.8198C229.041 21.9524 234.951 26.3321 240.702 30.9587C243.431 33.1556 246.12 35.4025 248.768 37.6994C265.383 52.1278 280.323 68.5588 293.278 86.6532C294.841 88.833 296.371 91.0371 297.868 93.2655C298.252 93.8351 297.358 94.3746 296.979 93.8094Z" fill="#D9D6D6"/>
<path d="M255.158 38.5655C255.698 37.9344 256.234 37.3033 256.777 36.6723C261.057 31.7031 265.651 26.7916 271.529 23.9428C274.332 22.5415 277.392 21.7971 280.496 21.7611C283.7 21.8534 286.858 22.5763 289.807 23.8923C291.209 24.4801 292.579 25.1472 293.93 25.8576C295.472 26.6726 296.987 27.5417 298.496 28.4179C301.327 30.0623 304.121 31.7788 306.878 33.5674C312.365 37.1266 317.68 40.9575 322.823 45.06C325.489 47.1876 328.101 49.3849 330.657 51.6519C333.034 53.7579 335.363 55.9203 337.645 58.1393C338.133 58.6117 338.861 57.8472 338.373 57.3748C337.772 56.787 337.164 56.2028 336.556 55.6258C334.838 53.9959 333.093 52.3972 331.32 50.8297C328.087 47.9665 324.77 45.2139 321.37 42.5718C316.083 38.4609 310.613 34.6288 304.962 31.0756C302.137 29.3014 299.274 27.6018 296.372 25.9766C295.496 25.4862 294.61 25.0066 293.713 24.5522C291.679 23.475 289.565 22.5718 287.392 21.8513C284.314 20.8061 281.057 20.4703 277.844 20.8668C274.742 21.3404 271.753 22.4257 269.035 24.0654C263.263 27.4515 258.787 32.6875 254.43 37.7974C253.99 38.3166 254.715 39.0847 255.158 38.5655Z" fill="#D9D6D6"/>
<path d="M136.896 90.0594L123.065 84.7498L116.198 82.1135C113.979 81.1759 111.716 80.3579 109.418 79.6627C107.409 79.0603 105.276 79.0889 103.282 79.7448C101.504 80.4356 99.8762 81.4946 98.4958 82.8589C97.0855 84.222 95.7734 85.6928 94.5701 87.2592C93.075 89.1451 91.602 91.0508 90.1224 92.9501C84.0158 100.789 77.9491 108.661 71.9224 116.568C65.8958 124.475 59.9095 132.415 53.9635 140.389C48.0029 148.382 42.0833 156.408 36.2048 164.469C35.4846 165.456 34.7651 166.444 34.0462 167.432C33.649 167.978 32.7535 167.44 33.1563 166.886C39.0782 158.745 45.0414 150.637 51.0459 142.563C57.0652 134.469 63.126 126.409 69.2285 118.384C75.3308 110.359 81.4744 102.369 87.6592 94.4138C89.2 92.4319 90.7433 90.4521 92.2892 88.4746C93.5933 86.8065 94.8826 85.1203 96.3129 83.5677C98.9383 80.7177 102.218 78.1991 106.145 78.1308C108.453 78.0906 110.687 78.8595 112.832 79.6739C115.144 80.5519 117.451 81.4463 119.76 82.3328L133.688 87.6795L137.17 89.0162C137.788 89.2534 137.521 90.2993 136.896 90.0594Z" fill="#D9D6D6"/>
<path d="M273.349 30.1955C280.378 26.404 289.379 27.1466 295.837 31.8835C283.518 34.1144 271.333 37.0993 259.346 40.823C264.324 37.7611 268.218 32.9638 273.349 30.1955Z" fill="#E5E5E5"/>
<path d="M295.907 31.8705L297.26 33.0249C296.802 32.6208 296.326 32.242 295.838 31.8836C295.861 31.8794 295.884 31.8747 295.907 31.8705Z" fill="#F2F2F2"/>
<path d="M99.0165 90.1124C100.378 88.373 101.85 86.5516 103.886 85.8451L105.788 85.9238C91.3148 112.766 71.7682 136.221 48.3475 154.849C65.2372 133.27 82.1269 111.691 99.0165 90.1124Z" fill="#E5E5E5"/>
<path d="M260.592 95.6156C259.389 99.4814 256.773 102.688 253.319 104.529C249.865 106.371 245.855 106.698 242.171 105.438C241.754 105.295 241.346 105.133 240.947 104.952C237.594 103.444 234.901 100.674 233.396 97.1867C231.891 93.6996 231.683 89.7476 232.814 86.1079C233.172 84.949 233.663 83.8396 234.274 82.8038C236.152 79.6117 239.08 77.253 242.503 76.1743C245.927 75.0955 249.608 75.3715 252.851 76.95C256.093 78.5285 258.672 81.3 260.098 84.7398C261.525 88.1796 261.701 92.049 260.592 95.6156Z" fill="#A0616A"/>
<path d="M232.907 86.8757C234.932 87.9228 237.225 86.4052 238.997 84.8959L238.363 85.4589C241.437 88.6636 242.844 93.2417 243.51 97.7407C244.176 102.235 244.21 106.824 245.061 111.288C245.912 115.748 247.724 120.239 251.165 123.002C255.773 126.703 262.182 126.538 267.893 125.48C267.969 125.465 268.04 125.453 268.116 125.438C266.628 120.773 266.053 115.841 266.425 110.938C267.905 115.872 270.462 120.375 273.893 124.088C277.683 123.037 281.385 121.666 284.964 119.988C287.28 118.9 289.777 117.404 290.442 114.833C291.108 112.281 289.645 109.581 287.67 107.944C285.694 106.307 283.259 105.437 281.001 104.262C278.748 103.092 276.522 101.434 275.64 98.9588C273.604 93.2639 279.626 86.8193 277.358 81.2183C276.24 78.4641 273.45 76.9423 270.825 75.764C266.817 73.9699 262.699 72.4621 258.498 71.2511C254.81 70.1873 250.956 69.35 247.183 69.9805C243.409 70.611 239.695 72.9761 238.302 76.7166C236.032 77.4947 233.621 78.3733 232.15 80.3563C230.679 82.3346 230.762 85.7687 232.907 86.8757Z" fill="#2D2D2D"/>
<path d="M150.645 204.005C162.893 202.271 175.088 206.934 187.421 207.776C199.693 208.615 212.107 205.373 222.77 198.959C230.309 194.425 239.567 195.099 246.764 200.209C246.946 200.338 247.129 200.462 247.315 200.581C253.258 204.4 260.599 204.658 267.566 204.807L336.324 206.276C336.324 206.276 352.817 210.379 355.194 219.025C357.572 227.671 352.305 237.03 345.025 241.784C337.746 246.538 328.915 247.715 320.384 248.613C265.526 254.376 210.207 253.188 155.62 245.075C145.501 243.569 133.632 240.357 130.183 230.259C126.012 218.048 138.397 205.739 150.645 204.005Z" fill="#C8C8C8"/>
<path d="M305.074 221.131L261.893 215.695C257.865 215.188 254.194 213.022 251.687 209.674C249.18 206.326 248.044 202.069 248.527 197.842C249.01 193.614 251.073 189.76 254.263 187.129C257.453 184.498 261.508 183.305 265.536 183.812L308.717 189.248C312.744 189.757 316.413 191.923 318.919 195.271C321.424 198.619 322.56 202.874 322.077 207.1C321.594 211.327 319.531 215.179 316.343 217.81C313.155 220.441 309.101 221.636 305.074 221.131Z" fill="#2D2D2D"/>
<path d="M296.608 107.148L302.937 113.592L311.027 117.359C311.027 117.359 308.642 169.066 311.395 172.744C314.149 176.422 311.317 176.155 311.458 180.501C311.599 184.846 312.128 193.784 312.128 193.784C289.667 202.86 271.422 200.883 258.366 185.31C258.276 184.437 258.473 183.558 258.924 182.818C259.375 182.079 260.053 181.523 260.846 181.244C263.742 180.071 259.319 172.336 261.679 171.433C264.038 170.53 262.082 159.873 262.082 159.873L266.582 138.718L265.351 135.091L271.702 114.645L278.869 112.877L282.405 106.286L296.608 107.148Z" fill="#DB3E37"/>
<path d="M211.987 155.807C212.674 155.215 213.477 154.789 214.338 154.558C215.199 154.327 216.099 154.297 216.972 154.471C217.846 154.644 218.672 155.016 219.394 155.561C220.116 156.106 220.715 156.811 221.149 157.625L242.424 153.647L237.982 164.472L218.46 166.59C217.108 167.265 215.567 167.397 214.13 166.959C212.692 166.521 211.458 165.546 210.66 164.216C209.862 162.887 209.556 161.297 209.801 159.747C210.045 158.197 210.823 156.795 211.987 155.807Z" fill="#FFB6B6"/>
<path d="M225.82 166.712L264.812 163.494L264.889 163.34C264.979 163.163 270.314 152.555 275.046 142.626C275.775 141.097 276.49 139.584 277.168 138.128C277.461 137.499 277.747 136.883 278.026 136.277C279.904 132.195 281.401 128.743 281.986 126.93C283.339 122.872 283.328 118.45 281.956 114.399L281.917 114.301L281.829 114.248C280.032 113.168 277.938 112.763 275.892 113.099C273.846 113.436 271.97 114.495 270.575 116.1C263.874 123.89 258.991 133.208 256.31 143.319L254.791 149.072L226.894 155.63L225.82 166.712Z" fill="#DB3E37"/>
<path d="M153.9 274.166L147.725 271.066L156.207 243.973L165.321 248.549L153.9 274.166Z" fill="#A0616A"/>
<path d="M195.3 269.798C194.851 270.093 194.402 270.384 193.949 270.674C193.046 271.255 192.134 271.826 191.222 272.388C190.764 272.669 190.302 272.95 189.843 273.226V273.24L189.816 273.245L189.807 273.25L189.109 273.431L188.106 270.65L187.644 269.369L186.99 267.556L185.793 264.237L179.488 246.764L189.29 244.227L189.658 245.802H189.662L189.843 246.583L193.268 261.161L193.967 264.142L193.989 264.232L194.411 266.013L194.774 267.555L195.178 269.279L195.3 269.798Z" fill="#A0616A"/>
<path d="M253.775 208.437C253.153 209.485 252.518 210.527 251.878 211.56C250.69 213.484 249.47 215.379 248.218 217.245C248.218 217.25 248.213 217.25 248.209 217.255C247.478 217.965 246.672 218.583 245.805 219.097C245.769 219.126 245.728 219.145 245.691 219.168C245.053 219.539 244.374 219.825 243.668 220.021C243.414 220.087 243.156 220.154 242.902 220.221C241.986 220.449 241.078 220.644 240.176 220.816C238.57 221.116 236.982 221.33 235.404 221.463C235.277 221.478 235.15 221.487 235.023 221.497C228.532 221.997 222.213 221.192 215.618 219.873C212.361 219.226 209.036 218.45 205.593 217.645C204.468 217.378 203.339 217.116 202.196 216.855C202.11 216.836 202.019 216.812 201.928 216.793C200.295 216.417 198.635 216.045 196.934 215.679C194.793 215.217 192.584 214.769 190.289 214.346L190.452 217.74C190.588 220.351 191.105 222.925 191.985 225.372C192.965 228.381 193.741 230.762 192.103 235.718L191.314 238.117C191.723 239.309 191.864 240.584 191.724 241.842C191.585 243.1 191.17 244.307 190.511 245.368L190.352 245.621L196.934 263.098L197.361 264.231H193.99L189.844 264.236H182.818L172.68 242.888L172.195 241.869V241.817L173.243 200.791C173.256 200.429 173.284 200.063 173.329 199.701C173.514 198.056 174.009 196.466 174.785 195.024C175.562 193.582 176.604 192.317 177.851 191.302C179.047 190.322 180.416 189.601 181.879 189.18C183.342 188.76 184.87 188.65 186.374 188.855L189.844 189.326L196.934 190.288L201.928 190.969L202.028 190.983L216.756 192.983L217.813 188.46L218.008 188.384L224.209 185.999L245.655 177.748L245.71 177.729L247.12 177.186L247.288 177.472C247.338 177.557 247.388 177.643 247.433 177.729C248.827 180.352 249.963 183.119 250.822 185.984C252.266 190.666 253.454 195.43 254.382 200.253C254.423 200.462 254.459 200.653 254.491 200.824L254.505 200.877C254.518 200.958 254.527 201.01 254.532 201.024C255.026 203.186 254.682 205.823 253.775 208.437Z" fill="#2D2D2D"/>
<path d="M254.68 193.318C254.612 193.013 254.525 192.704 254.435 192.404C253.715 190.132 252.876 187.904 251.922 185.729C250.851 183.253 249.568 180.601 248.039 177.731C247.3 176.34 246.504 174.895 245.653 173.393C245.227 172.641 244.784 171.874 244.324 171.094C244.306 171.058 244.286 171.023 244.265 170.989L244.134 170.76L222.914 173.741L215.013 174.85L214.541 178.983L214.427 180.006C214.423 180.006 214.423 180.006 214.427 180.011L214.11 182.801V182.806L213.688 186.491L213.652 186.486L201.926 184.891L189.842 183.249L183.351 182.368C181.847 182.162 180.319 182.272 178.856 182.692C177.392 183.113 176.023 183.834 174.828 184.815C173.581 185.83 172.539 187.095 171.763 188.537C170.986 189.979 170.491 191.568 170.306 193.213C170.265 193.547 170.238 193.889 170.224 194.227L164.101 209.458C160.436 218.566 158.103 228.203 157.179 238.043L152.688 253.111L153.328 253.173L162.844 254.102L165.357 254.349L170.891 245.87C171.522 244.904 172.12 243.908 172.678 242.89C173.597 241.226 174.413 239.502 175.123 237.729L187.094 207.83C188.019 207.996 188.935 208.155 189.842 208.306C194.038 209.02 198.066 209.602 201.926 210.053C214.477 211.524 225.346 211.638 235.021 210.391C237.738 210.043 240.364 209.586 242.9 209.02C243.83 208.815 244.747 208.594 245.653 208.358C245.866 208.306 246.075 208.253 246.284 208.196C248.158 207.689 249.882 206.696 251.296 205.309C252.711 203.921 253.771 202.184 254.38 200.255C255.108 198.02 255.212 195.613 254.68 193.318Z" fill="#2D2D2D"/>
<path d="M155.872 269.742L149.191 266.38L148.143 265.852L146.469 270.165L134.785 272.865C134.207 272.998 133.685 273.321 133.295 273.788C132.904 274.254 132.667 274.84 132.616 275.458C132.565 276.077 132.704 276.696 133.013 277.226C133.322 277.755 133.783 278.167 134.331 278.402L145.748 283.292L149.372 279.868L148.483 284.463L152.783 286.305L157.496 270.561L155.872 269.742Z" fill="#994243"/>
<path d="M196.934 263.098L197.36 264.231H196.934V263.098Z" fill="#09081B"/>
<path d="M194.607 264.473L187.606 267.02L186.507 267.418L188.21 271.719L181.716 282.267C181.395 282.788 181.241 283.403 181.276 284.023C181.312 284.643 181.535 285.234 181.914 285.711C182.292 286.188 182.806 286.525 183.381 286.674C183.955 286.822 184.56 286.774 185.106 286.536L196.496 281.579L196.777 276.47L199.225 280.391L203.516 278.525L196.31 263.856L194.607 264.473Z" fill="#994243"/>
<path d="M166.949 75.4875C167.018 76.2471 167.244 76.9816 167.613 77.6393C167.981 78.2971 168.483 78.8621 169.081 79.2944C169.68 79.7268 170.362 80.0162 171.079 80.142C171.796 80.2678 172.531 80.2271 173.231 80.0227L183.284 95.2758L186.712 86.3349L176.641 73.2211C176.235 72.0089 175.421 70.9948 174.351 70.3709C173.281 69.7471 172.03 69.5568 170.836 69.8361C169.641 70.1155 168.586 70.8451 167.869 71.8867C167.153 72.9283 166.826 74.2094 166.949 75.4875Z" fill="#A0616A"/>
<path d="M175.592 83.9024L184.867 78.9559L204.691 106.019L240.383 117.128C242.148 117.677 243.775 118.627 245.15 119.91C246.525 121.194 247.614 122.779 248.34 124.554C249.065 126.329 249.41 128.25 249.349 130.181C249.287 132.111 248.822 134.004 247.986 135.724C246.471 138.83 243.845 141.178 240.684 142.254C237.522 143.33 234.083 143.045 231.121 141.463L193.771 121.456L175.592 83.9024Z" fill="#E20A10"/>
<path d="M252.883 123.323C249.249 121.365 246.434 117.982 245.171 111.897L239.275 111.421L219.733 131.516C209.556 144.574 216.951 153.58 217.394 154.919L213.862 172.015L214.653 177.736L215.049 179.436L255.372 201.551L251.975 171.886L255.176 146.143C258.814 134.248 260.292 133.103 252.883 123.323Z" fill="#E20A10"/>
<path d="M220.887 222.564C221.513 222.176 222.05 221.648 222.461 221.019C222.872 220.389 223.146 219.673 223.264 218.92C223.382 218.167 223.342 217.396 223.146 216.661C222.95 215.927 222.602 215.246 222.129 214.668L231.011 198.634L221.843 199.177L214.814 214.319C213.94 215.219 213.412 216.424 213.329 217.706C213.245 218.987 213.613 220.256 214.361 221.273C215.11 222.289 216.188 222.982 217.391 223.22C218.593 223.458 219.837 223.224 220.887 222.564Z" fill="#A0616A"/>
<g filter="url(#filter0_d_59_15)">
<path d="M224.471 210.776L216.263 204.066L231.178 173.729L225.589 135.097C225.313 133.187 225.441 131.237 225.963 129.385C226.486 127.533 227.391 125.825 228.613 124.381C229.835 122.937 231.346 121.794 233.036 121.032C234.727 120.269 236.557 119.907 238.396 119.971C241.718 120.089 244.859 121.586 247.131 124.133C249.403 126.68 250.619 130.068 250.513 133.555L249.132 177.543L224.471 210.776Z" fill="#E20A10"/>
</g>
<path d="M258.582 274.238L263.958 279.388L285.442 260.07L277.506 252.469L258.582 274.238Z" fill="#FFB6B6"/>
<path d="M258.812 271.082L260.326 272.531L268.427 275.669L269.401 281.223L269.402 281.224C271.191 282.938 272.259 285.328 272.37 287.869C272.48 290.409 271.625 292.891 269.992 294.77L269.792 295L252.454 278.395L258.812 271.082Z" fill="#994243"/>
<path d="M299.315 214.139L294.674 204.733C295.062 195.208 302.933 187.767 311.97 188.716C317.003 189.245 321.622 192.39 323.263 201.268C327.482 224.097 276.577 269.282 276.577 269.282L267.736 263.061L267.538 256.844L272.721 253.763L272.912 248.475L277.829 246.258L299.315 214.139Z" fill="#2D2D2D"/>
<path d="M299.447 90.5385C300.18 82.5318 294.591 75.4172 286.963 74.6475C279.334 73.8778 272.556 79.7445 271.823 87.7512C271.089 95.7579 276.679 102.873 284.307 103.642C291.935 104.412 298.714 98.5452 299.447 90.5385Z" fill="#FFB6B6"/>
<path d="M275.525 75.5552C276.979 72.2013 282.854 70.3661 292.051 70.9565C301.249 71.5469 302.535 83.1201 302.535 83.1201C308.177 88.948 294.246 101.621 293.679 101.057L294.195 98.4635C295.048 94.1684 297.295 90.9766 295.246 86.2038L292.879 85.9937L288.31 86.4465C288.025 86.4747 287.739 86.4038 287.497 86.2448C287.254 86.0857 287.068 85.8473 286.967 85.5663C286.866 85.2853 286.856 84.9773 286.939 84.6898C287.021 84.4023 287.191 84.1512 287.423 83.9753L287.468 83.9415L287.381 83.7656C285.731 84.3671 284.038 84.9084 282.301 84.8407C280.346 84.7645 278.295 83.7381 277.529 81.8493C277.325 81.3308 277.223 80.7749 277.228 80.2142C274.506 81.0489 272.997 84.3195 272.997 84.3195C272.997 84.3195 274.072 78.909 275.525 75.5552Z" fill="#2D2D2D"/>
<path d="M296.807 272.81L290.731 277.018L272.377 254.423L281.344 248.213L296.807 272.81Z" fill="#FFB6B6"/>
<path d="M302.242 277.918L282.652 291.486L282.489 291.225C281.154 289.103 280.678 286.511 281.164 284.02C281.651 281.528 283.06 279.342 285.082 277.941L285.082 277.941L286.869 272.613L295.337 270.839L297.048 269.655L302.242 277.918Z" fill="#994243"/>
<path d="M269.038 213.226L274.783 203.423C275.813 193.952 269.143 185.315 260.075 184.775C255.025 184.474 249.996 186.826 247.058 195.327C239.502 217.187 283.079 270.144 283.079 270.144L292.736 265.444L293.854 259.336L289.191 255.445L289.787 250.19L285.26 247.196L269.038 213.226Z" fill="#2D2D2D"/>
<path d="M290.559 198.822C290.634 197.892 290.902 196.991 291.344 196.181C291.786 195.372 292.392 194.674 293.12 194.137C293.847 193.6 294.677 193.237 295.552 193.073C296.427 192.91 297.326 192.949 298.185 193.19L310.29 174.4L314.593 185.287L302.439 201.461C301.958 202.949 300.975 204.2 299.674 204.978C298.374 205.755 296.846 206.005 295.382 205.68C293.918 205.354 292.618 204.477 291.729 203.213C290.84 201.949 290.424 200.386 290.559 198.822Z" fill="#FFB6B6"/>
<path d="M307.65 196.004L332.617 164.404L332.566 164.238C332.507 164.047 328.974 152.64 325.486 142.159C324.949 140.545 324.413 138.953 323.89 137.427C323.665 136.769 323.442 136.124 323.223 135.492C321.741 131.233 320.425 127.701 319.594 125.998C317.763 122.152 314.733 119.079 311.009 117.29L310.915 117.251L310.817 117.28C308.827 117.881 307.091 119.175 305.896 120.95C304.7 122.725 304.117 124.875 304.242 127.045C304.898 137.517 307.863 147.686 312.905 156.749L315.779 161.901L300.825 187.474L307.65 196.004Z" fill="#DB3E37"/>
<path d="M71.6702 277.013C106.367 277.013 134.494 267.781 134.494 256.394C134.494 245.006 106.367 235.775 71.6702 235.775C36.9739 235.775 8.84694 245.006 8.84694 256.394C8.84694 267.781 36.9739 277.013 71.6702 277.013Z" fill="#F2F2F2"/>
<path d="M71.6702 273.002C99.6177 273.002 122.274 265.566 122.274 256.394C122.274 247.221 99.6177 239.785 71.6702 239.785C43.7228 239.785 21.0669 247.221 21.0669 256.394C21.0669 265.566 43.7228 273.002 71.6702 273.002Z" fill="#E6E6E6"/>
<path d="M98.1248 244.624C95.1847 244.208 92.2571 245.327 89.2966 245.529C86.8182 245.673 84.3436 245.183 82.0859 244.1C79.8282 243.017 77.8552 241.375 76.3367 239.314C77.2329 240.796 76.3456 242.885 74.9188 243.802C73.492 244.719 71.7299 244.781 70.0574 244.817L53.5517 245.169L53.8633 246.664C52.4953 245.05 49.5925 246.154 49.0218 248.23C48.4511 250.305 49.7155 252.552 51.463 253.693C53.2104 254.834 55.3303 255.117 57.3782 255.332C70.547 256.716 83.8266 256.431 96.9305 254.483C99.3596 254.122 102.209 253.35 103.037 250.926C104.038 247.995 101.065 245.04 98.1248 244.624Z" fill="#591200"/>
<path d="M109.013 245.114C108.368 242.074 106.355 239.578 105.15 236.733C104.164 234.342 103.746 231.735 103.933 229.137C104.12 226.539 104.906 224.028 106.223 221.82C105.207 223.215 103.033 223.064 101.72 221.976C100.407 220.888 99.742 219.174 99.1314 217.539L93.1064 201.406L91.878 202.23C92.8475 200.325 90.8564 197.848 88.8036 198.004C86.7509 198.16 85.18 200.182 84.7643 202.298C84.3486 204.414 84.8294 206.599 85.3452 208.69C88.6639 222.138 93.5126 235.117 99.7867 247.348C100.95 249.615 102.625 252.154 105.078 252.131C108.045 252.103 109.658 248.153 109.013 245.114Z" fill="#591200"/>
<path d="M107.6 198.187C106.03 195.9 103.793 194.026 101.15 193.345C99.8894 193.017 98.5742 192.997 97.3056 193.287C96.037 193.578 94.8491 194.171 93.8336 195.02C93.2624 195.496 92.7409 196.034 92.278 196.626C91.2642 197.92 90.1875 199.158 89.0521 200.335C88.0364 193.418 85.935 186.725 82.8336 180.529C81.2305 177.336 79.3395 174.312 77.1866 171.497C75.4099 169.179 73.483 166.727 70.6766 165.813C69.6139 165.476 68.494 165.386 67.395 165.55C66.296 165.714 65.2442 166.127 64.3129 166.762C62.3101 168.181 60.8545 170.303 60.2073 172.747C59.8215 174.141 59.652 175.592 59.7055 177.043C59.7658 178.858 60.229 180.609 60.5179 182.392C61.1488 186.323 61.3184 190.321 61.0229 194.296C60.4905 201.578 58.3987 208.871 54.5207 214.974C54.2838 215.347 54.0399 215.715 53.7889 216.077C52.2937 211.774 50.0045 207.822 47.0523 204.448C46.5327 203.855 45.9927 203.284 45.4322 202.733C44.972 202.212 44.4203 201.79 43.8074 201.489C41.4855 200.545 39.8168 203.307 40.0494 205.452C40.2181 207.008 41.1881 207.947 42.1013 209.086C43.1274 210.371 44.0547 211.739 44.8744 213.177C46.5661 216.093 47.7527 219.301 48.3795 222.651C49.0382 226.306 48.7317 229.961 47.9822 233.573C46.6028 240.222 44.18 247.324 46.5932 254.059C47.5663 256.775 49.346 259.125 51.9301 260.285C53.0121 260.801 54.1934 261.045 55.3808 260.999C56.5683 260.953 57.7291 260.617 58.7716 260.019C59.0377 259.855 59.2928 259.673 59.5352 259.474C59.6023 259.607 59.6771 259.735 59.7591 259.859C60.0408 260.271 60.4881 260.222 60.9254 260.24C61.3931 260.259 61.861 260.269 62.3292 260.271C64.1385 260.278 65.9462 260.158 67.7404 259.913C71.3408 259.425 74.868 258.462 78.2385 257.046C85.2536 254.047 91.5067 249.374 96.5024 243.397C101.959 236.895 105.975 229.204 108.261 220.879C109.503 216.543 110.188 212.053 110.3 207.527C110.366 204.192 109.421 200.921 107.6 198.187Z" fill="#FF0034"/>
<path d="M43.0635 253.798C46.0037 253.382 48.9312 254.501 51.8917 254.703C54.3701 254.847 56.8447 254.357 59.1024 253.274C61.3601 252.191 63.3331 250.549 64.8516 248.488C63.9554 249.97 64.8428 252.059 66.2695 252.976C67.6963 253.893 69.4584 253.955 71.131 253.991L87.6367 254.343L87.325 255.838C88.693 254.224 91.5958 255.328 92.1665 257.404C92.7372 259.479 91.4728 261.726 89.7254 262.867C87.9779 264.008 85.858 264.291 83.8101 264.506C70.6413 265.89 57.3617 265.605 44.2578 263.657C41.8288 263.296 38.9796 262.524 38.1516 260.1C37.1504 257.169 40.1233 254.214 43.0635 253.798Z" fill="#591200"/>
<path d="M93.3724 256.538C92.3497 253.615 90.0393 251.421 88.4861 248.767C86.9845 246.16 86.2259 243.156 86.2999 240.111C86.3369 239.012 86.0821 237.924 85.5639 236.968C85.0457 236.013 84.2845 235.227 83.3655 234.7C83.318 234.673 83.2712 234.646 83.2252 234.617C81.7865 233.721 80.9112 232.115 80.0999 230.579L72.093 215.425C72.093 215.425 69.414 212.211 67.3989 212.651C65.3839 213.091 64.0819 215.314 63.9368 217.468C63.7916 219.623 64.5437 221.723 65.3188 223.724C70.5596 237.25 77.41 250.027 85.7069 261.748C86.4605 262.839 87.5556 263.617 88.8005 263.945C92.8859 264.962 94.5594 259.931 93.3724 256.538Z" fill="#591200"/>
<path d="M36.7224 255.832C37.7451 252.909 40.0555 250.715 41.6087 248.062C43.1102 245.455 43.8689 242.451 43.7949 239.405C43.7578 238.306 44.0126 237.218 44.5308 236.263C45.049 235.307 45.8102 234.522 46.7293 233.994C46.7768 233.968 46.8235 233.94 46.8696 233.911C48.3083 233.015 49.1835 231.409 49.9949 229.874L58.0017 214.72L59.1154 215.707C58.3947 213.684 60.6808 211.505 62.6958 211.945C64.7108 212.385 66.0128 214.608 66.158 216.763C66.3032 218.918 65.551 221.017 64.7759 223.018C59.5352 236.545 52.6847 249.321 44.3878 261.042C43.6342 262.133 42.5391 262.911 41.2942 263.24C37.2088 264.256 35.5353 259.225 36.7224 255.832Z" fill="#591200"/>
<path d="M49.28 195.151L49.3551 195.032C49.9504 195.01 50.5303 194.828 51.0402 194.505C51.5501 194.182 51.9731 193.728 52.2692 193.185C52.5654 192.643 52.7249 192.03 52.7327 191.405C52.7406 190.78 52.5964 190.163 52.314 189.612L49.28 195.151Z" fill="#FF0034"/>
<path d="M88.2699 172.515C87.9467 172.466 87.6168 172.517 87.3207 172.662C86.6633 173.039 86.6107 174.074 87.0075 174.741C87.466 175.366 88.063 175.865 88.7468 176.194C89.4324 176.525 89.9976 177.08 90.3578 177.776C90.6482 178.501 90.3396 179.532 89.6025 179.672L89.0592 181.726C90.0743 181.438 90.9602 180.783 91.5613 179.877C92.1623 178.972 92.4402 177.873 92.346 176.773C92.2518 175.674 91.7916 174.644 91.0462 173.866C90.3008 173.087 89.3178 172.609 88.2699 172.515Z" fill="#FF0034"/>
<path d="M103.486 178.409C104.339 181.243 104.256 184.296 103.248 187.073C103.814 186.526 104.269 185.865 104.588 185.13C104.906 184.395 105.082 183.601 105.104 182.793C105.126 181.986 104.994 181.183 104.716 180.43C104.439 179.677 104.02 178.99 103.486 178.409Z" fill="#FF0034"/>
<path d="M103.123 187.434C103.17 187.316 103.205 187.193 103.248 187.073C102.967 187.354 102.658 187.604 102.328 187.819L103.123 187.434Z" fill="#FD6584"/>
<path d="M162.563 81.9614L168.538 59.1475C168.743 58.3672 169.235 57.7042 169.905 57.304C170.576 56.9038 171.37 56.7991 172.114 57.0128L176.851 58.3795C177.595 58.5949 178.226 59.1111 178.607 59.8147C178.989 60.5183 179.089 61.352 178.885 62.1328L172.91 84.9466C172.705 85.7269 172.213 86.3899 171.543 86.7901C170.873 87.1903 170.078 87.2951 169.334 87.0814L164.597 85.7146C163.854 85.4992 163.222 84.9831 162.841 84.2795C162.46 83.5758 162.36 82.7422 162.563 81.9614Z" fill="#3F3D56"/>
<path d="M172.364 58.3363C171.963 58.2211 171.535 58.2776 171.173 58.4932C170.812 58.7089 170.547 59.0662 170.437 59.4867L164.462 82.3005C164.352 82.7213 164.406 83.1705 164.611 83.5497C164.817 83.9289 165.157 84.207 165.558 84.3231L170.295 85.6898C170.696 85.805 171.124 85.7485 171.485 85.5329C171.846 85.3172 172.111 84.9599 172.222 84.5394L178.197 61.7256C178.306 61.3048 178.253 60.8556 178.047 60.4764C177.842 60.0972 177.501 59.8191 177.101 59.703L172.364 58.3363Z" fill="url(#paint0_linear_59_15)"/>
<path d="M23.5161 182.845C23.3146 182.855 23.1152 182.799 22.9449 182.686C22.7745 182.573 22.6414 182.407 22.5636 182.212C22.4858 182.017 22.4671 181.801 22.51 181.594C22.5528 181.387 22.6553 181.199 22.8033 181.056L22.8707 180.775L22.8439 180.707C21.9385 178.441 16.1611 184.758 15.9113 186.888C15.8013 187.829 15.8477 188.783 16.0484 189.708C14.177 185.423 13.2052 180.766 13.199 176.053C13.1986 174.87 13.2612 173.688 13.3865 172.512C13.4901 171.549 13.6338 170.592 13.8176 169.642C14.8206 164.488 16.9742 159.657 20.1015 155.546C21.8899 155.651 23.4574 155.365 23.6087 151.727C23.6356 151.079 24.0929 150.519 24.1937 149.882C24.023 149.905 23.8494 149.92 23.6787 149.932C23.6255 149.934 23.5695 149.937 23.5163 149.94L23.4963 149.941C23.3086 149.95 23.1225 149.902 22.9604 149.802C22.7983 149.703 22.6671 149.556 22.5825 149.38C22.498 149.204 22.4637 149.006 22.4838 148.81C22.504 148.614 22.5777 148.428 22.696 148.275C22.7697 148.18 22.8435 148.085 22.9173 147.99C23.0293 147.843 23.1441 147.699 23.256 147.552C23.2689 147.538 23.2811 147.523 23.2924 147.508C23.4212 147.34 23.5499 147.176 23.6787 147.008C23.4437 146.625 23.1275 146.305 22.755 146.071C21.4646 145.278 19.6844 145.827 18.7523 147.052C17.8174 148.277 17.6411 149.996 17.9658 151.527C18.2851 152.829 18.8132 154.065 19.5277 155.182C19.4577 155.276 19.3849 155.367 19.3149 155.461C18.0357 157.187 16.9208 159.041 15.9862 160.996C16.2507 158.828 13.0171 150.998 11.7666 149.34C11.4358 148.894 10.9867 148.562 10.4759 148.384C9.96509 148.207 9.4156 148.192 8.89687 148.342C8.37813 148.492 7.91344 148.8 7.56153 149.228C7.20962 149.655 6.98629 150.182 6.91976 150.742C6.9172 150.767 6.9147 150.791 6.91226 150.816C7.098 150.926 7.27982 151.043 7.45772 151.166C7.6812 151.323 7.85436 151.547 7.95453 151.808C8.05469 152.07 8.07718 152.358 8.01904 152.633C7.9609 152.909 7.82485 153.159 7.62872 153.352C7.43258 153.545 7.18552 153.671 6.91988 153.714L6.89266 153.718C4.40639 157.444 12.3767 167.142 14.3718 164.965C13.4327 167.758 12.8437 170.667 12.6195 173.62C12.4926 175.362 12.5001 177.112 12.6419 178.852L12.6335 178.791C12.1903 175 4.58562 169.363 2.36493 169.832C1.08566 170.103 -0.174362 170.041 0.0198961 171.396L0.0293507 171.461C0.374032 171.608 0.709634 171.778 1.03421 171.969C1.21995 172.079 1.40177 172.196 1.57966 172.319C1.80314 172.476 1.9763 172.7 2.07646 172.962C2.17662 173.223 2.1991 173.511 2.14097 173.786C2.08283 174.062 1.94678 174.312 1.75065 174.505C1.55452 174.698 1.30745 174.824 1.04182 174.867L1.01461 174.872C0.995019 174.875 0.978214 174.877 0.958646 174.88C-0.17308 178.968 8.21976 185.564 13.3221 183.465H13.3249C13.8306 185.771 14.5632 188.016 15.511 190.163H23.3204C23.3484 190.072 23.3736 189.978 23.3988 189.887C22.6759 189.935 21.9502 189.89 21.2379 189.752C21.8173 189.006 22.3967 188.254 22.9761 187.508C22.989 187.494 23.0012 187.479 23.0125 187.464C23.3064 187.082 23.6031 186.703 23.897 186.321L23.8972 186.32C23.9128 185.149 23.7846 183.981 23.5161 182.845ZM14.5733 164.38L14.5774 164.374L14.5733 164.386V164.38ZM12.8435 180.747L12.7763 180.589C12.7791 180.474 12.7791 180.36 12.7763 180.242C12.7763 180.21 12.7707 180.177 12.7707 180.145C12.7959 180.348 12.8183 180.551 12.8463 180.753L12.8435 180.747Z" fill="#F2F2F2"/>
<path d="M358.484 197.604C358.215 198.741 358.087 199.909 358.103 201.079L358.103 201.08C358.397 201.462 358.694 201.841 358.988 202.223C358.999 202.238 359.011 202.253 359.024 202.267C359.603 203.013 360.183 203.765 360.762 204.511C360.05 204.649 359.324 204.694 358.601 204.646C358.626 204.738 358.652 204.832 358.68 204.923H366.489C367.437 202.775 368.169 200.53 368.675 198.224H368.678C373.78 200.323 382.173 193.727 381.041 189.64C381.022 189.637 381.005 189.634 380.985 189.631L380.958 189.626C380.693 189.583 380.445 189.457 380.249 189.264C380.053 189.071 379.917 188.821 379.859 188.545C379.801 188.27 379.823 187.982 379.924 187.721C380.024 187.459 380.197 187.235 380.42 187.078C380.598 186.955 380.78 186.838 380.966 186.728C381.29 186.537 381.626 186.367 381.971 186.22L381.98 186.155C382.174 184.8 380.914 184.862 379.635 184.591C377.414 184.122 369.81 189.759 369.366 193.55L369.358 193.612C369.5 191.871 369.507 190.121 369.38 188.379C369.156 185.427 368.567 182.517 367.628 179.724C369.623 181.901 377.594 172.204 375.107 168.478L375.08 168.473C374.814 168.43 374.567 168.304 374.371 168.111C374.175 167.918 374.039 167.668 373.981 167.392C373.923 167.117 373.945 166.829 374.045 166.568C374.146 166.306 374.319 166.082 374.542 165.925C374.72 165.802 374.902 165.685 375.088 165.575C375.085 165.55 375.083 165.526 375.08 165.502C375.014 164.941 374.79 164.414 374.438 163.987C374.087 163.559 373.622 163.251 373.103 163.101C372.584 162.951 372.035 162.966 371.524 163.143C371.013 163.321 370.564 163.654 370.233 164.099C368.983 165.757 365.749 173.587 366.014 175.755C365.079 173.8 363.964 171.946 362.685 170.22C362.615 170.126 362.542 170.035 362.472 169.941C363.187 168.824 363.715 167.588 364.034 166.286C364.359 164.755 364.183 163.037 363.248 161.811C362.316 160.586 360.535 160.037 359.245 160.83C358.872 161.064 358.556 161.384 358.321 161.767C358.45 161.935 358.579 162.099 358.708 162.267C358.719 162.282 358.731 162.297 358.744 162.311C358.856 162.458 358.971 162.602 359.083 162.749C359.156 162.844 359.23 162.939 359.304 163.034C359.422 163.187 359.496 163.373 359.516 163.569C359.536 163.765 359.502 163.963 359.417 164.139C359.333 164.315 359.202 164.462 359.04 164.561C358.877 164.661 358.691 164.709 358.504 164.7L358.484 164.699C358.43 164.696 358.374 164.694 358.321 164.691C358.151 164.679 357.977 164.664 357.806 164.641C357.907 165.278 358.364 165.839 358.391 166.486C358.543 170.124 360.11 170.41 361.898 170.305C365.026 174.416 367.179 179.247 368.182 184.401C368.367 185.35 368.511 186.307 368.613 187.272C368.739 188.447 368.801 189.629 368.801 190.812C368.795 195.525 367.823 200.182 365.952 204.467C366.152 203.542 366.199 202.588 366.089 201.647C365.839 199.517 360.061 193.2 359.156 195.466L359.129 195.534L359.197 195.815C359.345 195.959 359.447 196.147 359.49 196.353C359.533 196.56 359.514 196.776 359.436 196.971C359.359 197.166 359.226 197.332 359.055 197.445C358.885 197.558 358.685 197.614 358.484 197.604ZM367.427 179.145L367.423 179.134L367.427 179.139V179.145ZM369.154 195.512C369.182 195.31 369.204 195.107 369.229 194.904C369.229 194.937 369.224 194.969 369.224 195.001C369.221 195.119 369.221 195.233 369.224 195.348L369.156 195.507L369.154 195.512Z" fill="#F2F2F2"/>
</g>
<defs>
<filter id="filter0_d_59_15" x="212.263" y="119.964" width="42.2558" height="98.8123" filterUnits="userSpaceOnUse" color-interpolation-filters="sRGB">
<feFlood flood-opacity="0" result="BackgroundImageFix"/>
<feColorMatrix in="SourceAlpha" type="matrix" values="0 0 0 0 0 0 0 0 0 0 0 0 0 0 0 0 0 0 127 0" result="hardAlpha"/>
<feOffset dy="4"/>
<feGaussianBlur stdDeviation="2"/>
<feComposite in2="hardAlpha" operator="out"/>
<feColorMatrix type="matrix" values="0 0 0 0 0 0 0 0 0 0 0 0 0 0 0 0 0 0 0.25 0"/>
<feBlend mode="normal" in2="BackgroundImageFix" result="effect1_dropShadow_59_15"/>
<feBlend mode="normal" in="SourceGraphic" in2="effect1_dropShadow_59_15" result="shape"/>
</filter>
<linearGradient id="paint0_linear_59_15" x1="171.329" y1="58.2778" x2="171.329" y2="85.7483" gradientUnits="userSpaceOnUse">
<stop stop-color="#E20A10"/>
<stop offset="1" stop-color="#7C0509"/>
</linearGradient>
<clipPath id="clip0_59_15">
<rect width="382" height="295" fill="white"/>
</clipPath>
</defs>
</svg>
