<svg width="382" height="329" viewBox="0 0 382 329" fill="none" xmlns="http://www.w3.org/2000/svg">
<g clip-path="url(#clip0_59_69)">
<path d="M158.9 285.821L163.072 272.232C158.052 266.707 151.76 262.491 144.741 259.949C151.598 271.311 144.953 286.133 147.722 299.112C148.617 303.153 150.41 306.941 152.967 310.196C155.525 313.45 158.782 316.087 162.498 317.912L168.829 325.757C172.148 319.958 174.171 313.508 174.757 306.851C175.344 300.195 174.48 293.491 172.226 287.2C170.927 283.684 169.19 280.345 167.056 277.263C163.294 281.686 158.9 285.821 158.9 285.821Z" fill="#D2D2D2"/>
<path d="M135.959 287.557L133.633 273.534C126.676 270.827 119.164 269.86 111.748 270.716C122.953 277.827 123.615 294.057 131.882 304.438C134.485 307.657 137.779 310.248 141.519 312.02C145.26 313.792 149.351 314.7 153.49 314.675L162.656 318.873C163.04 312.202 161.974 305.527 159.53 299.308C157.087 293.089 153.324 287.473 148.502 282.848C145.771 280.28 142.727 278.067 139.443 276.26C138.048 281.897 135.959 287.557 135.959 287.557Z" fill="#CAC8C8"/>
<path d="M272.512 322.27L266.085 322.269L263.028 297.48L272.513 297.48L272.512 322.27Z" fill="#FFB6B6"/>
<path d="M274.151 328.499L253.429 328.499V328.237C253.429 326.097 254.279 324.046 255.791 322.533C257.304 321.021 259.355 320.171 261.494 320.171H261.495L265.28 317.299L272.342 320.171L274.151 320.171L274.151 328.499Z" fill="#994243"/>
<path d="M376.325 298.827L371.944 303.529L351.725 288.864L358.193 281.925L376.325 298.827Z" fill="#FFB6B6"/>
<path d="M382 301.876L367.871 317.035L367.679 316.856C366.115 315.398 365.193 313.377 365.118 311.239C365.043 309.102 365.82 307.021 367.278 305.456L367.759 300.729L374.675 297.521L375.908 296.197L382 301.876Z" fill="#994243"/>
<path d="M366.816 284.896L360.023 299.103L318.311 271.484L312.243 263.216L292.346 236.105L284.258 248.939L278.631 262.355C276.797 263.552 275.251 265.141 274.106 267.007C272.961 268.873 272.244 270.971 272.008 273.148L271.751 275.523L275.307 307.494L261.79 311.644L254.027 268.696L256.565 259.39L259.178 246.326L272.331 205.045H307.53L327.719 248.02L329.195 256.777L334.919 263.347L366.816 284.896Z" fill="#2D2D2D"/>
<path d="M293.666 137.506L299.591 142.018L306.737 144.214C306.737 144.214 309.691 185.771 312.353 188.433C315.015 191.095 312.614 191.167 313.149 194.625C313.684 198.083 314.984 205.172 314.984 205.172C297.016 214.683 281.526 214.938 269.084 203.808C268.925 203.12 269.005 202.397 269.313 201.761C269.62 201.125 270.136 200.613 270.775 200.31C273.09 199.081 268.64 193.346 270.532 192.387C272.425 191.428 269.763 183.109 269.763 183.109L271.509 165.753L270.13 162.978L273.496 146.001L279.338 143.868L281.672 138.245L293.666 137.506Z" fill="#E20A10"/>
<path d="M297.378 211.367C297.351 210.616 297.489 209.869 297.783 209.178C298.076 208.486 298.518 207.868 299.076 207.366C299.634 206.864 300.296 206.49 301.014 206.271C301.733 206.052 302.49 205.994 303.234 206.099L311.584 189.867L316.237 198.134L307.594 212.281C307.333 213.518 306.628 214.617 305.612 215.369C304.596 216.121 303.339 216.474 302.08 216.361C300.821 216.249 299.646 215.678 298.78 214.758C297.913 213.837 297.414 212.63 297.378 211.367Z" fill="#FFB6B6"/>
<path d="M311.441 207.396L329.352 179.635L329.293 179.507C329.225 179.361 325.169 170.6 321.239 162.577C320.634 161.341 320.032 160.123 319.448 158.956C319.196 158.453 318.947 157.96 318.703 157.477C317.052 154.223 315.61 151.533 314.749 150.256C312.845 147.367 310.01 145.216 306.715 144.161L306.632 144.14L306.553 144.173C304.941 144.853 303.61 146.062 302.777 147.6C301.945 149.139 301.662 150.915 301.974 152.636C303.528 160.938 306.99 168.766 312.087 175.5L314.99 179.328L304.9 201.267L311.441 207.396Z" fill="#E20A10"/>
<path d="M249.85 100.982C250.343 101.549 250.706 102.216 250.914 102.938C251.121 103.66 251.168 104.418 251.05 105.16C250.933 105.902 250.654 106.609 250.234 107.231C249.813 107.853 249.262 108.376 248.618 108.762L252.351 126.63L243.532 123.138L241.339 106.706C240.762 105.581 240.617 104.283 240.933 103.059C241.249 101.834 242.003 100.769 243.052 100.063C244.102 99.3577 245.373 99.0616 246.626 99.231C247.879 99.4005 249.026 100.024 249.85 100.982Z" fill="#FFB6B6"/>
<path d="M241.426 112.923L244.992 145.768L245.118 145.83C245.223 145.881 249.741 148.098 255.287 150.737C256.223 151.183 256.089 153.111 257.067 153.572C257.74 153.89 259.519 152.738 260.2 153.056C266.262 155.891 272.392 158.648 274.835 159.395C278.133 160.44 281.69 160.326 284.914 159.071L284.992 159.035L285.032 158.959C285.856 157.416 286.13 155.638 285.807 153.919C285.485 152.199 284.587 150.641 283.26 149.501C276.826 144.03 269.208 140.13 261.008 138.107L256.342 136.963L250.366 113.565L241.426 112.923Z" fill="#E20A10"/>
<path d="M287.348 135.645C293.821 135.645 299.069 130.397 299.069 123.924C299.069 117.451 293.821 112.203 287.348 112.203C280.875 112.203 275.628 117.451 275.628 123.924C275.628 130.397 280.875 135.645 287.348 135.645Z" fill="#FFB6B6"/>
<path d="M275.712 116.07C276.676 113.266 281.474 111.321 289.252 111.05C297.031 110.78 299.004 119.947 299.004 119.947C304.196 124.159 293.459 135.438 292.939 135.031L293.173 132.912C293.56 129.403 295.203 126.664 293.113 123.006L291.106 123.029C288.514 123.528 285.922 124.026 283.33 124.525L286.399 121.823L286.312 121.689C285.007 122.369 283.586 122.8 282.123 122.961C280.474 123.058 278.671 122.401 277.881 120.95C277.67 120.551 277.541 120.114 277.502 119.665C275.278 120.553 274.261 123.295 274.261 123.295C274.261 123.295 274.748 118.874 275.712 116.07Z" fill="#2D2D2D"/>
<path d="M47.2216 116.773C47.0626 116.571 46.8914 116.38 46.7089 116.199C46.7535 116.138 46.7981 116.071 46.8427 116.009L47.2216 116.773Z" fill="#09081B"/>
<path d="M49.5011 163.915C47.5839 167.32 43.755 169.221 39.9596 170.151C35.6964 171.268 31.2072 171.181 26.9904 169.901C26.4554 169.728 25.9203 169.527 25.402 169.304C25.6512 168.642 25.8487 167.962 25.9928 167.27C26.1868 166.333 26.2839 165.379 26.2826 164.422C25.8603 165.246 25.3132 166 24.6608 166.657C24.1574 167.186 23.5858 167.645 22.9609 168.022C21.0227 166.846 19.3445 165.287 18.0285 163.441C18.1121 163.235 18.1957 163.028 18.2738 162.822C18.6785 161.745 18.999 160.638 19.2324 159.511C19.549 157.988 19.7078 156.436 19.7061 154.88C19.0189 156.221 18.1277 157.446 17.0643 158.514C16.7455 158.855 16.4068 159.177 16.05 159.478C15.4974 157.8 15.2838 156.028 15.4216 154.267C15.5594 152.505 16.0458 150.789 16.8525 149.217C19.0596 145.137 23.3399 142.713 27.1521 140.076C30.9698 137.44 34.7875 133.873 35.1108 129.241C35.3281 126.114 33.8791 122.982 34.4587 119.905C34.7025 118.608 35.2976 117.402 36.1792 116.42C37.0609 115.437 38.1952 114.716 39.4587 114.333C40.7222 113.951 42.0664 113.923 43.3448 114.252C44.6232 114.581 45.7868 115.254 46.7089 116.199C44.5464 119.264 42.3951 122.436 41.5201 126.081C40.6284 129.793 41.3585 134.146 44.2845 136.604C45.2877 137.451 46.5194 138.053 47.2941 139.112C48.3251 140.517 48.3307 142.389 48.4979 144.117C48.8323 147.478 49.9303 150.711 50.521 154.038C51.1174 157.36 51.1508 160.966 49.5011 163.915Z" fill="#2D2D2D"/>
<path d="M10.199 302.131L15.2857 306.061L32.8652 288.311L25.3577 282.51L10.199 302.131Z" fill="#A0616A"/>
<path d="M10.4154 298.291L18.8269 304.024L16.165 307.47L19.7299 318.656C19.9061 319.209 19.901 319.803 19.7155 320.353C19.5299 320.902 19.1736 321.378 18.6986 321.71C18.2235 322.043 17.6546 322.215 17.0749 322.201C16.4952 322.188 15.935 321.989 15.4762 321.634L5.90352 314.237L6.88655 309.555L3.60928 312.464L0 309.675L10.4154 298.291Z" fill="#994243"/>
<path d="M36.0054 126.675C36.0046 128.663 36.4918 130.62 37.424 132.375C38.3562 134.131 39.7051 135.63 41.3521 136.742C42.9992 137.855 44.894 138.545 46.8704 138.754C48.8468 138.963 50.8442 138.684 52.6874 137.941C54.5305 137.197 56.163 136.013 57.4416 134.491C58.7202 132.97 59.6057 131.157 60.0205 129.214C60.4353 127.27 60.3666 125.254 59.8205 123.343C59.2744 121.432 58.2675 119.685 56.8883 118.254L56.83 118.195C56.7329 118.093 56.6358 117.991 56.5338 117.894L56.5319 117.894L56.5303 117.893L56.5293 117.891L56.5289 117.889C56.4027 117.773 56.2764 117.656 56.1452 117.545C54.0084 115.67 51.0051 113.635 47.9406 113.635C41.2338 113.635 36.0054 119.968 36.0054 126.675Z" fill="#2D2D2D"/>
<path d="M105.209 120.44C105.267 121.088 105.182 121.74 104.961 122.351C104.74 122.963 104.387 123.518 103.928 123.979C103.469 124.439 102.914 124.793 102.303 125.016C101.693 125.239 101.04 125.325 100.393 125.268L70.3278 152.415L65.154 144.243L96.3336 120.128C96.5006 119.047 97.0587 118.064 97.9021 117.366C98.7454 116.668 99.8155 116.304 100.909 116.342C102.003 116.38 103.045 116.819 103.838 117.574C104.63 118.329 105.118 119.349 105.209 120.44Z" fill="#A0616A"/>
<path d="M57.4786 160.609C57.4786 160.609 58.5972 162.675 62.4183 159.485C65.4773 156.931 80.1331 145.843 83.2905 141.299C84.0114 141.585 84.8069 141.622 85.5516 141.406C86.2963 141.19 86.948 140.732 87.4038 140.104L78.7529 132.528C76.1645 132.826 76.22 134.565 76.4896 135.552L69.964 138.509L53.1131 149.278L56.6435 159.13L57.4786 160.609Z" fill="#DB3E37"/>
<path d="M41.1539 179.644L40.5238 182.645L39.9887 193.715L63.5459 195.01L62.8143 177.984L60.5309 174.232L41.1539 179.644Z" fill="#A0616A"/>
<path d="M51.1379 139.666C56.7607 139.666 61.3188 135.108 61.3188 129.485C61.3188 123.861 56.7607 119.303 51.1379 119.303C45.5151 119.303 40.9569 123.861 40.9569 129.485C40.9569 135.108 45.5151 139.666 51.1379 139.666Z" fill="#A0616A"/>
<path d="M33.0627 167.038L33.0001 158.575C32.9987 155.53 34.0291 152.574 35.9234 150.19C37.8177 147.806 40.4639 146.134 43.4305 145.447L43.4689 145.438L45.482 142.725L53.6611 143.543L55.1603 146.607L61.087 150.137L63.3688 157.472C64.3586 158.132 65.2021 158.988 65.847 159.988C66.4918 160.987 66.9243 162.109 67.1174 163.282C67.8922 168.231 64.4274 173.183 64.0152 173.75L62.9534 179.731L39.8528 183.807L39.6652 183.831L33.0627 167.038Z" fill="#DB3E37"/>
<path d="M63.5961 127.669C62.4086 128.422 61.1764 129.101 59.9065 129.704C58.6176 130.323 57.2695 130.81 55.8826 131.159C55.4858 130.288 55.0002 129.46 54.4335 128.689C54.5793 129.603 54.5831 130.534 54.4447 131.448C52.1459 131.819 49.7915 131.626 47.5839 130.885L45.6667 127.669L45.5218 131.259C43.9334 131.549 42.3505 131.822 40.7622 132.106C40.6674 132.117 40.5727 132.139 40.4835 132.156C39.497 127.708 40.8959 122.809 44.0058 119.844C45.5499 118.387 47.476 117.399 49.5599 116.995C51.6438 116.59 53.7997 116.786 55.7767 117.559C56.0275 117.659 56.2839 117.771 56.5291 117.888L56.5295 117.89L56.5307 117.892L56.5325 117.893L56.5347 117.893C56.6796 117.966 56.8022 118.139 56.9638 118.122C63.9193 117.347 64.1423 122.742 63.5961 127.669Z" fill="#2D2D2D"/>
<path d="M46.6592 289.003L51.7537 292.923L69.2977 275.137L61.7787 269.352L46.6592 289.003Z" fill="#A0616A"/>
<path d="M47.3298 285.517L55.7528 291.234L53.0978 294.684L56.6854 305.864C56.8627 306.416 56.8588 307.011 56.6744 307.56C56.4899 308.11 56.1346 308.587 55.6602 308.92C55.1858 309.254 54.6173 309.427 54.0375 309.414C53.4578 309.402 52.8972 309.204 52.4377 308.851L42.8501 301.473L43.8237 296.788L40.5523 299.705L36.9374 296.923L47.3298 285.517Z" fill="#994243"/>
<path d="M30.1276 267.296L30.1274 267.229L32.5419 263.068L30.0764 257.652L30.0024 243.736L30.4021 241.647C30.9396 238.838 30.7832 235.939 29.9464 233.204L29.9014 224.733C29.8148 222.611 33.1018 220.745 32.3353 218.976C25.0899 202.255 39.7339 189.5 39.8328 189.397L40.1321 189.086L41.7557 190.316L43.3011 190.318L64.1557 194.118L64.3063 194.399C65.1265 195.938 66.7096 201.241 66.8035 203.641C67.8428 204.844 79.6819 218.544 80.7344 219.496C87.8462 225.931 91.918 236.583 93.7122 242.359C94.1578 243.787 94.2476 245.301 93.9738 246.772C93.7001 248.242 93.071 249.623 92.1414 250.794L65.2179 280.286L57.9726 273.598L72.5406 247.05L71.4901 244.356C69.6052 244.008 67.8994 243.017 66.6637 241.552L63.7138 238.051C62.8971 237.084 62.3781 235.901 62.2196 234.645L60.4307 234.43L54.0226 227.702L49.5768 267.965L48.3682 271.145L27.3192 295.892L18.4019 290.318L30.1276 267.296Z" fill="#2D2D2D"/>
<path d="M26.9131 94.4111C26.5087 94.9203 26.2209 95.5119 26.0698 96.1443C25.9188 96.7767 25.9082 97.4345 26.0389 98.0715C26.1696 98.7084 26.4384 99.3089 26.8262 99.8308C27.2141 100.353 27.7117 100.783 28.2839 101.092L21.5908 120.908L27.0561 141.907L35.8689 137.923L30.4307 122.083L34.4993 99.0279C34.9542 98.0322 35.0281 96.9043 34.7069 95.8578C34.3857 94.8112 33.6918 93.9189 32.7567 93.3498C31.8216 92.7807 30.7103 92.5745 29.6333 92.7701C28.5563 92.9657 27.5884 93.5496 26.9131 94.4111Z" fill="#A0616A"/>
<path d="M34.9799 159.21C34.9799 159.21 32.91 160.321 31.4705 155.556C30.3181 151.741 22.4751 131.028 22.3338 125.496C21.5745 125.339 20.8891 124.933 20.3858 124.343C19.8824 123.753 19.5895 123.013 19.5534 122.238L30.9444 120.662C32.9432 122.333 31.9414 123.755 31.1737 124.432L35.0534 131.004L43.1625 148.746L36.4904 158.433L34.9799 159.21Z" fill="#DB3E37"/>
<path d="M40.7599 132.105C41.9297 128.577 44.0272 125.429 46.8325 122.991C49.6378 120.553 53.0474 118.915 56.7038 118.249C56.7183 118.244 56.7669 118.225 56.8301 118.195C56.8689 118.171 56.9175 118.147 56.966 118.123C56.8203 118.04 56.6795 117.967 56.5338 117.894L56.5319 117.894L56.5304 117.893L56.5293 117.891L56.529 117.889C56.4027 117.773 56.2764 117.656 56.1453 117.545L55.7762 117.559C55.7762 117.559 42.8045 115.505 40.7599 132.105Z" fill="#FD6584"/>
<path d="M208.142 245.562C209.558 243.434 208.72 240.388 206.27 238.758C203.821 237.128 200.688 237.532 199.272 239.66C197.856 241.788 198.694 244.835 201.143 246.464C203.593 248.094 206.726 247.69 208.142 245.562Z" fill="#D2D2D2"/>
<path d="M179.403 166.135C180.819 164.007 179.981 160.961 177.532 159.331C175.082 157.702 171.949 158.106 170.533 160.234C169.118 162.362 169.956 165.408 172.405 167.038C174.854 168.667 177.988 168.263 179.403 166.135Z" fill="#D2D2D2"/>
<path d="M299.582 288.41C300.998 286.282 300.16 283.236 297.711 281.606C295.261 279.977 292.128 280.381 290.712 282.509C289.296 284.637 290.134 287.683 292.584 289.313C295.033 290.942 298.167 290.538 299.582 288.41Z" fill="#D2D2D2"/>
<path d="M56.612 32.8871C58.0277 30.759 57.1897 27.7128 54.7403 26.0831C52.2909 24.4534 49.1576 24.8575 47.7419 26.9855C46.3262 29.1135 47.1642 32.1598 49.6136 33.7894C52.0629 35.4191 55.1962 35.0151 56.612 32.8871Z" fill="#D2D2D2"/>
<path d="M169.998 7.80502C171.414 5.67699 170.576 2.63077 168.126 1.00109C165.677 -0.62858 162.544 -0.224585 161.128 1.90345C159.712 4.03149 160.55 7.07774 163 8.70741C165.449 10.3371 168.582 9.93306 169.998 7.80502Z" fill="#D2D2D2"/>
<path d="M116.335 218.24C117.751 216.112 116.913 213.066 114.464 211.437C112.014 209.807 108.881 210.211 107.465 212.339C106.05 214.467 106.888 217.513 109.337 219.143C111.786 220.773 114.92 220.368 116.335 218.24Z" fill="#C2C0C0"/>
<path d="M350.226 329H10.4363C10.2716 329 10.1139 328.934 9.99756 328.817C9.88128 328.701 9.81598 328.543 9.81598 328.378C9.81598 328.213 9.88128 328.055 9.99756 327.939C10.1139 327.822 10.2716 327.756 10.4363 327.756H350.226C350.391 327.756 350.549 327.821 350.666 327.938C350.782 328.055 350.848 328.213 350.848 328.378C350.848 328.543 350.782 328.701 350.666 328.818C350.549 328.934 350.391 329 350.226 329Z" fill="#CCCCCC"/>
<path d="M201.357 100.214L213.73 98.1694C213.831 98.1528 213.929 98.1164 214.017 98.0621C214.104 98.0078 214.18 97.9367 214.24 97.853C214.3 97.7693 214.343 97.6745 214.367 97.5741C214.39 97.4737 214.394 97.3697 214.377 97.268C214.36 97.1663 214.324 97.0689 214.269 96.9814C214.215 96.8939 214.143 96.818 214.059 96.7581C213.976 96.6981 213.881 96.6553 213.78 96.6321C213.68 96.6089 213.576 96.6057 213.474 96.6227L201.101 98.6669C200.897 98.7013 200.714 98.8153 200.593 98.9842C200.473 99.1531 200.424 99.3629 200.458 99.5677C200.492 99.7725 200.605 99.9555 200.774 100.077C200.942 100.198 201.152 100.247 201.357 100.214Z" fill="#C5C5C5"/>
<path d="M202.379 106.4L214.752 104.356C214.957 104.322 215.14 104.208 215.261 104.039C215.382 103.87 215.431 103.66 215.397 103.455C215.363 103.25 215.249 103.067 215.08 102.946C214.911 102.824 214.701 102.775 214.496 102.809L202.124 104.854C202.022 104.87 201.924 104.907 201.837 104.961C201.749 105.015 201.673 105.086 201.613 105.17C201.553 105.254 201.51 105.348 201.486 105.449C201.463 105.549 201.459 105.653 201.476 105.755C201.493 105.857 201.53 105.954 201.584 106.042C201.639 106.129 201.71 106.205 201.794 106.265C201.878 106.325 201.973 106.368 202.073 106.391C202.173 106.414 202.277 106.417 202.379 106.4Z" fill="#C5C5C5"/>
<path d="M203.401 112.587L215.774 110.543C215.979 110.509 216.162 110.395 216.283 110.226C216.404 110.057 216.453 109.847 216.419 109.642C216.385 109.436 216.271 109.253 216.102 109.132C215.933 109.011 215.723 108.962 215.518 108.996L203.146 111.04C203.044 111.057 202.947 111.094 202.859 111.148C202.772 111.202 202.696 111.273 202.636 111.357C202.576 111.441 202.533 111.535 202.51 111.636C202.487 111.736 202.483 111.84 202.5 111.941C202.517 112.043 202.553 112.14 202.608 112.228C202.662 112.315 202.733 112.391 202.817 112.451C202.901 112.511 202.995 112.554 203.095 112.577C203.196 112.6 203.3 112.604 203.401 112.587Z" fill="#C5C5C5"/>
</g>
<defs>
<clipPath id="clip0_59_69">
<rect width="382" height="329" fill="white"/>
</clipPath>
</defs>
</svg>
