<svg width="394" height="320" viewBox="0 0 394 320" fill="none" xmlns="http://www.w3.org/2000/svg">
<path d="M115.765 0C75.8668 0 43.412 32.4548 43.412 72.3532C43.4006 82.5663 45.5632 92.6648 49.756 101.978C61.0952 127.145 86.413 144.706 115.765 144.706C134.951 144.696 153.348 137.069 166.915 123.503C180.481 109.936 188.108 91.5392 188.118 72.3532C188.118 32.4548 155.658 0 115.765 0ZM175.627 101.439C170.164 112.668 161.655 122.136 151.07 128.762C140.486 135.389 128.253 138.908 115.765 138.918C87.5591 138.918 63.3931 121.281 53.7209 96.4555C50.7233 88.7739 49.19 80.599 49.2003 72.3532C49.2003 35.6498 79.0619 5.78826 115.765 5.78826C152.469 5.78826 182.33 35.6498 182.33 72.3532C182.343 82.4328 180.05 92.3817 175.627 101.439Z" fill="#FFB6B6"/>
<path d="M99.4575 78.9708C101.424 78.9581 103.334 79.6283 104.862 80.8671C106.389 82.1058 107.439 83.8364 107.833 85.7633C108.226 87.6901 107.939 89.6939 107.02 91.4324C106.1 93.171 104.606 94.5366 102.792 95.2961C100.978 96.0555 98.9565 96.1618 97.0728 95.5968C95.189 95.0318 93.5598 93.8304 92.4632 92.1979C91.3666 90.5653 90.8706 88.6028 91.06 86.6452C91.2493 84.6877 92.1122 82.8566 93.5013 81.4644C94.2798 80.6755 95.2072 80.0489 96.2296 79.6209C97.252 79.1928 98.3491 78.9719 99.4575 78.9708ZM99.4575 75.3532C97.0721 75.3519 94.7398 76.058 92.7557 77.3822C90.7715 78.7064 89.2246 80.5893 88.3106 82.7926C87.3965 84.996 87.1564 87.421 87.6205 89.7608C88.0846 92.1007 89.2322 94.2504 90.918 95.938C92.6039 97.6257 94.7523 98.7756 97.0917 99.2422C99.4311 99.7088 101.856 99.4713 104.061 98.5596C106.265 97.6479 108.149 96.103 109.476 94.1203C110.802 92.1376 111.511 89.8061 111.512 87.4206C111.514 84.2219 110.245 81.1534 107.984 78.8903C105.723 76.6272 102.656 75.3549 99.4575 75.3532ZM124.587 58.1047C125.678 58.1102 126.727 57.6821 127.502 56.9146C128.278 56.147 128.716 55.1029 128.722 54.0119C128.722 53.998 128.722 53.9841 128.722 53.9702C128.727 53.4357 128.627 52.9055 128.427 52.4098C128.227 51.9141 127.932 51.4626 127.557 51.081C127.183 50.6995 126.737 50.3955 126.245 50.1862C125.753 49.977 125.225 49.8667 124.691 49.8616C124.665 49.8613 124.639 49.8613 124.613 49.8616C123.52 49.8513 122.468 50.2756 121.687 51.0412C120.907 51.8069 120.463 52.8511 120.453 53.9442C120.443 55.0373 120.867 56.0897 121.633 56.8699C122.398 57.6501 123.442 58.0942 124.535 58.1045C124.553 58.1047 124.57 58.1047 124.587 58.1047ZM133.231 78.9708C135.198 78.9581 137.108 79.6283 138.635 80.8671C140.163 82.1058 141.213 83.8364 141.606 85.7632C142 87.6901 141.713 89.6939 140.793 91.4324C139.874 93.171 138.38 94.5366 136.566 95.2961C134.751 96.0555 132.73 96.1618 130.846 95.5968C128.962 95.0318 127.333 93.8304 126.237 92.1979C125.14 90.5653 124.644 88.6028 124.833 86.6452C125.023 84.6877 125.886 82.8566 127.275 81.4644C128.053 80.6755 128.981 80.0489 130.003 79.6209C131.025 79.1928 132.123 78.9719 133.231 78.9708ZM133.231 75.3532C130.847 75.3532 128.516 76.0602 126.534 77.3847C124.551 78.7093 123.006 80.592 122.094 82.7947C121.182 84.9973 120.943 87.4211 121.408 89.7595C121.873 92.0978 123.021 94.2457 124.707 95.9316C126.393 97.6175 128.541 98.7655 130.879 99.2307C133.218 99.6958 135.641 99.4571 137.844 98.5447C140.047 97.6323 141.929 96.0873 143.254 94.1049C144.579 92.1225 145.286 89.7919 145.286 87.4077C145.286 85.8247 144.974 84.2572 144.368 82.7947C143.762 81.3321 142.874 80.0032 141.755 78.8839C140.635 77.7645 139.307 76.8766 137.844 76.2708C136.382 75.665 134.814 75.3532 133.231 75.3532Z" fill="#BB0000"/>
<path d="M130.814 66.3995H124.612L120.801 58.6345C120.493 58.09 120.064 57.6242 119.546 57.2739C119.028 56.9236 118.435 56.6983 117.815 56.6156C117.196 56.5329 116.565 56.5952 115.973 56.7976C115.382 56.9999 114.845 57.3368 114.405 57.7817L105.142 66.7096C104.383 67.4836 103.953 68.5203 103.94 69.6038C103.94 71.8519 105.568 72.653 106.33 73.1051C112.209 76.4902 114.276 76.8649 114.276 78.5575V87.0719C114.276 87.6201 114.494 88.146 114.882 88.5336C115.269 88.9213 115.795 89.1391 116.343 89.1391C116.892 89.1391 117.417 88.9213 117.805 88.5336C118.193 88.146 118.411 87.6201 118.411 87.0719V75.4437C118.411 73.7382 114.483 72.3428 112.17 70.534L118.488 63.8801C120.904 67.5624 122.015 70.534 123.398 70.534H130.814C131.362 70.5349 131.888 70.318 132.277 69.9309C132.665 69.5438 132.884 69.0184 132.885 68.4701C132.885 67.9219 132.668 67.3957 132.281 67.0074C131.894 66.6191 131.369 66.4004 130.821 66.3996L130.814 66.3995Z" fill="#BB0000"/>
<path d="M80.2561 181.872C75.1783 172.771 66.9573 165.833 57.1324 162.357C47.3076 158.881 36.5526 159.105 26.8812 162.988C17.2098 166.871 9.28532 174.145 4.59148 183.45C-0.102352 192.755 -1.24364 203.452 1.38132 213.537C4.00627 223.623 10.2175 232.406 18.8519 238.242C27.4863 244.078 37.9519 246.566 48.289 245.241C58.6261 243.916 68.1259 238.869 75.0095 231.044C81.8932 223.22 85.6887 213.154 85.6854 202.733C85.6831 195.43 83.8142 188.249 80.2561 181.872ZM42.8292 242.156C32.4421 242.103 22.5001 237.933 15.1835 230.56C7.86698 223.187 3.77323 213.213 3.8001 202.826C3.82698 192.439 7.97229 182.486 15.3269 175.151C22.6815 167.816 32.645 163.697 43.0322 163.698C53.4194 163.698 63.3824 167.819 70.736 175.155C78.0896 182.491 82.2337 192.444 82.2592 202.831C82.2847 213.218 78.1897 223.191 70.8721 230.564C63.5546 237.936 53.6121 242.105 43.225 242.156C43.093 242.157 42.9611 242.157 42.8292 242.156Z" fill="#FFB6B6"/>
<path d="M184.681 151.884C179.052 151.882 173.478 152.988 168.277 155.141C163.075 157.293 158.349 160.448 154.368 164.427C150.386 168.406 147.228 173.131 145.072 178.331C142.917 183.53 141.807 189.104 141.806 194.733C141.805 200.362 142.913 205.936 145.066 211.136C147.22 216.337 150.377 221.063 154.357 225.043C158.337 229.024 163.062 232.181 168.262 234.335C173.463 236.489 179.037 237.597 184.665 237.597H184.681C184.959 237.597 185.231 237.597 185.509 237.585C196.801 237.368 207.551 232.701 215.421 224.6C223.292 216.499 227.645 205.619 227.536 194.325C227.427 183.031 222.864 172.237 214.839 164.289C206.814 156.342 195.976 151.884 184.681 151.884ZM193.416 233.186C188.006 234.415 182.398 234.488 176.959 233.401C171.519 232.314 166.37 230.091 161.848 226.878C157.326 223.665 153.533 219.534 150.717 214.755C147.9 209.976 146.124 204.657 145.504 199.144C144.884 193.632 145.435 188.051 147.119 182.765C148.804 177.48 151.584 172.61 155.28 168.473C158.975 164.336 163.502 161.025 168.564 158.757C173.627 156.489 179.111 155.315 184.658 155.311H184.681C194.377 155.31 203.734 158.883 210.962 165.346C218.191 171.808 222.784 180.708 223.865 190.344C224.946 199.979 222.438 209.676 216.821 217.579C211.204 225.483 202.871 231.039 193.416 233.186Z" fill="#FFB6B6"/>
<path d="M247.049 165.859C247.892 165.756 248.748 165.838 249.555 166.101C250.363 166.364 251.104 166.801 251.724 167.381C252.345 167.961 252.831 168.67 253.148 169.458C253.465 170.246 253.605 171.094 253.559 171.943L272.67 179.764L263.81 185.817L247.02 177.462C245.6 177.29 244.293 176.603 243.346 175.531C242.398 174.459 241.877 173.078 241.881 171.647C241.884 170.217 242.412 168.838 243.365 167.771C244.317 166.704 245.628 166.024 247.049 165.859Z" fill="#FFB6B6"/>
<path d="M353.834 236.179C353.834 236.179 361.616 227.549 355.361 220.505C349.105 213.46 260.331 173.206 260.331 173.206L255.184 182.951L323.207 225.676L353.834 236.179Z" fill="#E20A10"/>
<path d="M359.138 317.884L354.643 317.517L350.791 317.203L336.023 315.999L333.336 309.316L331.528 315.632L327.034 315.266L328.96 315.423L330.244 315.527L319.328 314.637L307.208 313.649L300.708 313.119L297.497 312.857L310.26 276.229L355.462 279.916L366.201 318.46L364.275 318.303L362.348 318.146L359.138 317.884Z" fill="#2D2D2D"/>
<path d="M344.73 191.73L351.867 198.145L360.813 201.714C360.813 201.714 360.255 255.39 363.394 259.087C366.534 262.784 363.444 262.625 363.768 267.122C364.093 271.619 365.02 280.858 365.02 280.858C340.95 291.191 321.031 289.896 306.219 274.3C306.086 273.399 306.266 272.48 306.727 271.695C307.189 270.91 307.905 270.307 308.756 269.985C311.859 268.649 306.744 260.818 309.275 259.785C311.806 258.751 309.259 247.79 309.259 247.79L313.319 225.684L311.838 221.976L317.939 200.528L325.664 198.4L329.25 191.424L344.73 191.73Z" fill="#E20A10"/>
<path d="M341.762 286.97C341.807 286.003 342.062 285.058 342.512 284.201C342.961 283.344 343.593 282.596 344.362 282.01C345.132 281.424 346.02 281.013 346.966 280.807C347.911 280.601 348.89 280.605 349.834 280.819L362.258 260.849L367.366 271.952L354.785 289.214C354.322 290.775 353.301 292.112 351.917 292.972C350.533 293.831 348.883 294.153 347.277 293.877C345.672 293.6 344.224 292.744 343.207 291.471C342.191 290.198 341.677 288.597 341.762 286.97Z" fill="#FFB6B6"/>
<path d="M360.237 283.344L386.146 249.569L386.083 249.399C386.012 249.204 381.721 237.53 377.514 226.814C376.866 225.164 376.22 223.536 375.592 221.977C375.321 221.304 375.054 220.645 374.79 220C373.011 215.648 371.441 212.043 370.47 210.312C368.327 206.403 364.912 203.344 360.791 201.644L360.687 201.608L360.582 201.642C358.441 202.346 356.604 203.76 355.374 205.648C354.144 207.537 353.594 209.788 353.815 212.032C354.941 222.855 358.567 233.269 364.407 242.452L367.735 247.671L352.479 274.788L360.237 283.344Z" fill="#E20A10"/>
<path d="M336.812 188.679C345.124 189.357 352.412 183.168 353.09 174.855C353.768 166.542 347.579 159.254 339.267 158.576C330.954 157.898 323.666 164.087 322.988 172.4C322.31 180.713 328.499 188.002 336.812 188.679Z" fill="#FFB6B6"/>
<path d="M323.919 162.323C325.451 158.823 331.816 156.828 341.833 157.295C351.851 157.762 353.424 169.741 353.424 169.741C359.651 175.695 344.681 189.053 344.057 188.477L344.579 185.781C345.443 181.314 347.84 177.969 345.539 173.053L342.959 172.872C339.579 173.241 336.198 173.61 332.817 173.978L337.041 170.83L336.944 170.649C335.196 171.385 333.327 171.79 331.431 171.844C329.303 171.795 327.056 170.764 326.194 168.817C325.965 168.283 325.845 167.708 325.842 167.127C322.892 168.035 321.299 171.45 321.299 171.45C321.299 171.45 322.388 165.823 323.919 162.323Z" fill="#2D2D2D"/>
<path d="M192.469 196.719C192.469 198.832 191.629 200.859 190.135 202.354C188.64 203.848 186.613 204.687 184.5 204.687C182.387 204.687 180.36 203.848 178.865 202.354C177.371 200.859 176.531 198.832 176.531 196.719C176.531 194.605 177.371 192.578 178.865 191.084C180.36 189.59 182.387 188.75 184.5 188.75C186.613 188.75 188.64 189.59 190.135 191.084C191.629 192.578 192.469 194.605 192.469 196.719Z" fill="#BB0000"/>
<path d="M165.375 182.375C163.684 182.375 162.063 183.047 160.867 184.242C159.672 185.438 159 187.059 159 188.75V207.875C159 209.566 159.672 211.187 160.867 212.383C162.063 213.578 163.684 214.25 165.375 214.25H203.625C205.316 214.25 206.937 213.578 208.133 212.383C209.328 211.187 210 209.566 210 207.875V188.75C210 187.059 209.328 185.438 208.133 184.242C206.937 183.047 205.316 182.375 203.625 182.375H199.889C198.199 182.375 196.577 181.703 195.382 180.507L192.743 177.868C191.548 176.672 189.926 176 188.236 176H180.764C179.074 176 177.452 176.672 176.257 177.868L173.618 180.507C172.423 181.703 170.801 182.375 169.111 182.375H165.375ZM166.969 188.75C166.546 188.75 166.141 188.582 165.842 188.283C165.543 187.984 165.375 187.579 165.375 187.156C165.375 186.734 165.543 186.328 165.842 186.029C166.141 185.73 166.546 185.562 166.969 185.562C167.391 185.562 167.797 185.73 168.096 186.029C168.395 186.328 168.562 186.734 168.562 187.156C168.562 187.579 168.395 187.984 168.096 188.283C167.797 188.582 167.391 188.75 166.969 188.75ZM195.656 196.719C195.656 199.678 194.481 202.515 192.389 204.607C190.296 206.7 187.459 207.875 184.5 207.875C181.541 207.875 178.704 206.7 176.611 204.607C174.519 202.515 173.344 199.678 173.344 196.719C173.344 193.76 174.519 190.922 176.611 188.83C178.704 186.738 181.541 185.562 184.5 185.562C187.459 185.562 190.296 186.738 192.389 188.83C194.481 190.922 195.656 193.76 195.656 196.719Z" fill="#BB0000"/>
<path d="M47.2099 196.016L49.1019 196.131C49.279 196.142 49.4551 196.098 49.6069 196.006L49.676 195.964C49.7616 195.912 49.832 195.839 49.8803 195.751L49.8953 195.724C49.9318 195.658 49.9509 195.583 49.9509 195.508C49.9509 195.412 49.9205 195.319 49.864 195.242L49.8259 195.19C49.7215 195.048 49.5633 194.954 49.3882 194.932L48.6525 194.836L46.9214 194.705H45.7673H44.0361H42.5935H42.4687C42.1689 194.705 41.8706 194.749 41.5837 194.836C41.408 194.916 41.2952 195.091 41.2952 195.284V195.361V195.416C41.2952 195.626 41.4049 195.82 41.5845 195.929C41.6783 195.986 41.786 196.016 41.8957 196.016H42.4493H44.3247H45.623H47.2099Z" fill="#BB0000"/>
<path d="M39.5042 196.58L39.5264 196.745C39.5668 197.043 39.2187 197.234 38.9888 197.04C38.9677 197.022 38.9489 197.002 38.9329 196.979L38.6794 196.623C38.5914 196.499 38.5233 196.362 38.4775 196.218C38.4326 196.075 38.4098 195.927 38.4098 195.778V195.282V195.03C38.4098 194.335 38.5018 193.644 38.6834 192.974L39.0635 191.872C39.1747 191.549 39.3123 191.236 39.4749 190.936C39.6763 190.564 39.9151 190.214 40.1876 189.891L40.8722 189.079L41.5562 188.213L42.2402 187.492L42.7874 186.915L42.9861 186.705C43.2176 186.461 43.4187 186.19 43.585 185.897C43.6915 185.71 43.7834 185.515 43.8597 185.314L43.9239 185.145C43.9869 184.979 44.0326 184.807 44.0603 184.631L44.064 184.608C44.1241 184.228 44.095 183.838 43.9788 183.471C43.9144 183.267 43.824 183.072 43.7098 182.892L43.5912 182.704C43.4222 182.437 43.196 182.211 42.9288 182.042C42.7444 181.925 42.5432 181.837 42.3322 181.782L42.1034 181.721L41.7843 181.609C41.7259 181.589 41.6781 181.545 41.6515 181.49C41.5982 181.377 41.643 181.243 41.753 181.185L41.8007 181.16C41.82 181.149 41.8405 181.141 41.8617 181.136L42.0861 181.077C42.2792 181.026 42.4781 181 42.6778 181H42.9945C43.2209 181 43.447 181.017 43.671 181.051L43.7739 181.066C44.1178 181.118 44.4529 181.217 44.7698 181.36L45.0021 181.465C45.1664 181.539 45.3197 181.636 45.4576 181.752C45.7674 182.014 45.9883 182.365 46.0898 182.757L46.1788 183.101C46.2878 183.523 46.306 183.963 46.232 184.392L46.1621 184.797C46.1013 185.15 46.0027 185.495 45.8679 185.827L45.8625 185.84C45.728 186.171 45.5592 186.487 45.3589 186.783L44.9762 187.347L44.1554 188.357L43.061 189.511L42.1034 190.377C41.4673 191.048 40.9147 191.793 40.4576 192.596L40.325 192.829L39.9694 193.673C39.8419 193.976 39.7397 194.288 39.664 194.608C39.5578 195.056 39.5042 195.514 39.5042 195.975V196.58Z" fill="#BB0000"/>
<path d="M62.8218 212.914L63.1058 210.213V209.36V208.507V207.956C63.1058 207.66 63.1302 207.365 63.1787 207.074C63.2247 206.797 63.2922 206.525 63.3807 206.259L63.4336 206.1C63.4989 205.904 63.5781 205.713 63.6705 205.528L63.8256 205.217C64.0061 204.855 64.263 204.537 64.5784 204.284C64.732 204.161 64.8983 204.055 65.0743 203.967L65.2927 203.857C65.538 203.734 65.7941 203.635 66.0577 203.559C66.4541 203.446 66.8644 203.388 67.2767 203.388H67.6491H67.9189C68.4004 203.388 68.8807 203.436 69.3528 203.531C69.9197 203.625 70.4935 203.673 71.0683 203.673H71.3405H71.8406C72.1653 203.673 72.4855 203.597 72.7758 203.452L72.8726 203.403C73.0792 203.3 73.262 203.151 73.4062 202.971C73.6302 202.69 73.7541 202.34 73.7541 201.981C73.7541 201.877 73.7438 201.773 73.7235 201.671L73.6695 201.401C73.6313 201.21 73.5758 201.022 73.5035 200.842L73.4641 200.743C73.374 200.517 73.2511 200.306 73.0995 200.116C72.876 199.837 72.5944 199.609 72.2742 199.448L72.1168 199.369C71.978 199.3 71.8345 199.24 71.6874 199.191L71.5518 199.146C71.2224 199.036 70.883 198.959 70.5384 198.916C70.128 198.864 69.7117 198.862 69.3007 198.908C68.8648 198.956 68.4352 199.059 68.0247 199.213L67.5071 199.407L66.0894 199.924C65.9936 199.958 65.901 200.002 65.8129 200.053L64.7294 200.686C64.4653 200.841 64.1259 200.739 63.9893 200.466C63.9683 200.424 63.953 200.379 63.9438 200.333L63.9073 200.15C63.8471 199.849 63.7156 199.566 63.5238 199.326L63.2478 198.981L62.785 198.517C62.5262 198.258 62.2425 198.025 61.9379 197.822C61.6758 197.647 61.3993 197.494 61.1114 197.366L60.2662 196.99L58.9884 196.564L57.7236 196.141C57.4329 196.044 57.1284 195.995 56.822 195.995H56.2806C56.194 195.995 56.1085 196.015 56.0311 196.054C55.9232 196.108 55.8357 196.196 55.7818 196.303C55.7431 196.381 55.7229 196.467 55.7229 196.553V196.589C55.7229 196.838 55.8535 197.069 56.067 197.197L56.4328 197.417L57.7106 197.985L58.9884 198.554L59.9688 199.045C60.2598 199.191 60.5255 199.382 60.7555 199.613L60.9966 199.854C61.1699 200.028 61.3004 200.239 61.3779 200.472L61.3865 200.498C61.4888 200.805 61.4888 201.137 61.3865 201.444C61.3037 201.693 61.157 201.916 60.9611 202.091L60.4055 202.585C60.1246 202.835 59.8119 203.047 59.4756 203.216L58.5853 203.661C58.0032 203.953 57.398 204.196 56.7759 204.387L55.8649 204.668L51.0377 205.805L48.0562 206.232L45.0746 206.516L42.519 206.659H40.2474L38.1177 206.516L36.13 206.374L33.1485 206.232L30.4509 206.09L30.2482 206.054C28.7763 205.794 27.3255 205.426 25.9076 204.952L24.1526 204.199C23.998 204.133 23.8509 204.05 23.7141 203.952L23.2779 203.64C23.0527 203.479 22.9006 203.235 22.8551 202.962C22.8097 202.689 22.8744 202.409 23.0352 202.183L23.3328 201.766C23.4399 201.616 23.5648 201.479 23.7047 201.359L24.0517 201.061C24.3418 200.812 24.6549 200.591 24.9868 200.401L26.4756 199.549L28.8892 198.554L31.5868 197.701L34.1423 196.99L35.4489 196.752C35.6151 196.722 35.7681 196.642 35.8874 196.522L35.9688 196.441C36.0721 196.337 36.13 196.197 36.13 196.051C36.13 195.842 36.0122 195.652 35.8255 195.558L35.7193 195.505C35.6159 195.453 35.5019 195.426 35.3863 195.426H34.2843L32.8646 195.568L30.7349 195.853L28.7472 196.279L27.7205 196.573C26.4192 196.945 25.1486 197.418 23.92 197.985L22.8942 198.546C22.5375 198.741 22.1971 198.964 21.8764 199.214L21.5277 199.485C21.2308 199.717 20.9661 199.986 20.7406 200.288L20.3315 200.834C20.2636 200.925 20.2144 201.028 20.1869 201.138C20.0599 201.647 19.5072 201.921 19.0251 201.714L18.9507 201.682L18.8962 201.664C18.3655 201.487 17.8217 201.352 17.2698 201.259L17.1654 201.242C16.6528 201.156 16.134 201.113 15.6143 201.113H15.537C15.0687 201.113 14.6013 201.152 14.1394 201.229L13.5403 201.329C13.2675 201.375 13.0012 201.453 12.7471 201.562L12.6009 201.625C12.2937 201.757 12.0144 201.946 11.7782 202.182L11.5209 202.44C11.2753 202.686 11.1186 203.007 11.0756 203.352C11.027 203.741 11.1264 204.134 11.3543 204.454L11.4133 204.537C11.6073 204.808 11.8766 205.024 12.1836 205.156C12.5197 205.3 12.8956 205.344 13.2554 205.278L13.9319 205.155C14.1539 205.115 14.3723 205.056 14.5847 204.98L15.1977 204.761C15.8961 204.511 16.6324 204.384 17.3742 204.384H17.6979C18.0583 204.384 18.417 204.432 18.7646 204.527L19.2475 204.659C19.6112 204.758 19.9428 204.951 20.2092 205.217C20.5 205.509 20.7018 205.877 20.791 206.278L20.8607 206.593C20.9124 206.825 20.9384 207.063 20.9384 207.302V209.929L21.0804 211.919L21.6483 214.621L22.0222 215.806C22.3394 216.812 22.792 217.77 23.3676 218.654L23.4591 218.795C24.232 219.981 25.2312 221.004 26.3996 221.805C27.0165 222.228 27.6756 222.585 28.3664 222.871L29.1223 223.184C30.6636 223.823 32.2838 224.252 33.9392 224.459L34.8522 224.573L40.5313 225C42.8942 225 45.2538 224.821 47.5897 224.465L50.6118 224.005L54.0192 223.009L55.4933 222.353C56.213 222.033 56.9042 221.652 57.5594 221.215L57.7858 221.063C58.3968 220.656 58.9659 220.188 59.485 219.669C60.3779 218.774 61.1124 217.735 61.657 216.594L61.7373 216.426C62.1747 215.51 62.4964 214.544 62.6952 213.549L62.8218 212.914Z" fill="#BB0000"/>
<path d="M48.2573 203.384L48.5308 203.186C48.855 202.951 49.1604 202.69 49.444 202.407L50.0122 201.841C50.5793 201.275 51.0988 200.663 51.5652 200.012L51.5745 199.999L52.1427 199.29L52.5215 198.818C52.6474 198.661 52.7563 198.491 52.8464 198.311C52.945 198.115 53.0662 197.93 53.2074 197.761L53.7051 197.165L54.5573 196.032L55.2674 195.181L57.54 193.056L60.2386 190.789C60.806 190.318 61.4071 189.888 62.0371 189.504L63.6475 188.522L64.6417 187.955L64.7485 187.889C65.4331 187.462 66.1586 187.105 66.9142 186.822L68.0505 186.397L68.9027 186.114L69.7549 185.83L70.4651 185.547L70.6783 185.44C70.9144 185.323 71.1395 185.184 71.3509 185.026L71.4529 184.949C71.5518 184.876 71.6453 184.795 71.7327 184.707L71.9816 184.459C72.1052 184.336 72.1983 184.185 72.2536 184.02C72.292 183.905 72.3116 183.785 72.3116 183.664V183.501C72.3116 183.354 72.2935 183.208 72.2577 183.065C72.1995 182.833 72.0954 182.614 71.9515 182.423L71.8729 182.318C71.7872 182.205 71.6828 182.106 71.5641 182.027C71.4018 181.919 71.2166 181.85 71.0233 181.826L70.181 181.721H69.1868L68.8011 181.764C68.2077 181.83 67.6228 181.958 67.0563 182.146L66.3461 182.43L64.6417 183.28L64.3446 183.449C63.8819 183.713 63.4564 184.037 63.0793 184.413L61.2329 186.114L57.824 189.797L54.6993 193.34L53.1369 195.04L52.4267 195.748L51.8949 196.203C51.587 196.466 51.2608 196.707 50.9188 196.924L50.7591 197.026C50.1695 197.4 49.5189 197.69 48.8474 197.882C48.213 198.062 47.547 198.157 46.8874 198.157H44.3308H42.2003H40.7799L39.5016 198.299C39.0292 198.393 38.5663 198.53 38.1188 198.709L37.3711 199.007L37.0288 199.153C36.6017 199.336 36.2299 199.627 35.9508 199.999L35.862 200.146C35.6413 200.513 35.5247 200.933 35.5247 201.362C35.5247 201.492 35.5354 201.622 35.5569 201.75L35.5913 201.956C35.6413 202.255 35.7358 202.545 35.8718 202.817C36.0182 203.109 36.2107 203.375 36.442 203.606L36.6379 203.801C36.936 204.099 37.2724 204.355 37.6382 204.564L38.0813 204.816L38.3128 204.919C39.0069 205.227 39.7424 205.431 40.4959 205.525H41.7641C42.4328 205.525 43.1007 205.477 43.7626 205.383L43.9853 205.334C44.6875 205.178 45.3738 204.957 46.0352 204.674L46.5692 204.408C47.1591 204.114 47.7237 203.771 48.2573 203.384Z" fill="#BB0000"/>
<path d="M43.103 202.639L45.3827 202.382C45.8566 202.296 46.3212 202.165 46.7702 201.991L47.0925 201.867L47.3322 201.78C47.6466 201.666 47.9491 201.522 48.2354 201.35L48.5422 201.165C48.6204 201.117 48.6939 201.063 48.7616 201.002L49.0101 200.777C49.1499 200.651 49.2297 200.471 49.2297 200.283C49.2297 200.14 49.1841 200.001 49.0996 199.887L49.0115 199.767C48.9671 199.707 48.9168 199.652 48.8614 199.602L48.8378 199.58C48.6288 199.391 48.3687 199.268 48.09 199.226L47.6624 199.162L46.3801 199.033H44.9553H43.9579H42.818H42.5446C42.063 199.033 41.5823 199.076 41.1083 199.162L39.9684 199.29L39.2402 199.385C39.0613 199.408 38.8855 199.45 38.7158 199.512L38.4651 199.602C38.3288 199.652 38.2033 199.727 38.0958 199.824C37.9237 199.98 37.8043 200.185 37.7542 200.412L37.7485 200.437C37.7093 200.614 37.7141 200.799 37.7625 200.974C37.8077 201.138 37.8896 201.289 38.0019 201.415L38.1131 201.541C38.3025 201.755 38.5392 201.922 38.8045 202.029L39.2595 202.211C39.5412 202.325 39.8351 202.405 40.1353 202.45L40.7251 202.539C41.1699 202.606 41.6191 202.639 42.069 202.639H43.103Z" fill="white"/>
</svg>
