<svg width="364" height="350" viewBox="0 0 364 350" fill="none" xmlns="http://www.w3.org/2000/svg">
<path d="M364 286.5C364 286.566 363.989 286.631 363.968 286.692C363.947 286.752 363.915 286.808 363.876 286.854C363.836 286.9 363.789 286.937 363.737 286.962C363.685 286.987 363.63 287 363.574 287H122.426C122.313 287 122.205 286.947 122.125 286.854C122.045 286.76 122 286.633 122 286.5C122 286.367 122.045 286.24 122.125 286.146C122.205 286.053 122.313 286 122.426 286H363.574C363.63 286 363.685 286.013 363.737 286.038C363.789 286.063 363.836 286.1 363.876 286.146C363.915 286.192 363.947 286.248 363.968 286.308C363.989 286.369 364 286.434 364 286.5Z" fill="#FF9797"/>
<path d="M127.994 256.679C198.641 256.679 255.911 199.408 255.911 128.761C255.911 58.1144 198.641 0.84375 127.994 0.84375C57.3468 0.84375 0.0761719 58.1144 0.0761719 128.761C0.0761719 199.408 57.3468 256.679 127.994 256.679Z" fill="#CFCFCF"/>
<path d="M238.063 128.761C238.075 145.936 234.063 162.875 226.348 178.219C218.633 193.564 207.43 206.886 193.637 217.12C192.714 217.81 191.774 218.482 190.828 219.136C172.383 231.958 150.457 238.83 127.994 238.83C105.531 238.83 83.6048 231.958 65.1598 219.136C64.2138 218.482 63.2737 217.81 62.3515 217.12C48.5677 206.878 37.3712 193.553 29.6572 178.21C21.9431 162.868 17.9255 145.934 17.9255 128.761C17.9255 111.589 21.9431 94.6545 29.6572 79.3122C37.3712 63.9698 48.5677 50.645 62.3515 40.403C63.2737 39.7129 64.2138 39.0405 65.1598 38.3861C83.6048 25.5647 105.531 18.6927 127.994 18.6927C150.457 18.6927 172.383 25.5647 190.828 38.3861C191.774 39.0405 192.714 39.7129 193.637 40.403C207.43 50.636 218.633 63.959 226.348 79.3034C234.063 94.6477 238.075 111.587 238.063 128.761Z" fill="white"/>
<path d="M127.994 229.31C183.525 229.31 228.543 184.293 228.543 128.761C228.543 73.2295 183.525 28.2121 127.994 28.2121C72.4619 28.2121 27.4446 73.2295 27.4446 128.761C27.4446 184.293 72.4619 229.31 127.994 229.31Z" fill="#FF0004"/>
<path opacity="0.2" d="M128.256 28.4933C126.732 28.4933 125.217 28.5331 123.71 28.6003C149.123 30.8334 172.737 42.6432 189.768 61.6371C206.799 80.6309 215.973 105.388 215.431 130.894C214.89 156.399 204.674 180.745 186.852 198.999C169.031 217.253 144.937 228.051 119.452 229.203C122.354 229.455 125.289 229.591 128.256 229.591C154.924 229.591 180.499 218.998 199.355 200.141C218.212 181.285 228.805 155.71 228.805 129.042C228.805 102.375 218.212 76.8 199.355 57.9434C180.499 39.0868 154.924 28.4933 128.256 28.4933Z" fill="black"/>
<path d="M128.291 21.0726C127.424 21.0741 126.592 21.4193 125.979 22.0327C125.366 22.646 125.021 23.4775 125.019 24.3449V38.624C125.019 39.4919 125.364 40.3242 125.977 40.9379C126.591 41.5516 127.423 41.8963 128.291 41.8963C129.159 41.8963 129.992 41.5516 130.605 40.9379C131.219 40.3242 131.564 39.4919 131.564 38.624V24.3449C131.562 23.4775 131.217 22.646 130.604 22.0327C129.99 21.4193 129.159 21.0741 128.291 21.0726Z" fill="white"/>
<path d="M193.637 40.403C192.714 39.7128 191.774 39.0405 190.828 38.3861C190.261 38.3491 189.693 38.4608 189.182 38.7101C188.671 38.9595 188.233 39.3379 187.913 39.808L179.875 51.6062C179.387 52.3234 179.203 53.2052 179.365 54.0576C179.527 54.9101 180.021 55.6633 180.738 56.1517C181.455 56.6401 182.337 56.8236 183.189 56.6618C184.042 56.5 184.795 56.0062 185.283 55.289L193.321 43.4909C193.627 43.0433 193.816 42.5263 193.871 41.987C193.926 41.4477 193.846 40.9032 193.637 40.403Z" fill="white"/>
<path d="M230.156 94.1997C229.994 93.8019 229.756 93.4399 229.454 93.1343C229.152 92.8287 228.794 92.5855 228.398 92.4186C228.002 92.2517 227.578 92.1645 227.148 92.1618C226.719 92.1591 226.293 92.241 225.896 92.4029L212.664 97.7754C211.86 98.1026 211.22 98.7353 210.883 99.5344C210.546 100.334 210.54 101.234 210.867 102.037C211.193 102.841 211.825 103.482 212.624 103.819C213.423 104.157 214.323 104.164 215.127 103.838L228.359 98.4656C229.162 98.1368 229.801 97.5032 230.138 96.7037C230.475 95.9042 230.481 95.0038 230.156 94.1997Z" fill="white"/>
<path d="M76.1136 51.6062L68.0756 39.808C67.7553 39.3379 67.3179 38.9595 66.8067 38.7101C66.2954 38.4608 65.7279 38.3491 65.1603 38.3861C64.2143 39.0405 63.2742 39.7128 62.352 40.403C62.143 40.9032 62.0623 41.4477 62.1174 41.987C62.1725 42.5263 62.3615 43.0433 62.6674 43.4909L70.7053 55.289C71.1937 56.0062 71.947 56.5 72.7994 56.6618C73.6519 56.8236 74.5337 56.6401 75.2509 56.1517C75.9681 55.6633 76.4618 54.9101 76.6236 54.0576C76.7854 53.2052 76.6019 52.3234 76.1136 51.6062Z" fill="white"/>
<path d="M43.3244 97.7755L30.0923 92.403C29.2884 92.0766 28.3877 92.0828 27.5884 92.4203C26.7891 92.7579 26.1566 93.3991 25.83 94.203C25.5034 95.0068 25.5095 95.9075 25.8469 96.7069C26.1843 97.5063 26.8254 98.1389 27.6292 98.4657L40.8612 103.838C41.665 104.164 42.5652 104.157 43.364 103.819C44.1628 103.482 44.7949 102.841 45.1214 102.037C45.4478 101.234 45.4419 100.334 45.1049 99.5345C44.768 98.7353 44.1276 98.1027 43.3244 97.7755Z" fill="white"/>
<path d="M128.291 215.626C127.424 215.628 126.592 215.973 125.979 216.586C125.366 217.2 125.021 218.031 125.019 218.898V233.178C125.019 234.045 125.364 234.878 125.977 235.492C126.591 236.105 127.423 236.45 128.291 236.45C129.159 236.45 129.992 236.105 130.605 235.492C131.219 234.878 131.564 234.045 131.564 233.178V218.898C131.562 218.031 131.217 217.2 130.604 216.586C129.99 215.973 129.159 215.628 128.291 215.626Z" fill="white"/>
<path d="M193.321 214.032L185.283 202.234C185.041 201.879 184.732 201.575 184.373 201.339C184.013 201.104 183.611 200.941 183.189 200.861C182.767 200.781 182.333 200.785 181.913 200.872C181.492 200.96 181.093 201.129 180.738 201.371C180.383 201.613 180.079 201.922 179.843 202.282C179.608 202.641 179.445 203.043 179.365 203.465C179.285 203.887 179.289 204.321 179.376 204.742C179.464 205.162 179.633 205.561 179.875 205.917L187.913 217.715C188.233 218.185 188.671 218.563 189.182 218.813C189.693 219.062 190.261 219.174 190.828 219.137C191.774 218.482 192.714 217.81 193.637 217.12C193.846 216.62 193.926 216.075 193.871 215.536C193.816 214.996 193.627 214.479 193.321 214.032Z" fill="white"/>
<path d="M228.359 159.057L215.127 153.684C214.323 153.358 213.422 153.364 212.623 153.701C211.823 154.039 211.191 154.68 210.864 155.484C210.538 156.288 210.544 157.189 210.881 157.988C211.218 158.787 211.86 159.42 212.663 159.747L225.895 165.119C226.699 165.445 227.599 165.438 228.398 165.101C229.197 164.763 229.829 164.122 230.156 163.318C230.482 162.515 230.476 161.615 230.139 160.816C229.802 160.016 229.162 159.384 228.359 159.057Z" fill="white"/>
<path d="M75.2508 201.371C74.5336 200.883 73.6519 200.699 72.7995 200.861C71.9471 201.023 71.1939 201.517 70.7054 202.234L62.6674 214.032C62.3615 214.479 62.1725 214.996 62.1174 215.536C62.0623 216.075 62.143 216.619 62.352 217.12C63.2742 217.81 64.2143 218.482 65.1603 219.137C65.7279 219.174 66.2954 219.062 66.8067 218.813C67.3179 218.563 67.7553 218.185 68.0756 217.715L76.1136 205.916C76.3554 205.561 76.525 205.162 76.6125 204.741C76.7 204.321 76.7038 203.887 76.6237 203.465C76.5436 203.043 76.3811 202.641 76.1456 202.281C75.91 201.922 75.606 201.613 75.2508 201.371Z" fill="white"/>
<path d="M45.1214 155.481C44.9598 155.083 44.7214 154.721 44.4198 154.416C44.1182 154.11 43.7593 153.867 43.3637 153.7C42.9681 153.533 42.5435 153.446 42.1142 153.443C41.6848 153.441 41.2591 153.522 40.8615 153.684L27.6294 159.057C26.8262 159.384 26.1858 160.017 25.8488 160.816C25.5119 161.615 25.506 162.515 25.8324 163.319C26.1589 164.122 26.7909 164.763 27.5898 165.101C28.3886 165.439 29.2888 165.445 30.0926 165.12L43.3246 159.747C44.1274 159.418 44.7672 158.785 45.104 157.985C45.4407 157.186 45.447 156.285 45.1214 155.481Z" fill="white"/>
<path d="M132.537 127.138C132.839 128.926 132.419 130.762 131.37 132.241C130.32 133.721 128.727 134.724 126.939 135.03L68.8715 144.907C67.9857 145.058 67.0789 145.033 66.2029 144.833C65.3269 144.633 64.4988 144.263 63.7659 143.743C63.033 143.223 62.4097 142.564 61.9315 141.803C61.4533 141.043 61.1296 140.195 60.979 139.309C60.8283 138.424 60.8536 137.517 61.0533 136.641C61.2531 135.765 61.6235 134.937 62.1433 134.204C62.6631 133.471 63.3222 132.848 64.0829 132.369C64.8436 131.891 65.691 131.568 66.5768 131.417L124.644 121.54C126.433 121.237 128.268 121.657 129.748 122.707C131.228 123.756 132.231 125.35 132.537 127.138Z" fill="white"/>
<path d="M193.652 191.472C192.818 192.311 191.685 192.784 190.502 192.789C189.319 192.794 188.182 192.329 187.341 191.497L124.832 129.478C123.994 128.644 123.52 127.512 123.516 126.329C123.512 125.146 123.977 124.01 124.81 123.17C125.643 122.331 126.776 121.856 127.958 121.851C129.141 121.846 130.278 122.31 131.118 123.143L193.627 185.161C194.466 185.995 194.94 187.128 194.944 188.311C194.949 189.494 194.484 190.631 193.652 191.472Z" fill="white"/>
<path d="M127.994 136.496C132.265 136.496 135.728 133.033 135.728 128.761C135.728 124.49 132.265 121.027 127.994 121.027C123.722 121.027 120.259 124.49 120.259 128.761C120.259 133.033 123.722 136.496 127.994 136.496Z" fill="#591200"/>
<path d="M189.076 185.783C189.474 186.408 190.005 186.937 190.631 187.334C191.256 187.731 191.961 187.986 192.695 188.081C193.43 188.176 194.177 188.109 194.882 187.884C195.588 187.66 196.236 187.283 196.781 186.781L212.652 195.285L211.801 185.967L196.86 179.32C195.956 178.461 194.768 177.964 193.521 177.922C192.275 177.881 191.057 178.298 190.097 179.094C189.138 179.891 188.504 181.012 188.315 182.245C188.127 183.478 188.398 184.737 189.076 185.783Z" fill="#FFB7B7"/>
<path d="M200.64 189.035L206.859 180.45L236.822 194.614L274.106 187.618C275.949 187.273 277.846 187.337 279.661 187.806C281.477 188.276 283.166 189.139 284.61 190.336C286.055 191.532 287.218 193.031 288.017 194.727C288.817 196.423 289.233 198.275 289.236 200.15C289.239 203.537 287.898 206.786 285.508 209.185C283.117 211.585 279.872 212.938 276.486 212.948L233.758 213.027L200.64 189.035Z" fill="#FF0004"/>
<path d="M191.061 337.316L184.768 334.307L193.412 308.005L202.699 312.447L191.061 337.316Z" fill="#FFB7B7"/>
<path d="M233.248 333.076C232.79 333.363 232.332 333.644 231.87 333.926C230.95 334.49 230.021 335.045 229.092 335.59C228.625 335.863 228.154 336.136 227.687 336.404V336.418L227.659 336.422L227.65 336.427L226.938 336.603L225.917 333.903L225.445 332.66L224.78 330.899L223.56 327.677L217.135 310.714L227.123 308.25L227.498 309.78H227.502L227.687 310.538L231.177 324.691L231.889 327.585L231.912 327.673L232.342 329.401L232.711 330.899L233.123 332.572L233.248 333.076Z" fill="#FFB7B7"/>
<path d="M292.832 273.505C292.199 274.522 291.552 275.534 290.9 276.537C289.689 278.405 288.446 280.244 287.17 282.056C287.17 282.061 287.166 282.061 287.161 282.065C286.417 282.755 285.595 283.355 284.711 283.854C284.674 283.882 284.633 283.9 284.596 283.923C283.945 284.283 283.253 284.561 282.534 284.751C282.275 284.816 282.012 284.88 281.753 284.945C280.819 285.167 279.895 285.356 278.975 285.523C277.339 285.814 275.721 286.022 274.113 286.151C273.983 286.165 273.854 286.174 273.724 286.184C267.11 286.669 260.672 285.888 253.951 284.608C250.632 283.979 247.244 283.226 243.736 282.444C242.59 282.186 241.439 281.931 240.274 281.677C240.186 281.659 240.094 281.636 240.001 281.617C238.337 281.252 236.646 280.891 234.912 280.535C232.731 280.087 230.48 279.653 228.141 279.241L228.307 282.537C228.446 285.072 228.973 287.571 229.87 289.946C230.868 292.867 231.658 295.178 229.99 299.99L229.186 302.32C229.603 303.476 229.746 304.714 229.604 305.935C229.462 307.157 229.039 308.329 228.368 309.359L228.206 309.604L234.912 326.572L235.347 327.672H231.913L227.688 327.676H220.528L210.198 306.951L209.703 305.962V305.911L210.771 266.082C210.785 265.731 210.813 265.375 210.859 265.024C211.047 263.427 211.552 261.883 212.343 260.483C213.134 259.083 214.196 257.855 215.467 256.87C216.685 255.918 218.08 255.218 219.571 254.81C221.062 254.402 222.619 254.295 224.152 254.494L227.688 254.952L234.912 255.886L240.001 256.547L240.103 256.56L255.111 258.502L256.188 254.111L256.387 254.037L262.705 251.721L284.559 243.711L284.614 243.693L286.052 243.166L286.223 243.443C286.274 243.526 286.324 243.609 286.371 243.693C287.791 246.24 288.948 248.925 289.823 251.707C291.295 256.252 292.506 260.877 293.452 265.56C293.493 265.763 293.53 265.948 293.563 266.114L293.576 266.165C293.59 266.244 293.6 266.295 293.604 266.309C294.108 268.407 293.757 270.968 292.832 273.505Z" fill="#2D2D2D"/>
<path d="M293.755 258.827C293.686 258.531 293.598 258.231 293.505 257.94C292.771 255.734 291.917 253.571 290.945 251.459C289.854 249.056 288.546 246.481 286.988 243.694C286.235 242.345 285.424 240.941 284.557 239.484C284.122 238.753 283.671 238.009 283.203 237.251C283.184 237.216 283.164 237.182 283.142 237.149L283.008 236.928L261.386 239.821L253.334 240.898L252.854 244.91L252.738 245.904C252.734 245.904 252.734 245.904 252.738 245.908L252.415 248.617V248.622L251.985 252.199L251.948 252.194L240 250.646L227.686 249.051L221.072 248.196C219.539 247.997 217.982 248.104 216.491 248.512C215 248.919 213.605 249.62 212.387 250.572C211.116 251.557 210.054 252.786 209.263 254.185C208.472 255.585 207.967 257.129 207.779 258.726C207.737 259.049 207.709 259.382 207.696 259.71L201.456 274.496C197.722 283.339 195.344 292.695 194.402 302.247L189.826 316.876L190.478 316.937L200.175 317.838L202.736 318.078L208.375 309.846C209.017 308.908 209.628 307.942 210.196 306.953C211.132 305.337 211.964 303.664 212.687 301.942L224.885 272.915C225.828 273.077 226.762 273.231 227.686 273.378C231.962 274.071 236.066 274.636 240 275.074C252.789 276.502 263.864 276.613 273.723 275.402C276.491 275.065 279.167 274.621 281.751 274.071C282.699 273.872 283.634 273.658 284.557 273.428C284.774 273.378 284.987 273.327 285.199 273.271C287.11 272.779 288.866 271.815 290.307 270.468C291.748 269.121 292.829 267.434 293.45 265.562C294.191 263.392 294.297 261.055 293.755 258.827Z" fill="#2D2D2D"/>
<path d="M193.071 333.021L186.262 329.758L185.195 329.245L183.489 333.433L171.583 336.053C170.994 336.182 170.462 336.496 170.064 336.949C169.667 337.402 169.424 337.97 169.373 338.571C169.321 339.171 169.463 339.773 169.777 340.287C170.092 340.801 170.562 341.201 171.12 341.429L182.754 346.176L186.447 342.852L185.541 347.313L189.923 349.102L194.725 333.816L193.071 333.021Z" fill="#994243"/>
<path d="M234.912 326.572L235.347 327.672H234.912V326.572Z" fill="#2F2E41"/>
<path d="M232.542 327.907L225.408 330.378L224.288 330.765L226.023 334.941L219.406 345.181C219.079 345.687 218.922 346.284 218.958 346.886C218.994 347.487 219.222 348.062 219.607 348.525C219.993 348.988 220.517 349.315 221.102 349.459C221.687 349.603 222.303 349.557 222.86 349.326L234.467 344.513L234.753 339.553L237.247 343.36L241.62 341.548L234.277 327.307L232.542 327.907Z" fill="#994243"/>
<path d="M291.976 265.524C291.552 265.523 291.135 265.419 290.76 265.222L253.114 245.551L252.679 243.77L251.859 238.135L251.871 238.082L255.451 221.576C255.385 221.434 255.248 221.202 255.093 220.939C253.495 218.231 248.631 209.988 257.914 198.639L274.214 179.636L288.203 179.035L288.362 179.236C292.103 183.931 294.625 189.477 295.706 195.382C296.786 201.287 296.391 207.367 294.556 213.082L293.099 239.39L294.661 244.703C295.575 247.825 295.424 251.162 294.232 254.189L294.59 262.792C294.604 263.144 294.547 263.496 294.422 263.826C294.297 264.156 294.107 264.458 293.863 264.712C293.619 264.967 293.326 265.171 293.002 265.31C292.678 265.449 292.329 265.522 291.976 265.524Z" fill="#FF0004"/>
<path d="M259.32 287.22C259.958 286.843 260.506 286.331 260.924 285.72C261.342 285.108 261.622 284.413 261.742 283.682C261.863 282.951 261.822 282.203 261.622 281.49C261.422 280.776 261.068 280.116 260.585 279.554L269.636 263.988L260.294 264.515L253.132 279.215C252.242 280.089 251.703 281.259 251.619 282.503C251.534 283.748 251.908 284.98 252.671 285.966C253.434 286.953 254.532 287.625 255.757 287.856C256.983 288.087 258.251 287.861 259.32 287.22Z" fill="#FFB7B7"/>
<path d="M262.972 275.776L254.609 269.261L269.807 239.81L264.112 202.304C263.83 200.45 263.961 198.557 264.493 196.759C265.026 194.961 265.947 193.303 267.193 191.901C268.439 190.499 269.977 189.389 271.7 188.649C273.423 187.909 275.288 187.558 277.162 187.619C280.547 187.734 283.748 189.188 286.063 191.66C288.377 194.133 289.617 197.422 289.509 200.807L288.102 243.513L262.972 275.776Z" fill="#FF0004"/>
<path d="M265.241 171.741V157.898C265.238 152.978 267.189 148.259 270.665 144.778C274.142 141.297 278.858 139.34 283.778 139.336C288.698 139.333 293.417 141.285 296.898 144.761C300.379 148.237 302.336 152.954 302.339 157.874V157.898C305.609 164.71 303.563 167.949 302.339 171.741C302.338 172.401 302.075 173.034 301.609 173.5C301.142 173.967 300.509 174.23 299.849 174.231H267.733C267.072 174.23 266.439 173.968 265.972 173.501C265.505 173.034 265.242 172.401 265.241 171.741Z" fill="#2D2D2D"/>
<path d="M277.707 173.332C285.376 173.332 291.592 167.115 291.592 159.447C291.592 151.778 285.376 145.562 277.707 145.562C270.039 145.562 263.823 151.778 263.823 159.447C263.823 167.115 270.039 173.332 277.707 173.332Z" fill="#FFB6B6"/>
<path d="M292.239 163.087C292.113 163.067 291.987 163.041 291.861 163.021C289.695 162.637 287.53 162.259 285.37 161.868L285.172 156.974L282.556 161.358C276.588 163.339 271.005 162.219 265.752 159.749C264.02 158.926 262.339 158 260.719 156.974C261.16 154.267 262.201 151.692 263.765 149.439C265.329 147.186 267.377 145.312 269.759 143.952C269.958 143.84 270.15 143.74 270.349 143.641L270.351 143.64L270.353 143.639L270.355 143.637L270.355 143.634C270.693 143.475 271.038 143.323 271.382 143.184C274.078 142.13 277.018 141.863 279.86 142.414C282.702 142.965 285.33 144.312 287.437 146.297C291.676 150.344 293.583 157.027 292.239 163.087Z" fill="#2D2D2D"/>
</svg>
