<svg width="81" height="77" viewBox="0 0 81 77" fill="none" xmlns="http://www.w3.org/2000/svg">
<g clip-path="url(#clip0_59_183)">
<path fill-rule="evenodd" clip-rule="evenodd" d="M35.3334 19C34.7811 19 34.3334 19.4477 34.3334 20V21H33.3334C31.6765 21 30.3334 22.3432 30.3334 24V38C30.3334 39.6569 31.6765 41 33.3334 41H41.4344C40.8485 40.4259 40.3631 39.7496 40.007 39H33.3334C32.7811 39 32.3334 38.5523 32.3334 38V29H48.3334V29.2899C49.0558 29.5049 49.7294 29.8334 50.3334 30.2547V24C50.3334 22.3432 48.9903 21 47.3334 21H46.3334V20C46.3334 19.4477 45.8857 19 45.3334 19C44.7811 19 44.3334 19.4477 44.3334 20V21H36.3334V20C36.3334 19.4477 35.8857 19 35.3334 19ZM44.3334 24V23H36.3334V24C36.3334 24.5523 35.8857 25 35.3334 25C34.7811 25 34.3334 24.5523 34.3334 24V23H33.3334C32.7811 23 32.3334 23.4477 32.3334 24V27H48.3334V24C48.3334 23.4477 47.8857 23 47.3334 23H46.3334V24C46.3334 24.5523 45.8857 25 45.3334 25C44.7811 25 44.3334 24.5523 44.3334 24Z" fill="#2D2D2D"/>
<path d="M43.6262 35.7071C44.0167 35.3166 44.6499 35.3166 45.0404 35.7071L45.6816 36.3482L47.5806 34.4491C47.9712 34.0586 48.6043 34.0586 48.9949 34.4491C49.3854 34.8397 49.3854 35.4728 48.9949 35.8634L46.4546 38.4036C46.3682 38.49 46.27 38.5573 46.1651 38.6054C45.7821 38.8294 45.2821 38.7772 44.9536 38.4487L43.6262 37.1213C43.2357 36.7308 43.2357 36.0976 43.6262 35.7071Z" fill="#2D2D2D"/>
<path fill-rule="evenodd" clip-rule="evenodd" d="M52.3334 36C52.3334 39.3137 49.6471 42 46.3334 42C43.0197 42 40.3334 39.3137 40.3334 36C40.3334 32.6863 43.0197 30 46.3334 30C49.6471 30 52.3334 32.6863 52.3334 36ZM42.3153 36C42.3153 38.2191 44.1143 40.0181 46.3334 40.0181C48.5525 40.0181 50.3515 38.2191 50.3515 36C50.3515 33.7809 48.5525 31.9819 46.3334 31.9819C44.1143 31.9819 42.3153 33.7809 42.3153 36Z" fill="#2D2D2D"/>
</g>
<path d="M1.44355 57V49.7273H3.90093C4.47148 49.7273 4.93787 49.8303 5.30008 50.0362C5.66467 50.2398 5.93455 50.5156 6.10974 50.8636C6.28493 51.2116 6.37253 51.5999 6.37253 52.0284C6.37253 52.4569 6.28493 52.8464 6.10974 53.1967C5.93692 53.5471 5.6694 53.8265 5.30718 54.0348C4.94497 54.2408 4.48095 54.3438 3.91514 54.3438H2.15378V53.5625H3.88673C4.27735 53.5625 4.59104 53.495 4.82778 53.3601C5.06452 53.2251 5.23616 53.0429 5.3427 52.8132C5.4516 52.5812 5.50605 52.3196 5.50605 52.0284C5.50605 51.7372 5.4516 51.4768 5.3427 51.2472C5.23616 51.0175 5.06334 50.8376 4.82423 50.7074C4.58512 50.5748 4.26789 50.5085 3.87253 50.5085H2.32423V57H1.44355ZM8.51564 49.7273V57H7.67757V49.7273H8.51564ZM11.6557 57.1278C11.3101 57.1278 10.9964 57.0627 10.7147 56.9325C10.433 56.8 10.2092 56.6094 10.0435 56.3608C9.87779 56.1098 9.79493 55.8068 9.79493 55.4517C9.79493 55.1392 9.85649 54.8859 9.97959 54.6918C10.1027 54.4953 10.2672 54.3414 10.4732 54.2301C10.6792 54.1188 10.9064 54.036 11.155 53.9815C11.406 53.9247 11.6581 53.8797 11.9114 53.8466C12.2428 53.804 12.5116 53.772 12.7175 53.7507C12.9259 53.727 13.0774 53.688 13.1721 53.6335C13.2691 53.5791 13.3177 53.4844 13.3177 53.3494V53.321C13.3177 52.9706 13.2218 52.6984 13.03 52.5043C12.8406 52.3101 12.553 52.2131 12.1671 52.2131C11.767 52.2131 11.4533 52.3007 11.226 52.4759C10.9988 52.651 10.839 52.8381 10.7466 53.0369L9.95118 52.7528C10.0932 52.4214 10.2826 52.1634 10.5194 51.9787C10.7585 51.7917 11.0189 51.6615 11.3006 51.5881C11.5847 51.5123 11.8641 51.4744 12.1387 51.4744C12.3139 51.4744 12.5151 51.4957 12.7424 51.5384C12.972 51.5786 13.1934 51.6626 13.4064 51.7905C13.6219 51.9183 13.8006 52.1113 13.9427 52.3693C14.0847 52.6274 14.1557 52.973 14.1557 53.4062V57H13.3177V56.2614H13.275C13.2182 56.3797 13.1235 56.5064 12.991 56.6413C12.8584 56.7763 12.682 56.8911 12.4618 56.9858C12.2417 57.0805 11.973 57.1278 11.6557 57.1278ZM11.7836 56.375C12.115 56.375 12.3944 56.3099 12.6216 56.1797C12.8513 56.0495 13.0241 55.8814 13.1401 55.6754C13.2585 55.4695 13.3177 55.2528 13.3177 55.0256V54.2585C13.2821 54.3011 13.204 54.3402 13.0833 54.3757C12.9649 54.4089 12.8276 54.4384 12.6714 54.4645C12.5175 54.4882 12.3671 54.5095 12.2204 54.5284C12.0759 54.545 11.9588 54.5592 11.8688 54.571C11.651 54.5994 11.4474 54.6456 11.258 54.7095C11.071 54.7711 10.9195 54.8646 10.8035 54.9901C10.6898 55.1132 10.633 55.2812 10.633 55.4943C10.633 55.7855 10.7407 56.0057 10.9562 56.1548C11.174 56.3016 11.4498 56.375 11.7836 56.375ZM16.5234 53.7188V57H15.6854V51.5455H16.495V52.3977H16.5661C16.6939 52.1207 16.888 51.8982 17.1484 51.7301C17.4089 51.5597 17.745 51.4744 18.157 51.4744C18.5263 51.4744 18.8494 51.5502 19.1264 51.7017C19.4034 51.8509 19.6189 52.0781 19.7727 52.3835C19.9266 52.6866 20.0036 53.0701 20.0036 53.5341V57H19.1655V53.5909C19.1655 53.1624 19.0542 52.8286 18.8317 52.5895C18.6091 52.348 18.3038 52.2273 17.9155 52.2273C17.648 52.2273 17.4089 52.2853 17.1982 52.4013C16.9898 52.5173 16.8253 52.6866 16.7046 52.9091C16.5838 53.1316 16.5234 53.4015 16.5234 53.7188ZM22.3731 53.7188V57H21.535V51.5455H22.3446V52.3977H22.4157C22.5435 52.1207 22.7376 51.8982 22.9981 51.7301C23.2585 51.5597 23.5946 51.4744 24.0066 51.4744C24.3759 51.4744 24.6991 51.5502 24.976 51.7017C25.253 51.8509 25.4685 52.0781 25.6223 52.3835C25.7762 52.6866 25.8532 53.0701 25.8532 53.5341V57H25.0151V53.5909C25.0151 53.1624 24.9038 52.8286 24.6813 52.5895C24.4588 52.348 24.1534 52.2273 23.7651 52.2273C23.4976 52.2273 23.2585 52.2853 23.0478 52.4013C22.8394 52.5173 22.6749 52.6866 22.5542 52.9091C22.4334 53.1316 22.3731 53.4015 22.3731 53.7188ZM29.6715 57.1136C29.146 57.1136 28.6926 56.9976 28.3114 56.7656C27.9327 56.5312 27.6403 56.2045 27.4343 55.7855C27.2307 55.3641 27.1289 54.8741 27.1289 54.3153C27.1289 53.7566 27.2307 53.2642 27.4343 52.8381C27.6403 52.4096 27.9267 52.0758 28.2937 51.8366C28.663 51.5952 29.0939 51.4744 29.5863 51.4744C29.8704 51.4744 30.1509 51.5218 30.4279 51.6165C30.7049 51.7112 30.957 51.8651 31.1843 52.0781C31.4116 52.2888 31.5927 52.5682 31.7276 52.9162C31.8626 53.2642 31.9301 53.6927 31.9301 54.2017V54.5568H27.7255V53.8324H31.0778C31.0778 53.5246 31.0162 53.25 30.8931 53.0085C30.7724 52.767 30.5996 52.5765 30.3747 52.4368C30.1521 52.2971 29.8893 52.2273 29.5863 52.2273C29.2525 52.2273 28.9637 52.3101 28.7198 52.4759C28.4783 52.6392 28.2925 52.8523 28.1623 53.1151C28.0321 53.3778 27.967 53.6596 27.967 53.9602V54.4432C27.967 54.8551 28.038 55.2043 28.1801 55.4908C28.3245 55.7749 28.5245 55.9915 28.7802 56.1406C29.0359 56.2874 29.333 56.3608 29.6715 56.3608C29.8917 56.3608 30.0906 56.33 30.2681 56.2685C30.448 56.2045 30.6031 56.1098 30.7333 55.9844C30.8635 55.8565 30.9641 55.6979 31.0352 55.5085L31.8448 55.7358C31.7596 56.0104 31.6164 56.2519 31.4151 56.4602C31.2139 56.6662 30.9653 56.8272 30.6694 56.9432C30.3735 57.0568 30.0408 57.1136 29.6715 57.1136ZM33.2049 57V51.5455H34.0146V52.3693H34.0714C34.1708 52.0994 34.3507 51.8804 34.6112 51.7124C34.8716 51.5443 35.1651 51.4602 35.4918 51.4602C35.5534 51.4602 35.6303 51.4614 35.7227 51.4638C35.815 51.4661 35.8848 51.4697 35.9322 51.4744V52.3267C35.9038 52.3196 35.8387 52.3089 35.7369 52.2947C35.6374 52.2782 35.5321 52.2699 35.4208 52.2699C35.1557 52.2699 34.9189 52.3255 34.7106 52.4368C34.5046 52.5457 34.3413 52.6972 34.2205 52.8913C34.1022 53.0831 34.043 53.3021 34.043 53.5483V57H33.2049ZM41.7978 57.1136C41.3432 57.1136 40.942 56.9988 40.5939 56.7692C40.2459 56.5372 39.9737 56.2105 39.7772 55.7891C39.5807 55.3653 39.4824 54.8646 39.4824 54.2869C39.4824 53.714 39.5807 53.2169 39.7772 52.7955C39.9737 52.3741 40.2471 52.0485 40.5975 51.8189C40.9479 51.5893 41.3527 51.4744 41.812 51.4744C42.1671 51.4744 42.4476 51.5336 42.6536 51.652C42.8619 51.768 43.0205 51.9006 43.1295 52.0497C43.2407 52.1965 43.3271 52.3172 43.3887 52.4119H43.4597V49.7273H44.2978V57H43.4881V56.1619H43.3887C43.3271 56.2614 43.2395 56.3868 43.1259 56.5384C43.0123 56.6875 42.8501 56.8213 42.6394 56.9396C42.4287 57.0556 42.1482 57.1136 41.7978 57.1136ZM41.9114 56.3608C42.2476 56.3608 42.5317 56.2732 42.7637 56.098C42.9957 55.9205 43.1721 55.6754 43.2928 55.3629C43.4135 55.0481 43.4739 54.6847 43.4739 54.2727C43.4739 53.8655 43.4147 53.5092 43.2964 53.2038C43.178 52.8961 43.0028 52.657 42.7708 52.4865C42.5388 52.3137 42.2523 52.2273 41.9114 52.2273C41.5563 52.2273 41.2604 52.3184 41.0236 52.5007C40.7893 52.6806 40.6129 52.9257 40.4945 53.2358C40.3785 53.5436 40.3205 53.8892 40.3205 54.2727C40.3205 54.661 40.3797 55.0137 40.4981 55.331C40.6188 55.6458 40.7964 55.8968 41.0307 56.0838C41.2675 56.2685 41.561 56.3608 41.9114 56.3608ZM48.165 57.1136C47.6725 57.1136 47.2405 56.9964 46.8688 56.7621C46.4995 56.5277 46.2107 56.1998 46.0023 55.7784C45.7964 55.357 45.6934 54.8646 45.6934 54.3011C45.6934 53.733 45.7964 53.237 46.0023 52.8132C46.2107 52.3894 46.4995 52.0604 46.8688 51.826C47.2405 51.5916 47.6725 51.4744 48.165 51.4744C48.6574 51.4744 49.0883 51.5916 49.4576 51.826C49.8293 52.0604 50.1181 52.3894 50.3241 52.8132C50.5324 53.237 50.6366 53.733 50.6366 54.3011C50.6366 54.8646 50.5324 55.357 50.3241 55.7784C50.1181 56.1998 49.8293 56.5277 49.4576 56.7621C49.0883 56.9964 48.6574 57.1136 48.165 57.1136ZM48.165 56.3608C48.539 56.3608 48.8468 56.2649 49.0883 56.0732C49.3297 55.8814 49.5085 55.6293 49.6245 55.3168C49.7405 55.0043 49.7985 54.6657 49.7985 54.3011C49.7985 53.9366 49.7405 53.5968 49.6245 53.282C49.5085 52.9671 49.3297 52.7126 49.0883 52.5185C48.8468 52.3243 48.539 52.2273 48.165 52.2273C47.7909 52.2273 47.4831 52.3243 47.2417 52.5185C47.0002 52.7126 46.8214 52.9671 46.7054 53.282C46.5894 53.5968 46.5314 53.9366 46.5314 54.3011C46.5314 54.6657 46.5894 55.0043 46.7054 55.3168C46.8214 55.6293 47.0002 55.8814 47.2417 56.0732C47.4831 56.2649 47.7909 56.3608 48.165 56.3608ZM60.6943 52H59.8136C59.7615 51.7467 59.6703 51.5241 59.5401 51.3324C59.4123 51.1406 59.256 50.9796 59.0714 50.8494C58.8891 50.7169 58.6867 50.6174 58.4641 50.5511C58.2416 50.4848 58.0096 50.4517 57.7681 50.4517C57.3278 50.4517 56.9289 50.563 56.5714 50.7855C56.2163 51.008 55.9334 51.3359 55.7227 51.7692C55.5143 52.2024 55.4102 52.7339 55.4102 53.3636C55.4102 53.9934 55.5143 54.5249 55.7227 54.9581C55.9334 55.3913 56.2163 55.7192 56.5714 55.9418C56.9289 56.1643 57.3278 56.2756 57.7681 56.2756C58.0096 56.2756 58.2416 56.2424 58.4641 56.1761C58.6867 56.1098 58.8891 56.0116 59.0714 55.8814C59.256 55.7488 59.4123 55.5866 59.5401 55.3949C59.6703 55.2008 59.7615 54.9782 59.8136 54.7273H60.6943C60.628 55.099 60.5072 55.4316 60.332 55.7251C60.1569 56.0187 59.9391 56.2685 59.6786 56.4744C59.4182 56.678 59.1258 56.8331 58.8015 56.9396C58.4795 57.0462 58.1351 57.0994 57.7681 57.0994C57.1479 57.0994 56.5962 56.9479 56.1133 56.6449C55.6303 56.3419 55.2504 55.911 54.9734 55.3523C54.6964 54.7936 54.5579 54.1307 54.5579 53.3636C54.5579 52.5966 54.6964 51.9337 54.9734 51.375C55.2504 50.8163 55.6303 50.3854 56.1133 50.0824C56.5962 49.7794 57.1479 49.6278 57.7681 49.6278C58.1351 49.6278 58.4795 49.6811 58.8015 49.7876C59.1258 49.8942 59.4182 50.0504 59.6786 50.2564C59.9391 50.46 60.1569 50.7086 60.332 51.0021C60.5072 51.2933 60.628 51.6259 60.6943 52ZM63.6089 57.1278C63.2632 57.1278 62.9495 57.0627 62.6678 56.9325C62.3861 56.8 62.1624 56.6094 61.9966 56.3608C61.8309 56.1098 61.7481 55.8068 61.7481 55.4517C61.7481 55.1392 61.8096 54.8859 61.9327 54.6918C62.0558 54.4953 62.2204 54.3414 62.4263 54.2301C62.6323 54.1188 62.8596 54.036 63.1081 53.9815C63.3591 53.9247 63.6112 53.8797 63.8645 53.8466C64.196 53.804 64.4647 53.772 64.6706 53.7507C64.879 53.727 65.0305 53.688 65.1252 53.6335C65.2223 53.5791 65.2708 53.4844 65.2708 53.3494V53.321C65.2708 52.9706 65.1749 52.6984 64.9831 52.5043C64.7937 52.3101 64.5061 52.2131 64.1202 52.2131C63.7201 52.2131 63.4064 52.3007 63.1792 52.4759C62.9519 52.651 62.7921 52.8381 62.6998 53.0369L61.9043 52.7528C62.0464 52.4214 62.2357 52.1634 62.4725 51.9787C62.7116 51.7917 62.972 51.6615 63.2537 51.5881C63.5378 51.5123 63.8172 51.4744 64.0918 51.4744C64.267 51.4744 64.4682 51.4957 64.6955 51.5384C64.9251 51.5786 65.1465 51.6626 65.3596 51.7905C65.575 51.9183 65.7537 52.1113 65.8958 52.3693C66.0378 52.6274 66.1089 52.973 66.1089 53.4062V57H65.2708V56.2614H65.2282C65.1714 56.3797 65.0767 56.5064 64.9441 56.6413C64.8115 56.7763 64.6351 56.8911 64.415 56.9858C64.1948 57.0805 63.9261 57.1278 63.6089 57.1278ZM63.7367 56.375C64.0681 56.375 64.3475 56.3099 64.5748 56.1797C64.8044 56.0495 64.9772 55.8814 65.0932 55.6754C65.2116 55.4695 65.2708 55.2528 65.2708 55.0256V54.2585C65.2353 54.3011 65.1571 54.3402 65.0364 54.3757C64.918 54.4089 64.7807 54.4384 64.6245 54.4645C64.4706 54.4882 64.3203 54.5095 64.1735 54.5284C64.0291 54.545 63.9119 54.5592 63.8219 54.571C63.6041 54.5994 63.4005 54.6456 63.2111 54.7095C63.0241 54.7711 62.8726 54.8646 62.7566 54.9901C62.6429 55.1132 62.5861 55.2812 62.5861 55.4943C62.5861 55.7855 62.6938 56.0057 62.9093 56.1548C63.1271 56.3016 63.4029 56.375 63.7367 56.375ZM71.5021 52.767L70.7493 52.9801C70.702 52.8546 70.6321 52.7327 70.5398 52.6143C70.4498 52.4936 70.3267 52.3942 70.1705 52.3161C70.0142 52.2379 69.8142 52.1989 69.5703 52.1989C69.2365 52.1989 68.9583 52.2758 68.7358 52.4297C68.5156 52.5812 68.4056 52.7741 68.4056 53.0085C68.4056 53.2169 68.4813 53.3814 68.6328 53.5021C68.7843 53.6229 69.0211 53.7235 69.3431 53.804L70.1527 54.0028C70.6404 54.1212 71.0038 54.3023 71.2429 54.5462C71.482 54.7876 71.6016 55.099 71.6016 55.4801C71.6016 55.7926 71.5116 56.072 71.3317 56.3182C71.1541 56.5644 70.9056 56.7585 70.5859 56.9006C70.2663 57.0426 69.8947 57.1136 69.4709 57.1136C68.9145 57.1136 68.4541 56.9929 68.0895 56.7514C67.7249 56.5099 67.4941 56.1572 67.397 55.6932L68.1925 55.4943C68.2682 55.7879 68.4115 56.008 68.6222 56.1548C68.8352 56.3016 69.1134 56.375 69.4567 56.375C69.8473 56.375 70.1574 56.2921 70.3871 56.1264C70.6191 55.9583 70.7351 55.7571 70.7351 55.5227C70.7351 55.3333 70.6688 55.1747 70.5362 55.0469C70.4037 54.9167 70.2001 54.8196 69.9254 54.7557L69.0163 54.5426C68.5168 54.4242 68.1499 54.2408 67.9155 53.9922C67.6835 53.7412 67.5675 53.4276 67.5675 53.0511C67.5675 52.7434 67.6539 52.4711 67.8267 52.2344C68.0019 51.9976 68.2398 51.8118 68.5405 51.6768C68.8435 51.5419 69.1868 51.4744 69.5703 51.4744C70.1101 51.4744 70.5339 51.5928 70.8416 51.8295C71.1518 52.0663 71.3719 52.3788 71.5021 52.767ZM74.4682 57.1278C74.1226 57.1278 73.8089 57.0627 73.5272 56.9325C73.2455 56.8 73.0217 56.6094 72.856 56.3608C72.6903 56.1098 72.6074 55.8068 72.6074 55.4517C72.6074 55.1392 72.669 54.8859 72.7921 54.6918C72.9152 54.4953 73.0797 54.3414 73.2857 54.2301C73.4917 54.1188 73.7189 54.036 73.9675 53.9815C74.2185 53.9247 74.4706 53.8797 74.7239 53.8466C75.0553 53.804 75.3241 53.772 75.53 53.7507C75.7384 53.727 75.8899 53.688 75.9846 53.6335C76.0816 53.5791 76.1302 53.4844 76.1302 53.3494V53.321C76.1302 52.9706 76.0343 52.6984 75.8425 52.5043C75.6531 52.3101 75.3655 52.2131 74.9796 52.2131C74.5795 52.2131 74.2658 52.3007 74.0385 52.4759C73.8113 52.651 73.6515 52.8381 73.5591 53.0369L72.7637 52.7528C72.9057 52.4214 73.0951 52.1634 73.3319 51.9787C73.571 51.7917 73.8314 51.6615 74.1131 51.5881C74.3972 51.5123 74.6766 51.4744 74.9512 51.4744C75.1264 51.4744 75.3276 51.4957 75.5549 51.5384C75.7845 51.5786 76.0059 51.6626 76.2189 51.7905C76.4344 51.9183 76.6131 52.1113 76.7552 52.3693C76.8972 52.6274 76.9682 52.973 76.9682 53.4062V57H76.1302V56.2614H76.0875C76.0307 56.3797 75.936 56.5064 75.8035 56.6413C75.6709 56.7763 75.4945 56.8911 75.2743 56.9858C75.0542 57.0805 74.7855 57.1278 74.4682 57.1278ZM74.5961 56.375C74.9275 56.375 75.2069 56.3099 75.4341 56.1797C75.6638 56.0495 75.8366 55.8814 75.9526 55.6754C76.071 55.4695 76.1302 55.2528 76.1302 55.0256V54.2585C76.0946 54.3011 76.0165 54.3402 75.8958 54.3757C75.7774 54.4089 75.6401 54.4384 75.4839 54.4645C75.33 54.4882 75.1796 54.5095 75.0329 54.5284C74.8884 54.545 74.7713 54.5592 74.6813 54.571C74.4635 54.5994 74.2599 54.6456 74.0705 54.7095C73.8835 54.7711 73.732 54.8646 73.616 54.9901C73.5023 55.1132 73.4455 55.2812 73.4455 55.4943C73.4455 55.7855 73.5532 56.0057 73.7687 56.1548C73.9865 56.3016 74.2623 56.375 74.5961 56.375ZM79.3359 49.7273V57H78.4979V49.7273H79.3359Z" fill="#5D5D5D"/>
<defs>
<clipPath id="clip0_59_183">
<rect width="24" height="24" fill="white" transform="translate(28.3334 18)"/>
</clipPath>
</defs>
</svg>
