<svg width="58" height="20" viewBox="0 0 58 20" fill="none" xmlns="http://www.w3.org/2000/svg">
<path d="M0.624596 2.35292L0 0H19.9578L20.6089 2.35292H10.5994L10.5539 19.6721H7.42978V2.35292H0.624596Z" fill="#2D2D2D"/>
<path d="M22.477 19.7808L16.9203 2.35292H20.6089L24.1135 15.5301H24.2772L27.6708 3.74858H30.7974L34.1996 15.5379H34.3546L37.5329 3.74858H40.9695L35.9911 19.7808H32.8387L29.3073 8.53164H29.1695L25.6295 19.7808H22.477Z" fill="#2D2D2D"/>
<path d="M58 11.7647C58 13.4921 57.644 14.9717 56.932 16.2033C56.2257 17.4297 55.261 18.3691 54.0379 19.0215C52.8206 19.6738 51.4396 20 49.895 20C48.3503 20 46.9665 19.6738 45.7434 19.0215C44.5261 18.3639 43.5614 17.4219 42.8494 16.1955C42.1431 14.9638 41.79 13.4869 41.79 11.7647C41.79 10.0373 42.1431 8.56034 42.8494 7.33392C43.5614 6.10227 44.5261 5.16027 45.7434 4.50792C46.9665 3.85557 48.3503 3.52939 49.895 3.52939C51.4396 3.52939 52.8206 3.85557 54.0379 4.50792C55.261 5.16027 56.2257 6.10227 56.932 7.33392C57.644 8.56034 58 10.0373 58 11.7647ZM54.7873 11.7647C54.7873 10.5487 54.5777 9.52321 54.1585 8.6882C53.7451 7.84797 53.1709 7.21388 52.4359 6.78594C51.7009 6.35278 50.8539 6.13619 49.895 6.13619C48.936 6.13619 48.0891 6.35278 47.3541 6.78594C46.6191 7.21388 46.042 7.84797 45.6228 8.6882C45.2094 9.52321 45.0027 10.5487 45.0027 11.7647C45.0027 12.9807 45.2094 14.0088 45.6228 14.849C46.042 15.684 46.6191 16.3181 47.3541 16.7513C48.0891 17.1792 48.936 17.3932 49.895 17.3932C50.8539 17.3932 51.7009 17.1792 52.4359 16.7513C53.1709 16.3181 53.7451 15.684 54.1585 14.849C54.5777 14.0088 54.7873 12.9807 54.7873 11.7647Z" fill="#2D2D2D"/>
</svg>
